<svg width="24" height="24" viewBox="0 0 24 24" fill="none" xmlns="http://www.w3.org/2000/svg">
    <path d="M22.5 7.63123H20.2275C20.1281 7.63123 20.0327 7.67074 19.9624 7.74107C19.892 7.81139 19.8525 7.90678 19.8525 8.00623V8.72998H19.5L19.1025 6.85498C18.9598 6.34043 18.6512 5.88735 18.2248 5.56597C17.7983 5.2446 17.2778 5.0729 16.7438 5.07748H7.26003C6.72312 5.07382 6.20012 5.24808 5.77271 5.57305C5.3453 5.89802 5.03755 6.35539 4.89753 6.87373L4.50378 8.74873H4.14753V8.00623C4.14753 7.90678 4.10802 7.81139 4.0377 7.74107C3.96737 7.67074 3.87199 7.63123 3.77253 7.63123H1.50003C1.40057 7.63123 1.30519 7.67074 1.23487 7.74107C1.16454 7.81139 1.12503 7.90678 1.12503 8.00623V9.44248C1.12387 9.53237 1.15504 9.61967 1.21286 9.68851C1.27068 9.75734 1.3513 9.80311 1.44003 9.81748L3.70878 10.1925H3.77253C3.86062 10.1916 3.94559 10.1597 4.01253 10.1025C4.05438 10.0676 4.08813 10.0241 4.11145 9.97486C4.13476 9.92564 4.14707 9.87194 4.14753 9.81748V9.47998H4.34628L4.12503 10.4775C3.71554 10.684 3.36578 10.992 3.1091 11.3721C2.85243 11.7522 2.69739 12.1917 2.65878 12.6487L2.46753 14.8425V17.715C2.46852 18.0379 2.59724 18.3473 2.82559 18.5757C3.05393 18.804 3.36335 18.9327 3.68628 18.9337H5.77503C6.09796 18.9327 6.40738 18.804 6.63572 18.5757C6.86407 18.3473 6.99279 18.0379 6.99378 17.715V17.34H17.0063V17.715C17.0073 18.0379 17.136 18.3473 17.3643 18.5757C17.5927 18.804 17.9021 18.9327 18.225 18.9337H20.3025C20.6255 18.9327 20.9349 18.804 21.1632 18.5757C21.3916 18.3473 21.5203 18.0379 21.5213 17.715V14.8125L21.3338 12.6487C21.2959 12.1925 21.142 11.7535 20.8867 11.3735C20.6314 10.9934 20.2831 10.685 19.875 10.4775L19.665 9.47998H19.8638V9.81748C19.8642 9.87194 19.8766 9.92564 19.8999 9.97486C19.9232 10.0241 19.9569 10.0676 19.9988 10.1025C20.0657 10.1597 20.1507 10.1916 20.2388 10.1925H20.3025L22.5525 9.81748C22.6413 9.80311 22.7219 9.75734 22.7797 9.68851C22.8375 9.61967 22.8687 9.53237 22.8675 9.44248V8.00623C22.8676 7.90806 22.8291 7.8138 22.7604 7.74368C22.6917 7.67357 22.5982 7.6332 22.5 7.63123ZM3.39753 9.37498L1.87503 9.12373V8.37373H3.39753V9.37498ZM9.63378 16.5975V15.885H14.3663V16.5975H9.63378ZM20.5838 12.7162L20.7713 14.8425V17.715C20.7713 17.8393 20.7219 17.9585 20.634 18.0464C20.5461 18.1343 20.4269 18.1837 20.3025 18.1837H18.225C18.1007 18.1837 17.9815 18.1343 17.8936 18.0464C17.8057 17.9585 17.7563 17.8393 17.7563 17.715V17.34H18.5475C18.647 17.34 18.7424 17.3005 18.8127 17.2301C18.883 17.1598 18.9225 17.0644 18.9225 16.965C18.9225 16.8655 18.883 16.7701 18.8127 16.6998C18.7424 16.6295 18.647 16.59 18.5475 16.59H15.1163V15.5025C15.1163 15.403 15.0768 15.3076 15.0064 15.2373C14.9361 15.167 14.8407 15.1275 14.7413 15.1275H9.25878C9.15932 15.1275 9.06394 15.167 8.99362 15.2373C8.92329 15.3076 8.88378 15.403 8.88378 15.5025V16.59H5.45253C5.35308 16.59 5.25769 16.6295 5.18737 16.6998C5.11704 16.7701 5.07753 16.8655 5.07753 16.965C5.07753 17.0644 5.11704 17.1598 5.18737 17.2301C5.25769 17.3005 5.35308 17.34 5.45253 17.34H6.24378V17.715C6.24378 17.8393 6.1944 17.9585 6.10649 18.0464C6.01858 18.1343 5.89935 18.1837 5.77503 18.1837H3.69753C3.57321 18.1837 3.45398 18.1343 3.36607 18.0464C3.27817 17.9585 3.22878 17.8393 3.22878 17.715V14.8762L3.41628 12.7162C3.45686 12.2308 3.67902 11.7786 4.0384 11.4498C4.39778 11.121 4.86794 10.9398 5.35503 10.9425H18.645C19.1321 10.9398 19.6023 11.121 19.9617 11.4498C20.321 11.7786 20.5432 12.2308 20.5838 12.7162ZM4.96128 10.1925L5.62503 7.03873C5.72492 6.68337 5.93933 6.37092 6.23496 6.14987C6.53059 5.92882 6.89092 5.81154 7.26003 5.81623H16.74C17.1069 5.80977 17.4656 5.92411 17.7611 6.14163C18.0565 6.35915 18.2723 6.66778 18.375 7.01998L19.0425 10.1925H4.96128ZM22.125 9.12373L20.6025 9.37498V8.38123H22.125V9.12373Z" fill="#78818C"/>
    <path d="M15.4573 13.125C15.3942 13.2672 15.3661 13.4224 15.3752 13.5776C15.3844 13.7329 15.4305 13.8837 15.5098 14.0175L15.566 14.1112C15.6827 14.3049 15.8478 14.4649 16.045 14.5754C16.2423 14.6859 16.465 14.743 16.691 14.7412H18.9748C19.3266 14.7334 19.6609 14.5865 19.9048 14.3329C20.1486 14.0792 20.2821 13.7393 20.276 13.3875C20.2756 13.1974 20.2361 13.0095 20.1599 12.8353C20.0838 12.6611 19.9727 12.5044 19.8335 12.375C19.7046 12.255 19.5517 12.1637 19.385 12.1068C19.2183 12.0499 19.0415 12.0289 18.866 12.045H18.8248L16.1248 12.5925C15.9785 12.62 15.8412 12.6829 15.7248 12.7757C15.6085 12.8685 15.5166 12.9885 15.4573 13.125ZM16.1435 13.4287C16.1536 13.4029 16.1698 13.3798 16.1907 13.3615C16.2116 13.3433 16.2366 13.3303 16.2635 13.3237L18.9485 12.7837C19.0868 12.7795 19.2213 12.8293 19.3235 12.9225C19.3865 12.9825 19.4365 13.0546 19.4707 13.1346C19.5049 13.2145 19.5224 13.3006 19.5223 13.3875C19.5284 13.5404 19.474 13.6896 19.3708 13.8027C19.2675 13.9157 19.1239 13.9835 18.971 13.9912H16.676C16.5821 13.9908 16.49 13.966 16.4085 13.9194C16.327 13.8727 16.259 13.8057 16.211 13.725L16.1548 13.6312C16.1369 13.6015 16.1266 13.5679 16.1246 13.5333C16.1227 13.4986 16.1292 13.464 16.1435 13.4325V13.4287Z" fill="#78818C"/>
    <path d="M8.07774 12.5925L5.36649 12.045H5.32524C5.14982 12.0286 4.97292 12.0496 4.80617 12.1065C4.63942 12.1633 4.4866 12.2549 4.35774 12.375C4.21763 12.5053 4.106 12.6632 4.02985 12.8387C3.9537 13.0143 3.91468 13.2037 3.91524 13.395C3.9092 13.7468 4.04269 14.0867 4.28653 14.3404C4.53036 14.5941 4.86471 14.7409 5.21649 14.7488H7.50024C7.72683 14.7509 7.95002 14.6935 8.14745 14.5823C8.34488 14.471 8.50964 14.3099 8.62524 14.115L8.68149 14.0213C8.76141 13.887 8.80789 13.7355 8.81703 13.5795C8.82617 13.4236 8.79769 13.2677 8.73399 13.125C8.67443 12.9907 8.58391 12.8725 8.46984 12.7799C8.35577 12.6874 8.2214 12.6231 8.07774 12.5925ZM8.03649 13.635L7.98024 13.7288C7.93231 13.8095 7.8643 13.8765 7.78281 13.9231C7.70132 13.9698 7.60914 13.9946 7.51524 13.995H5.21649C5.06362 13.9872 4.91998 13.9195 4.81678 13.8064C4.71357 13.6934 4.65911 13.5442 4.66524 13.3913C4.66564 13.3034 4.68455 13.2165 4.72073 13.1364C4.75691 13.0563 4.80956 12.9847 4.87524 12.9263C4.9706 12.8361 5.09648 12.7852 5.22774 12.7838H5.25024L7.93524 13.3238C7.96221 13.3303 7.9872 13.3433 8.0081 13.3616C8.02899 13.3798 8.04516 13.4029 8.05523 13.4288C8.06984 13.4619 8.07579 13.4982 8.07251 13.5343C8.06923 13.5704 8.05683 13.605 8.03649 13.635Z" fill="#78818C"/>
</svg>
