<svg width="24" height="24" viewBox="0 0 24 24" fill="none" xmlns="http://www.w3.org/2000/svg">
    <g clip-path="url(#clip0_302_2436)">
        <path d="M22 11.2H21.2C20.8817 11.2 20.5765 11.3264 20.3515 11.5514C20.1264 11.7765 20 12.0817 20 12.4V12.8H19.2V10.8C19.2 10.4817 19.0736 10.1765 18.8485 9.95145C18.6235 9.7264 18.3183 9.59998 18 9.59998H16.8C16.6939 9.59998 16.5922 9.55783 16.5172 9.48282C16.4421 9.4078 16.4 9.30606 16.4 9.19998V8.39998C16.4 8.08172 16.2736 7.77649 16.0485 7.55145C15.8235 7.3264 15.5183 7.19998 15.2 7.19998H13.6V5.99998H15.6C15.9183 5.99998 16.2235 5.87355 16.4485 5.6485C16.6736 5.42346 16.8 5.11824 16.8 4.79998C16.8 4.48172 16.6736 4.17649 16.4485 3.95145C16.2235 3.7264 15.9183 3.59998 15.6 3.59998H7.6C7.28174 3.59998 6.97652 3.7264 6.75147 3.95145C6.52643 4.17649 6.4 4.48172 6.4 4.79998C6.4 5.11824 6.52643 5.42346 6.75147 5.6485C6.97652 5.87355 7.28174 5.99998 7.6 5.99998H9.6V7.19998H7.6C7.28174 7.19998 6.97652 7.3264 6.75147 7.55145C6.52643 7.77649 6.4 8.08172 6.4 8.39998C6.4 8.50606 6.35786 8.6078 6.28284 8.68282C6.20783 8.75783 6.10609 8.79998 6 8.79998H4.8C4.48174 8.79998 4.17652 8.9264 3.95147 9.15145C3.72643 9.37649 3.6 9.68172 3.6 9.99998V11.6H2.4V9.99998C2.4 9.68172 2.27357 9.37649 2.04853 9.15145C1.82348 8.9264 1.51826 8.79998 1.2 8.79998C0.88174 8.79998 0.576516 8.9264 0.351472 9.15145C0.126428 9.37649 0 9.68172 0 9.99998L0 16.4C0 16.7182 0.126428 17.0235 0.351472 17.2485C0.576516 17.4735 0.88174 17.6 1.2 17.6C1.51826 17.6 1.82348 17.4735 2.04853 17.2485C2.27357 17.0235 2.4 16.7182 2.4 16.4V14.8H3.6V16.8C3.6 17.1182 3.72643 17.4235 3.95147 17.6485C4.17652 17.8735 4.48174 18 4.8 18H6.4688C6.57488 18 6.6766 18.0422 6.7516 18.1172L8.6828 20.0484C8.79391 20.1602 8.92612 20.2489 9.07175 20.3092C9.21739 20.3696 9.37355 20.4004 9.5312 20.4H18C18.3183 20.4 18.6235 20.2735 18.8485 20.0485C19.0736 19.8235 19.2 19.5182 19.2 19.2V17.6H20V18C20 18.3182 20.1264 18.6235 20.3515 18.8485C20.5765 19.0735 20.8817 19.2 21.2 19.2H22C22.5302 19.1993 23.0386 18.9884 23.4135 18.6135C23.7884 18.2386 23.9994 17.7302 24 17.2V13.2C23.9994 12.6697 23.7884 12.1614 23.4135 11.7865C23.0386 11.4115 22.5302 11.2006 22 11.2ZM7.2 4.79998C7.2 4.69389 7.24214 4.59215 7.31716 4.51713C7.39217 4.44212 7.49391 4.39998 7.6 4.39998H15.6C15.7061 4.39998 15.8078 4.44212 15.8828 4.51713C15.9579 4.59215 16 4.69389 16 4.79998C16 4.90606 15.9579 5.0078 15.8828 5.08282C15.8078 5.15783 15.7061 5.19998 15.6 5.19998H7.6C7.49391 5.19998 7.39217 5.15783 7.31716 5.08282C7.24214 5.0078 7.2 4.90606 7.2 4.79998ZM10.4 5.99998H12.8V7.19998H10.4V5.99998ZM1.6 16.4C1.6 16.5061 1.55786 16.6078 1.48284 16.6828C1.40783 16.7578 1.30609 16.8 1.2 16.8C1.09391 16.8 0.992172 16.7578 0.917157 16.6828C0.842143 16.6078 0.8 16.5061 0.8 16.4V9.99998C0.8 9.89389 0.842143 9.79215 0.917157 9.71713C0.992172 9.64212 1.09391 9.59998 1.2 9.59998C1.30609 9.59998 1.40783 9.64212 1.48284 9.71713C1.55786 9.79215 1.6 9.89389 1.6 9.99998V16.4ZM2.4 14V12.4H3.6V14H2.4ZM18.4 19.2C18.4 19.3061 18.3579 19.4078 18.2828 19.4828C18.2078 19.5578 18.1061 19.6 18 19.6H9.5312C9.42512 19.6 9.3234 19.5578 9.2484 19.4828L7.3172 17.5516C7.20603 17.4398 7.07382 17.3512 6.92819 17.2909C6.78257 17.2305 6.62643 17.1996 6.4688 17.2H4.8C4.69391 17.2 4.59217 17.1578 4.51716 17.0828C4.44214 17.0078 4.4 16.9061 4.4 16.8V9.99998C4.4 9.89389 4.44214 9.79215 4.51716 9.71713C4.59217 9.64212 4.69391 9.59998 4.8 9.59998H6C6.31826 9.59998 6.62348 9.47355 6.84853 9.2485C7.07357 9.02346 7.2 8.71824 7.2 8.39998C7.2 8.29389 7.24214 8.19215 7.31716 8.11713C7.39217 8.04212 7.49391 7.99998 7.6 7.99998H15.2C15.3061 7.99998 15.4078 8.04212 15.4828 8.11713C15.5579 8.19215 15.6 8.29389 15.6 8.39998V9.19998C15.6 9.51824 15.7264 9.82346 15.9515 10.0485C16.1765 10.2735 16.4817 10.4 16.8 10.4H18C18.1061 10.4 18.2078 10.4421 18.2828 10.5171C18.3579 10.5921 18.4 10.6939 18.4 10.8V19.2ZM19.2 16.8V13.6H20V16.8H19.2ZM23.2 17.2C23.2 17.5182 23.0736 17.8235 22.8485 18.0485C22.6235 18.2735 22.3183 18.4 22 18.4H21.2C21.0939 18.4 20.9922 18.3578 20.9172 18.2828C20.8421 18.2078 20.8 18.1061 20.8 18V12.4C20.8 12.2939 20.8421 12.1921 20.9172 12.1171C20.9922 12.0421 21.0939 12 21.2 12H22C22.3183 12 22.6235 12.1264 22.8485 12.3514C23.0736 12.5765 23.2 12.8817 23.2 13.2V17.2Z" fill="#78818C"/>
    </g>
    <defs>
        <clipPath id="clip0_302_2436">
            <rect width="24" height="24" fill="white"/>
        </clipPath>
    </defs>
</svg>
