<svg width="24" height="24" viewBox="0 0 24 24" fill="none" xmlns="http://www.w3.org/2000/svg">
    <path d="M15.1614 3H5.16016C5.0607 3 4.96532 3.03951 4.89499 3.10984C4.82467 3.18016 4.78516 3.27554 4.78516 3.375V7.6425C4.78516 7.74196 4.82467 7.83734 4.89499 7.90767C4.96532 7.97799 5.0607 8.0175 5.16016 8.0175H15.1614C15.2609 8.0175 15.3562 7.97799 15.4266 7.90767C15.4969 7.83734 15.5364 7.74196 15.5364 7.6425V3.375C15.5364 3.27554 15.4969 3.18016 15.4266 3.10984C15.3562 3.03951 15.2609 3 15.1614 3ZM14.7864 7.26H5.53516V3.75H14.7864V7.26Z" fill="#78818C"/>
    <path d="M12.9488 9.09375H7.37256C7.2731 9.09375 7.17772 9.13326 7.10739 9.20358C7.03707 9.27391 6.99756 9.36929 6.99756 9.46875C6.99756 9.56821 7.03707 9.66359 7.10739 9.73392C7.17772 9.80424 7.2731 9.84375 7.37256 9.84375H12.9488C13.0483 9.84375 13.1436 9.80424 13.214 9.73392C13.2843 9.66359 13.3238 9.56821 13.3238 9.46875C13.3238 9.36929 13.2843 9.27391 13.214 9.20358C13.1436 9.13326 13.0483 9.09375 12.9488 9.09375Z" fill="#78818C"/>
    <path d="M12.9488 10.5713H7.37256C7.2731 10.5713 7.17772 10.6108 7.10739 10.6811C7.03707 10.7514 6.99756 10.8468 6.99756 10.9463C6.99756 11.0457 7.03707 11.1411 7.10739 11.2115C7.17772 11.2818 7.2731 11.3213 7.37256 11.3213H12.9488C13.0483 11.3213 13.1436 11.2818 13.214 11.2115C13.2843 11.1411 13.3238 11.0457 13.3238 10.9463C13.3238 10.8468 13.2843 10.7514 13.214 10.6811C13.1436 10.6108 13.0483 10.5713 12.9488 10.5713Z" fill="#78818C"/>
    <path d="M22.7812 5.76377L21.3375 4.15127C21.2709 4.07717 21.1775 4.03258 21.078 4.02731C20.9785 4.02203 20.881 4.05651 20.8069 4.12314C20.7328 4.18978 20.6882 4.28312 20.6829 4.38263C20.6776 4.48214 20.7121 4.57967 20.7787 4.65377L22.0725 6.10127H21.8025C21.5041 6.10127 21.218 6.21979 21.007 6.43077C20.796 6.64175 20.6775 6.9279 20.6775 7.22627V8.35127C20.6775 8.64964 20.796 8.93578 21.007 9.14676C21.218 9.35774 21.5041 9.47627 21.8025 9.47627H22.125V20.625C22.125 20.7871 22.0606 20.9426 21.946 21.0572C21.8313 21.1719 21.6759 21.2363 21.5138 21.2363C21.3516 21.2363 21.1962 21.1719 21.0815 21.0572C20.9669 20.9426 20.9025 20.7871 20.9025 20.625V12.9975C20.9017 12.5112 20.7306 12.0405 20.4189 11.6671C20.1072 11.2938 19.6746 11.0414 19.1962 10.9538V9.45377C19.1962 9.35431 19.1567 9.25893 19.0864 9.1886C19.0161 9.11828 18.9207 9.07877 18.8212 9.07877H17.1863V3.14252C17.1863 2.64524 16.9887 2.16832 16.6371 1.81669C16.2854 1.46506 15.8085 1.26752 15.3113 1.26752H5.02125C4.52397 1.26752 4.04706 1.46506 3.69543 1.81669C3.34379 2.16832 3.14625 2.64524 3.14625 3.14252V9.09377H1.5C1.40054 9.09377 1.30516 9.13328 1.23483 9.2036C1.16451 9.27393 1.125 9.36931 1.125 9.46877V13.125C1.125 13.2245 1.16451 13.3199 1.23483 13.3902C1.30516 13.4605 1.40054 13.5 1.5 13.5H3.135V20.835H2.385C2.28554 20.835 2.19016 20.8745 2.11983 20.9449C2.04951 21.0152 2.01 21.1106 2.01 21.21V22.365C2.01 22.4645 2.04951 22.5599 2.11983 22.6302C2.19016 22.7005 2.28554 22.74 2.385 22.74H17.9437C18.0432 22.74 18.1386 22.7005 18.2089 22.6302C18.2792 22.5599 18.3187 22.4645 18.3187 22.365V21.21C18.3187 21.1106 18.2792 21.0152 18.2089 20.9449C18.1386 20.8745 18.0432 20.835 17.9437 20.835H17.1937V13.5H18.8288C18.9282 13.5 19.0236 13.4605 19.0939 13.3902C19.1642 13.3199 19.2038 13.2245 19.2038 13.125V11.7375C19.4791 11.8164 19.7213 11.9828 19.8938 12.2114C20.0662 12.4401 20.1597 12.7186 20.16 13.005V20.625C20.1855 20.9676 20.3396 21.2879 20.5913 21.5217C20.8431 21.7554 21.174 21.8853 21.5175 21.8853C21.861 21.8853 22.1919 21.7554 22.4437 21.5217C22.6954 21.2879 22.8495 20.9676 22.875 20.625V6.00002C22.8722 5.91275 22.839 5.8292 22.7812 5.76377ZM1.875 12.75V9.84377H3.135V12.75H1.875ZM17.5687 21.99H2.7525V21.585H17.5687V21.99ZM3.885 20.835V3.14252C3.885 2.84415 4.00353 2.558 4.2145 2.34702C4.42548 2.13604 4.71163 2.01752 5.01 2.01752H15.3038C15.6021 2.01752 15.8883 2.13604 16.0992 2.34702C16.3102 2.558 16.4288 2.84415 16.4288 3.14252V20.835H3.885ZM18.4462 12.75H17.1863V9.84377H18.4462V12.75ZM21.8212 8.70377C21.7218 8.70377 21.6264 8.66426 21.5561 8.59393C21.4858 8.52361 21.4462 8.42822 21.4462 8.32877V7.20377C21.4462 7.10431 21.4858 7.00893 21.5561 6.9386C21.6264 6.86828 21.7218 6.82877 21.8212 6.82877H22.125V8.67377L21.8212 8.70377Z" fill="#78818C"/>
</svg>
