<svg width="24" height="24" viewBox="0 0 24 24" fill="none" xmlns="http://www.w3.org/2000/svg">
    <path d="M22.875 12C22.8735 11.4428 22.6745 10.9042 22.3134 10.4798C21.9522 10.0555 21.4523 9.77301 20.9025 9.68251V6.59251C21.486 6.49825 22.0125 6.1877 22.3774 5.72271C22.7422 5.25772 22.9185 4.67239 22.8712 4.08325C22.8239 3.49412 22.5565 2.9444 22.1222 2.54355C21.6879 2.14269 21.1185 1.9201 20.5275 1.9201C19.9365 1.9201 19.3671 2.14269 18.9328 2.54355C18.4985 2.9444 18.2311 3.49412 18.1838 4.08325C18.1365 4.67239 18.3128 5.25772 18.6777 5.72271C19.0425 6.1877 19.569 6.49825 20.1525 6.59251V9.68251C19.666 9.76179 19.2166 9.99199 18.8681 10.3406C18.5195 10.6891 18.2893 11.1385 18.21 11.625H15.12C15.0397 11.1389 14.8091 10.6902 14.4607 10.3418C14.1123 9.99341 13.6636 9.76286 13.1775 9.68251V6.59251C13.761 6.49825 14.2875 6.1877 14.6524 5.72271C15.0172 5.25772 15.1935 4.67239 15.1462 4.08325C15.0989 3.49412 14.8315 2.9444 14.3972 2.54355C13.9629 2.14269 13.3935 1.9201 12.8025 1.9201C12.2115 1.9201 11.6421 2.14269 11.2078 2.54355C10.7735 2.9444 10.5061 3.49412 10.4588 4.08325C10.4115 4.67239 10.5878 5.25772 10.9527 5.72271C11.3175 6.1877 11.844 6.49825 12.4275 6.59251V9.68251C11.9441 9.7657 11.4987 9.99751 11.1533 10.3457C10.8078 10.6938 10.5795 11.141 10.5 11.625H3.85125V6.59251C4.43472 6.49825 4.96128 6.1877 5.3261 5.72271C5.69093 5.25772 5.86725 4.67239 5.81997 4.08325C5.77269 3.49412 5.50526 2.9444 5.07095 2.54355C4.63663 2.14269 4.06728 1.9201 3.47625 1.9201C2.88523 1.9201 2.31588 2.14269 1.88156 2.54355C1.44724 2.9444 1.17982 3.49412 1.13254 4.08325C1.08526 4.67239 1.26158 5.25772 1.62641 5.72271C1.99123 6.1877 2.51779 6.49825 3.10125 6.59251V12C3.10125 12.0995 3.14076 12.1948 3.21109 12.2652C3.28142 12.3355 3.3768 12.375 3.47625 12.375H10.5C10.5804 12.8611 10.8109 13.3098 11.1593 13.6582C11.5077 14.0066 11.9564 14.2372 12.4425 14.3175V17.4075C11.86 17.5018 11.3344 17.8119 10.9703 18.2762C10.6062 18.7405 10.4303 19.3248 10.4776 19.913C10.5248 20.5011 10.7919 21.0499 11.2255 21.45C11.6591 21.8502 12.2275 22.0724 12.8175 22.0724C13.4075 22.0724 13.9759 21.8502 14.4095 21.45C14.8432 21.0499 15.1102 20.5011 15.1575 19.913C15.2047 19.3248 15.0288 18.7405 14.6647 18.2762C14.3006 17.8119 13.775 17.5018 13.1925 17.4075V14.3175C13.6759 14.2343 14.1213 14.0025 14.4667 13.6544C14.8122 13.3062 15.0406 12.859 15.12 12.375H18.21C18.2893 12.8616 18.5195 13.3109 18.8681 13.6595C19.2166 14.008 19.666 14.2382 20.1525 14.3175V17.4075C19.57 17.5018 19.0444 17.8119 18.6803 18.2762C18.3162 18.7405 18.1403 19.3248 18.1876 19.913C18.2348 20.5011 18.5019 21.0499 18.9355 21.45C19.3691 21.8502 19.9375 22.0724 20.5275 22.0724C21.1175 22.0724 21.6859 21.8502 22.1195 21.45C22.5532 21.0499 22.8202 20.5011 22.8675 19.913C22.9147 19.3248 22.7388 18.7405 22.3747 18.2762C22.0106 17.8119 21.485 17.5018 20.9025 17.4075V14.3175C21.4523 14.227 21.9522 13.9445 22.3134 13.5202C22.6745 13.0958 22.8735 12.5572 22.875 12ZM1.875 4.27501C1.87501 3.95815 1.96901 3.64842 2.14513 3.38501C2.32124 3.12161 2.57154 2.91637 2.86435 2.79529C3.15716 2.67421 3.47931 2.64272 3.79002 2.70481C4.10074 2.76689 4.38605 2.91977 4.60984 3.14409C4.83362 3.3684 4.98583 3.65407 5.04719 3.96492C5.10855 4.27578 5.07631 4.59786 4.95454 4.89038C4.83277 5.18291 4.62695 5.43273 4.36313 5.60822C4.09931 5.78372 3.78936 5.877 3.4725 5.87626C3.2624 5.87626 3.05436 5.83481 2.8603 5.7543C2.66624 5.67378 2.48996 5.55578 2.34157 5.40704C2.19318 5.2583 2.07559 5.08175 1.99553 4.8875C1.91547 4.69325 1.87451 4.48511 1.875 4.27501ZM11.2013 4.27501C11.2013 3.95831 11.2952 3.64873 11.4711 3.3854C11.6471 3.12208 11.8971 2.91684 12.1897 2.79565C12.4823 2.67445 12.8043 2.64274 13.1149 2.70453C13.4255 2.76631 13.7108 2.91881 13.9348 3.14275C14.1587 3.36669 14.3112 3.65201 14.373 3.96262C14.4348 4.27323 14.4031 4.59519 14.2819 4.88778C14.1607 5.18037 13.9554 5.43045 13.6921 5.6064C13.4288 5.78235 13.1192 5.87626 12.8025 5.87626C12.3778 5.87626 11.9705 5.70756 11.6702 5.40726C11.37 5.10697 11.2013 4.69969 11.2013 4.27501ZM14.4 19.725C14.4 20.0419 14.306 20.3516 14.1299 20.615C13.9538 20.8784 13.7035 21.0836 13.4107 21.2047C13.1178 21.3258 12.7957 21.3573 12.485 21.2952C12.1743 21.2331 11.889 21.0802 11.6652 20.8559C11.4414 20.6316 11.2892 20.3459 11.2278 20.0351C11.1665 19.7242 11.1987 19.4022 11.3205 19.1096C11.4422 18.8171 11.6481 18.5673 11.9119 18.3918C12.1757 18.2163 12.4856 18.123 12.8025 18.1238C13.0126 18.1238 13.2206 18.1652 13.4147 18.2457C13.6088 18.3262 13.785 18.4442 13.9334 18.593C14.0818 18.7417 14.1994 18.9183 14.2795 19.1125C14.3595 19.3068 14.4005 19.5149 14.4 19.725ZM12.8025 13.6013C12.4856 13.602 12.1757 13.5087 11.9119 13.3332C11.6481 13.1577 11.4422 12.9079 11.3205 12.6154C11.1987 12.3229 11.1665 12.0008 11.2278 11.6899C11.2892 11.3791 11.4414 11.0934 11.6652 10.8691C11.889 10.6448 12.1743 10.4919 12.485 10.4298C12.7957 10.3677 13.1178 10.3992 13.4107 10.5203C13.7035 10.6414 13.9538 10.8466 14.1299 11.11C14.306 11.3734 14.4 11.6832 14.4 12C14.399 12.4237 14.2305 12.8299 13.9312 13.1299C13.632 13.4298 13.2262 13.5993 12.8025 13.6013ZM18.9263 4.27501C18.9263 3.95831 19.0202 3.64873 19.1961 3.3854C19.3721 3.12208 19.6221 2.91684 19.9147 2.79565C20.2073 2.67445 20.5293 2.64274 20.8399 2.70453C21.1505 2.76631 21.4358 2.91881 21.6598 3.14275C21.8837 3.36669 22.0362 3.65201 22.098 3.96262C22.1598 4.27323 22.1281 4.59519 22.0069 4.88778C21.8857 5.18037 21.6804 5.43045 21.4171 5.6064C21.1538 5.78235 20.8442 5.87626 20.5275 5.87626C20.1028 5.87626 19.6955 5.70756 19.3952 5.40726C19.095 5.10697 18.9263 4.69969 18.9263 4.27501ZM18.9263 12C18.9263 11.6833 19.0202 11.3737 19.1961 11.1104C19.3721 10.8471 19.6221 10.6418 19.9147 10.5206C20.2073 10.3995 20.5293 10.3677 20.8399 10.4295C21.1505 10.4913 21.4358 10.6438 21.6598 10.8678C21.8837 11.0917 22.0362 11.377 22.098 11.6876C22.1598 11.9982 22.1281 12.3202 22.0069 12.6128C21.8857 12.9054 21.6804 13.1555 21.4171 13.3314C21.1538 13.5073 20.8442 13.6013 20.5275 13.6013C20.1028 13.6013 19.6955 13.4326 19.3952 13.1323C19.095 12.832 18.9263 12.4247 18.9263 12ZM22.125 19.725C22.125 20.0419 22.031 20.3516 21.8549 20.615C21.6788 20.8784 21.4285 21.0836 21.1357 21.2047C20.8428 21.3258 20.5207 21.3573 20.21 21.2952C19.8993 21.2331 19.614 21.0802 19.3902 20.8559C19.1664 20.6316 19.0142 20.3459 18.9528 20.0351C18.8915 19.7242 18.9237 19.4022 19.0455 19.1096C19.1672 18.8171 19.3731 18.5673 19.6369 18.3918C19.9007 18.2163 20.2106 18.123 20.5275 18.1238C20.7376 18.1238 20.9456 18.1652 21.1397 18.2457C21.3338 18.3262 21.51 18.4442 21.6584 18.593C21.8068 18.7417 21.9244 18.9183 22.0045 19.1125C22.0845 19.3068 22.1255 19.5149 22.125 19.725Z" fill="#78818C"/>
</svg>
