<svg width="24" height="24" viewBox="0 0 24 24" fill="none" xmlns="http://www.w3.org/2000/svg">
    <path d="M12 22.5C9.9233 22.5 7.89323 21.8842 6.16652 20.7304C4.4398 19.5767 3.09399 17.9368 2.29927 16.0182C1.50455 14.0996 1.29661 11.9884 1.70176 9.95156C2.1069 7.91476 3.10693 6.04383 4.57538 4.57538C6.04383 3.10693 7.91476 2.1069 9.95156 1.70176C11.9884 1.29661 14.0996 1.50455 16.0182 2.29927C17.9368 3.09399 19.5767 4.4398 20.7304 6.16652C21.8842 7.89323 22.5 9.9233 22.5 12C22.4969 14.7838 21.3896 17.4527 19.4212 19.4212C17.4527 21.3896 14.7838 22.4969 12 22.5ZM12 2.25C10.0716 2.25 8.18657 2.82183 6.58319 3.89318C4.97982 4.96452 3.73013 6.48726 2.99218 8.26884C2.25422 10.0504 2.06114 12.0108 2.43735 13.9021C2.81355 15.7935 3.74215 17.5307 5.10571 18.8943C6.46928 20.2579 8.20656 21.1865 10.0979 21.5627C11.9892 21.9389 13.9496 21.7458 15.7312 21.0078C17.5127 20.2699 19.0355 19.0202 20.1068 17.4168C21.1782 15.8134 21.75 13.9284 21.75 12C21.747 9.41506 20.7188 6.93684 18.891 5.109C17.0632 3.28117 14.585 2.25298 12 2.25Z" fill="#78818C"/>
    <path d="M18.0973 18.4725C18.0231 18.4725 17.9506 18.4505 17.889 18.4093C17.8273 18.3681 17.7792 18.3095 17.7509 18.241C17.7225 18.1725 17.7151 18.0971 17.7295 18.0244C17.744 17.9516 17.7797 17.8848 17.8322 17.8323C18.9863 16.6787 19.7724 15.2087 20.0911 13.6083C20.4097 12.0078 20.2466 10.3488 19.6223 8.8411C18.998 7.33339 17.9405 6.04468 16.5837 5.13799C15.227 4.2313 13.6318 3.74735 11.9999 3.74735C10.368 3.74735 8.77282 4.2313 7.41603 5.13799C6.05924 6.04468 5.00182 7.33339 4.37751 8.8411C3.75321 10.3488 3.59005 12.0078 3.9087 13.6083C4.22734 15.2087 5.01346 16.6787 6.16763 17.8323C6.23648 17.903 6.27474 17.9979 6.27412 18.0965C6.27349 18.1951 6.23403 18.2895 6.16429 18.3593C6.09455 18.429 6.00013 18.4685 5.9015 18.4691C5.80287 18.4697 5.70796 18.4315 5.63734 18.3626C4.59084 17.3162 3.81857 16.0277 3.38896 14.6115C2.95936 13.1953 2.88566 11.6949 3.17441 10.2434C3.46315 8.79188 4.10543 7.43398 5.04434 6.28997C5.98325 5.14597 7.18981 4.25119 8.55714 3.68489C9.92447 3.11858 11.4104 2.89824 12.8832 3.04338C14.356 3.18852 15.7703 3.69466 17.0008 4.51697C18.2313 5.33927 19.24 6.45236 19.9375 7.75762C20.6351 9.06289 21 10.52 20.9998 12C21.0028 13.1823 20.7712 14.3533 20.3184 15.4455C19.8657 16.5376 19.2009 17.5291 18.3624 18.3626C18.3276 18.3974 18.2863 18.4251 18.2408 18.444C18.1953 18.4628 18.1466 18.4725 18.0973 18.4725Z" fill="#78818C"/>
    <path d="M12 5.25C11.9005 5.25 11.8052 5.21049 11.7348 5.14016C11.6645 5.06984 11.625 4.97446 11.625 4.875V3.375C11.625 3.27554 11.6645 3.18016 11.7348 3.10984C11.8052 3.03951 11.9005 3 12 3C12.0995 3 12.1948 3.03951 12.2652 3.10984C12.3355 3.18016 12.375 3.27554 12.375 3.375V4.875C12.375 4.97446 12.3355 5.06984 12.2652 5.14016C12.1948 5.21049 12.0995 5.25 12 5.25Z" fill="#78818C"/>
    <path d="M20.625 12.375H19.125C19.0255 12.375 18.9302 12.3355 18.8598 12.2652C18.7895 12.1948 18.75 12.0995 18.75 12C18.75 11.9005 18.7895 11.8052 18.8598 11.7348C18.9302 11.6645 19.0255 11.625 19.125 11.625H20.625C20.7245 11.625 20.8198 11.6645 20.8902 11.7348C20.9605 11.8052 21 11.9005 21 12C21 12.0995 20.9605 12.1948 20.8902 12.2652C20.8198 12.3355 20.7245 12.375 20.625 12.375Z" fill="#78818C"/>
    <path d="M4.875 12.375H3.375C3.27554 12.375 3.18016 12.3355 3.10984 12.2652C3.03951 12.1948 3 12.0995 3 12C3 11.9005 3.03951 11.8052 3.10984 11.7348C3.18016 11.6645 3.27554 11.625 3.375 11.625H4.875C4.97446 11.625 5.06984 11.6645 5.14016 11.7348C5.21049 11.8052 5.25 11.9005 5.25 12C5.25 12.0995 5.21049 12.1948 5.14016 12.2652C5.06984 12.3355 4.97446 12.375 4.875 12.375Z" fill="#78818C"/>
    <path d="M6.43139 6.80658C6.38214 6.80663 6.33335 6.79695 6.28785 6.7781C6.24234 6.75924 6.20101 6.73158 6.16623 6.6967L5.63579 6.16626C5.56694 6.09564 5.52868 6.00073 5.5293 5.9021C5.52993 5.80347 5.56939 5.70906 5.63913 5.63932C5.70888 5.56957 5.80329 5.53011 5.90192 5.52949C6.00055 5.52886 6.09546 5.56712 6.16608 5.63598L6.69652 6.16641C6.74896 6.21886 6.78467 6.28567 6.79914 6.35841C6.81361 6.43115 6.80619 6.50654 6.77781 6.57506C6.74943 6.64358 6.70138 6.70215 6.63971 6.74336C6.57805 6.78457 6.50556 6.80657 6.43139 6.80658Z" fill="#78818C"/>
    <path d="M5.90132 18.4739C5.82716 18.4739 5.75466 18.4519 5.693 18.4107C5.63134 18.3695 5.58328 18.3109 5.55491 18.2424C5.52653 18.1738 5.5191 18.0985 5.53357 18.0257C5.54804 17.953 5.58376 17.8862 5.6362 17.8337L6.16664 17.3033C6.20129 17.2677 6.24266 17.2394 6.28835 17.22C6.33403 17.2006 6.38312 17.1904 6.43277 17.1901C6.48241 17.1898 6.53162 17.1993 6.57755 17.2182C6.62348 17.237 6.6652 17.2648 6.70031 17.2999C6.73541 17.335 6.7632 17.3767 6.78205 17.4227C6.8009 17.4686 6.81045 17.5178 6.81013 17.5674C6.80982 17.6171 6.79965 17.6662 6.78022 17.7119C6.76078 17.7575 6.73247 17.7989 6.69692 17.8336L6.16649 18.364C6.1317 18.3989 6.09037 18.4265 6.04487 18.4454C5.99936 18.4643 5.95058 18.4739 5.90132 18.4739Z" fill="#78818C"/>
    <path d="M18.0988 18.4739C18.0495 18.4739 18.0007 18.4643 17.9552 18.4454C17.9097 18.4265 17.8684 18.3989 17.8336 18.364L17.3034 17.8336C17.2677 17.7989 17.2392 17.7576 17.2197 17.7119C17.2001 17.6661 17.1898 17.617 17.1895 17.5673C17.1891 17.5175 17.1986 17.4682 17.2175 17.4222C17.2363 17.3762 17.2641 17.3344 17.2993 17.2992C17.3344 17.2641 17.3762 17.2363 17.4223 17.2174C17.4683 17.1985 17.5176 17.189 17.5673 17.1894C17.617 17.1898 17.6662 17.2 17.7119 17.2196C17.7576 17.2391 17.799 17.2676 17.8336 17.3033L18.3639 17.8337C18.4163 17.8862 18.4521 17.953 18.4665 18.0257C18.481 18.0985 18.4736 18.1738 18.4452 18.2424C18.4168 18.3109 18.3688 18.3695 18.3071 18.4107C18.2454 18.4519 18.1729 18.4739 18.0988 18.4739Z" fill="#78818C"/>
    <path d="M17.5688 6.80658C17.4946 6.80657 17.4221 6.78457 17.3605 6.74336C17.2988 6.70215 17.2508 6.64358 17.2224 6.57506C17.194 6.50654 17.1866 6.43115 17.2011 6.35841C17.2155 6.28567 17.2512 6.21886 17.3037 6.16641L17.8339 5.63598C17.9046 5.56712 17.9995 5.52886 18.0981 5.52949C18.1967 5.53011 18.2911 5.56957 18.3609 5.63932C18.4306 5.70906 18.4701 5.80347 18.4707 5.9021C18.4713 6.00073 18.4331 6.09564 18.3642 6.16626L17.8339 6.6967C17.7992 6.73158 17.7578 6.75924 17.7123 6.7781C17.6668 6.79696 17.6181 6.80663 17.5688 6.80658Z" fill="#78818C"/>
    <path d="M12 13.125C11.7775 13.125 11.56 13.059 11.375 12.9354C11.19 12.8118 11.0458 12.6361 10.9606 12.4305C10.8755 12.225 10.8532 11.9988 10.8966 11.7805C10.94 11.5623 11.0472 11.3618 11.2045 11.2045C11.3618 11.0472 11.5623 10.94 11.7805 10.8966C11.9988 10.8532 12.225 10.8755 12.4305 10.9606C12.6361 11.0458 12.8118 11.19 12.9354 11.375C13.059 11.56 13.125 11.7775 13.125 12C13.1247 12.2983 13.006 12.5842 12.7951 12.7951C12.5842 13.006 12.2983 13.1247 12 13.125ZM12 11.625C11.9258 11.625 11.8533 11.647 11.7917 11.6882C11.73 11.7294 11.6819 11.788 11.6535 11.8565C11.6252 11.925 11.6177 12.0004 11.6322 12.0732C11.6467 12.1459 11.6824 12.2127 11.7348 12.2652C11.7873 12.3176 11.8541 12.3533 11.9268 12.3678C11.9996 12.3823 12.075 12.3748 12.1435 12.3465C12.212 12.3181 12.2706 12.27 12.3118 12.2083C12.353 12.1467 12.375 12.0742 12.375 12C12.3749 11.9006 12.3353 11.8053 12.265 11.735C12.1947 11.6647 12.0994 11.6251 12 11.625Z" fill="#78818C"/>
    <path d="M12.5302 11.8447C12.4561 11.8447 12.3836 11.8227 12.3219 11.7815C12.2603 11.7403 12.2122 11.6818 12.1838 11.6133C12.1554 11.5447 12.148 11.4694 12.1625 11.3966C12.1769 11.3239 12.2126 11.2571 12.2651 11.2046L16.2425 7.22703C16.3132 7.15872 16.408 7.12092 16.5063 7.12178C16.6046 7.12263 16.6987 7.16207 16.7682 7.2316C16.8377 7.30113 16.8772 7.39518 16.878 7.49351C16.8789 7.59183 16.8411 7.68656 16.7728 7.75728L12.7954 11.7349C12.7606 11.7698 12.7193 11.7974 12.6738 11.8163C12.6283 11.8351 12.5795 11.8448 12.5302 11.8447Z" fill="#78818C"/>
    <path d="M15 19.5H9C8.90054 19.5 8.80516 19.4605 8.73483 19.3902C8.66451 19.3198 8.625 19.2245 8.625 19.125V17.625C8.625 17.5255 8.66451 17.4302 8.73483 17.3598C8.80516 17.2895 8.90054 17.25 9 17.25H15C15.0995 17.25 15.1948 17.2895 15.2652 17.3598C15.3355 17.4302 15.375 17.5255 15.375 17.625V19.125C15.375 19.2245 15.3355 19.3198 15.2652 19.3902C15.1948 19.4605 15.0995 19.5 15 19.5ZM9.375 18.75H14.625V18H9.375V18.75Z" fill="#78818C"/>
</svg>
