<svg width="24" height="24" viewBox="0 0 24 24" fill="none" xmlns="http://www.w3.org/2000/svg">
    <path d="M18.945 7.59375H20.3212C20.6438 7.59276 20.9528 7.46392 21.1806 7.23546C21.4083 7.00701 21.5362 6.69758 21.5362 6.375V2.34C21.5362 2.01776 21.4082 1.70872 21.1804 1.48087C20.9525 1.25301 20.6435 1.125 20.3212 1.125H18.945C18.7854 1.125 18.6274 1.15643 18.48 1.21749C18.3326 1.27855 18.1987 1.36804 18.0858 1.48087C17.973 1.59369 17.8835 1.72763 17.8225 1.87504C17.7614 2.02245 17.73 2.18044 17.73 2.34V3.9825H13.7775C13.6941 3.64734 13.5013 3.34957 13.2296 3.1363C12.9579 2.92304 12.6229 2.80645 12.2775 2.805H11.7262C11.3808 2.80645 11.0458 2.92304 10.7741 3.1363C10.5025 3.34957 10.3097 3.64734 10.2262 3.9825H6.25498V2.34C6.25399 2.01807 6.12567 1.7096 5.89802 1.48196C5.67038 1.25432 5.36191 1.12599 5.03998 1.125H3.66373C3.34149 1.125 3.03245 1.25301 2.8046 1.48087C2.57674 1.70872 2.44873 2.01776 2.44873 2.34V6.375C2.44972 6.69693 2.57805 7.0054 2.80569 7.23304C3.03333 7.46068 3.3418 7.58901 3.66373 7.59H5.03998C5.36191 7.58901 5.67038 7.46068 5.89802 7.23304C6.12567 7.0054 6.25399 6.69693 6.25498 6.375V4.7325H10.2225C10.3021 5.05099 10.4808 5.33595 10.7329 5.54625C10.985 5.75654 11.2974 5.8813 11.625 5.9025V11.8687C11.3819 11.8784 11.152 11.9819 10.9835 12.1574C10.815 12.3328 10.721 12.5667 10.7212 12.81V14.9213C10.7211 15.1642 10.8152 15.3976 10.9838 15.5725C11.1524 15.7474 11.3822 15.85 11.625 15.8588V18.0863H11.115C10.9911 18.0862 10.8684 18.1107 10.7539 18.1583C10.6395 18.2058 10.5355 18.2755 10.4481 18.3633C10.3606 18.4511 10.2914 18.5553 10.2443 18.6699C10.1972 18.7845 10.1732 18.9073 10.1737 19.0312V19.2675H6.25498V17.625C6.25399 17.3031 6.12567 16.9946 5.89802 16.767C5.67038 16.5393 5.36191 16.411 5.03998 16.41H3.66373C3.3418 16.411 3.03333 16.5393 2.80569 16.767C2.57805 16.9946 2.44972 17.3031 2.44873 17.625V21.66C2.44873 21.9822 2.57674 22.2913 2.8046 22.5191C3.03245 22.747 3.34149 22.875 3.66373 22.875H5.03998C5.36191 22.874 5.67038 22.7457 5.89802 22.518C6.12567 22.2904 6.25399 21.9819 6.25498 21.66V20.0175H10.1737V20.25C10.1732 20.3739 10.1972 20.4967 10.2443 20.6114C10.2914 20.726 10.3606 20.8302 10.4481 20.918C10.5355 21.0058 10.6395 21.0755 10.7539 21.123C10.8684 21.1705 10.9911 21.195 11.115 21.195H12.885C13.1356 21.195 13.376 21.0954 13.5532 20.9182C13.7304 20.741 13.83 20.5006 13.83 20.25V20.0175H17.73V21.66C17.73 21.9822 17.858 22.2913 18.0858 22.5191C18.3137 22.747 18.6227 22.875 18.945 22.875H20.3212C20.6435 22.875 20.9525 22.747 21.1804 22.5191C21.4082 22.2913 21.5362 21.9822 21.5362 21.66V17.625C21.5352 17.3031 21.4069 16.9946 21.1793 16.767C20.9516 16.5393 20.6432 16.411 20.3212 16.41H18.945C18.623 16.411 18.3146 16.5393 18.0869 16.767C17.8593 16.9946 17.731 17.3031 17.73 17.625V19.2712H13.83V19.035C13.83 18.9109 13.8055 18.788 13.758 18.6734C13.7106 18.5587 13.6409 18.4545 13.5532 18.3668C13.4654 18.279 13.3613 18.2094 13.2466 18.1619C13.132 18.1144 13.0091 18.09 12.885 18.09H12.375V15.8588C12.6177 15.85 12.8476 15.7474 13.0162 15.5725C13.1848 15.3976 13.2789 15.1642 13.2787 14.9213V12.81C13.2789 12.5667 13.1849 12.3328 13.0164 12.1574C12.8479 11.9819 12.6181 11.8784 12.375 11.8687V5.9025C12.7026 5.8813 13.015 5.75654 13.2671 5.54625C13.5191 5.33595 13.6979 5.05099 13.7775 4.7325H17.73V6.375C17.73 6.69758 17.8579 7.00701 18.0856 7.23546C18.3134 7.46392 18.6224 7.59276 18.945 7.59375ZM5.50498 6.375C5.504 6.49802 5.45469 6.61573 5.3677 6.70272C5.28071 6.78971 5.163 6.83902 5.03998 6.84H3.66373C3.54041 6.84 3.42213 6.79101 3.33493 6.7038C3.24772 6.6166 3.19873 6.49833 3.19873 6.375V2.34C3.19873 2.21667 3.24772 2.0984 3.33493 2.0112C3.42213 1.92399 3.54041 1.875 3.66373 1.875H5.03998C5.163 1.87598 5.28071 1.92529 5.3677 2.01228C5.45469 2.09927 5.504 2.21698 5.50498 2.34V6.375ZM5.50498 21.6562C5.50498 21.7799 5.45611 21.8986 5.36902 21.9864C5.28192 22.0742 5.16365 22.124 5.03998 22.125H3.66373C3.54041 22.125 3.42213 22.076 3.33493 21.9888C3.24772 21.9016 3.19873 21.7833 3.19873 21.66V17.625C3.19873 17.5017 3.24772 17.3834 3.33493 17.2962C3.42213 17.209 3.54041 17.16 3.66373 17.16H5.03998C5.163 17.161 5.28071 17.2103 5.3677 17.2973C5.45469 17.3843 5.504 17.502 5.50498 17.625V21.6562ZM18.48 17.625C18.481 17.502 18.5303 17.3843 18.6173 17.2973C18.7043 17.2103 18.822 17.161 18.945 17.16H20.3212C20.4443 17.161 20.562 17.2103 20.649 17.2973C20.7359 17.3843 20.7853 17.502 20.7862 17.625V21.66C20.7853 21.783 20.7359 21.9007 20.649 21.9877C20.562 22.0747 20.4443 22.124 20.3212 22.125H18.945C18.822 22.124 18.7043 22.0747 18.6173 21.9877C18.5303 21.9007 18.481 21.783 18.48 21.66V17.625ZM13.08 19.035V20.25C13.08 20.3017 13.0594 20.3513 13.0229 20.3879C12.9863 20.4245 12.9367 20.445 12.885 20.445H11.115C11.0895 20.445 11.0644 20.4399 11.0409 20.4301C11.0175 20.4202 10.9962 20.4058 10.9784 20.3877C10.9606 20.3695 10.9466 20.348 10.9372 20.3243C10.9278 20.3007 10.9232 20.2754 10.9237 20.25V19.0312C10.9237 18.9802 10.9438 18.9311 10.9795 18.8947C11.0153 18.8582 11.0639 18.8372 11.115 18.8363H12.885C12.9364 18.8372 12.9854 18.8581 13.0218 18.8944C13.0582 18.9308 13.079 18.9798 13.08 19.0312V19.035ZM12.5287 12.81V14.9213C12.5287 14.9469 12.5237 14.9722 12.5139 14.9959C12.5041 15.0195 12.4897 15.041 12.4716 15.0591C12.4535 15.0772 12.432 15.0916 12.4084 15.1014C12.3847 15.1112 12.3593 15.1163 12.3337 15.1163H11.6662C11.6406 15.1163 11.6153 15.1112 11.5916 15.1014C11.5679 15.0916 11.5465 15.0772 11.5283 15.0591C11.5102 15.041 11.4959 15.0195 11.4861 14.9959C11.4763 14.9722 11.4712 14.9469 11.4712 14.9213V12.81C11.4712 12.7583 11.4918 12.7087 11.5283 12.6721C11.5649 12.6355 11.6145 12.615 11.6662 12.615H12.3337C12.3854 12.615 12.435 12.6355 12.4716 12.6721C12.5082 12.7087 12.5287 12.7583 12.5287 12.81ZM12.2737 5.16375H11.7262C11.5224 5.14982 11.3314 5.05902 11.192 4.90971C11.0525 4.76039 10.9749 4.56369 10.9749 4.35938C10.9749 4.15506 11.0525 3.95836 11.192 3.80904C11.3314 3.65973 11.5224 3.56893 11.7262 3.555H12.2737C12.384 3.54747 12.4946 3.56268 12.5987 3.59969C12.7029 3.63671 12.7983 3.69473 12.879 3.77016C12.9598 3.84559 13.0242 3.93682 13.0682 4.03818C13.1122 4.13954 13.1349 4.24887 13.1349 4.35938C13.1349 4.46988 13.1122 4.57921 13.0682 4.68057C13.0242 4.78193 12.9598 4.87316 12.879 4.94859C12.7983 5.02402 12.7029 5.08204 12.5987 5.11906C12.4946 5.15607 12.384 5.17128 12.2737 5.16375ZM18.48 2.34C18.481 2.21698 18.5303 2.09927 18.6173 2.01228C18.7043 1.92529 18.822 1.87598 18.945 1.875H20.3212C20.4443 1.87598 20.562 1.92529 20.649 2.01228C20.7359 2.09927 20.7853 2.21698 20.7862 2.34V6.375C20.7853 6.49802 20.7359 6.61573 20.649 6.70272C20.562 6.78971 20.4443 6.83902 20.3212 6.84H18.945C18.822 6.83902 18.7043 6.78971 18.6173 6.70272C18.5303 6.61573 18.481 6.49802 18.48 6.375V2.34Z" fill="#78818C"/>
</svg>
