<svg width="24" height="24" viewBox="0 0 24 24" fill="none" xmlns="http://www.w3.org/2000/svg">
    <path d="M13.5863 6.31879C12.6333 6.31879 11.7016 6.6014 10.9092 7.13089C10.1167 7.66038 9.49911 8.41297 9.13439 9.29348C8.76967 10.174 8.67424 11.1429 8.86017 12.0776C9.0461 13.0124 9.50505 13.871 10.179 14.5449C10.8529 15.2188 11.7115 15.6778 12.6462 15.8637C13.581 16.0496 14.5499 15.9542 15.4304 15.5895C16.3109 15.2248 17.0635 14.6071 17.593 13.8147C18.1225 13.0223 18.4051 12.0906 18.4051 11.1375C18.4031 9.86013 17.8948 8.63562 16.9915 7.73236C16.0882 6.8291 14.8637 6.32077 13.5863 6.31879ZM9.53633 11.5125H12.6826L10.4588 13.7325C9.93393 13.1028 9.61228 12.3288 9.53633 11.5125ZM10.4588 8.53879L12.6826 10.7625H9.53633C9.61293 9.94531 9.93445 9.17025 10.4588 8.53879ZM13.9613 7.08754C14.779 7.16252 15.5545 7.48424 16.1851 8.01004L13.9613 10.23V7.08754ZM13.2113 10.23L10.9876 8.01004C11.6182 7.48424 12.3937 7.16252 13.2113 7.08754V10.23ZM13.2113 12.0413V15.1875C12.3924 15.1067 11.6172 14.7798 10.9876 14.25L13.2113 12.0413ZM13.9613 12.0413L16.1851 14.25C15.5536 14.7744 14.7786 15.0959 13.9613 15.1725V12.0413ZM16.7138 13.7363L14.4901 11.5125H17.6251C17.5533 12.3289 17.2356 13.1043 16.7138 13.7363ZM14.4901 10.7625L16.7138 8.53879C17.2356 9.17077 17.5533 9.94616 17.6251 10.7625H14.4901Z" fill="#78818C"/>
    <path d="M20.25 4.62751C18.9566 3.30763 17.2994 2.40284 15.4897 2.02848C13.6801 1.65412 11.7999 1.82716 10.089 2.52553C8.37807 3.2239 6.91387 4.41597 5.88308 5.94975C4.85229 7.48353 4.30161 9.28954 4.30125 11.1375C4.37632 13.2019 5.05997 15.198 6.26625 16.875C5.23036 16.646 4.21264 16.3414 3.22125 15.9638V15.8513C3.22125 15.6404 3.13749 15.4382 2.9884 15.2891C2.83931 15.14 2.6371 15.0563 2.42625 15.0563H1.92C1.7098 15.0563 1.50816 15.1395 1.35917 15.2878C1.21019 15.4361 1.12599 15.6373 1.125 15.8475V21.1275C1.125 21.3384 1.20876 21.5406 1.35785 21.6897C1.50694 21.8388 1.70915 21.9225 1.92 21.9225H2.42625C2.61148 21.9222 2.79078 21.8572 2.93319 21.7387C3.0756 21.6203 3.17218 21.4558 3.20625 21.2738C5.35051 21.7953 7.54401 22.0882 9.75 22.1475C11.7176 22.1506 13.6668 21.7684 15.4875 21.0225C17.267 20.378 18.8611 19.3067 20.13 17.9025C20.731 17.2651 21.2363 16.5439 21.63 15.7613V15.7425C22.4209 14.3361 22.8488 12.7546 22.875 11.1413C22.8932 9.93544 22.6704 8.73813 22.2196 7.61958C21.7688 6.50103 21.0992 5.48378 20.25 4.62751ZM2.48625 21.1275C2.48625 21.1334 2.48509 21.1393 2.48282 21.1447C2.48056 21.1502 2.47725 21.1552 2.47307 21.1593C2.46889 21.1635 2.46393 21.1668 2.45847 21.1691C2.45301 21.1713 2.44716 21.1725 2.44125 21.1725H1.92C1.90807 21.1725 1.89662 21.1678 1.88818 21.1593C1.87974 21.1509 1.875 21.1394 1.875 21.1275V15.8475C1.875 15.8356 1.87974 15.8241 1.88818 15.8157C1.89662 15.8073 1.90807 15.8025 1.92 15.8025H2.42625C2.43818 15.8025 2.44963 15.8073 2.45807 15.8157C2.46651 15.8241 2.47125 15.8356 2.47125 15.8475L2.48625 21.1275ZM21 15.3975C20.6366 16.1175 20.1718 16.7818 19.62 17.37C18.4263 18.7118 16.9152 19.7329 15.225 20.34C11.43 21.84 8.17125 21.5888 3.225 20.5088V16.7588C5.38205 17.5804 7.66694 18.0158 9.975 18.045C11.8349 18.04 13.6808 17.7218 15.435 17.1038C16.8715 16.661 18.1002 15.7152 18.8958 14.4398C19.6913 13.1644 20.0003 11.645 19.7662 10.1601C19.532 8.67532 18.7704 7.32471 17.6209 6.35605C16.4715 5.38738 15.0113 4.86562 13.5083 4.88648C12.0053 4.90733 10.5601 5.4694 9.438 6.46958C8.31588 7.46975 7.59198 8.84098 7.3991 10.3317C7.20622 11.8225 7.55729 13.3328 8.38791 14.5856C9.21854 15.8385 10.473 16.7498 11.9213 17.1525H11.9587C10.4227 17.3478 8.86644 17.3187 7.33875 17.0663C7.32532 17.0256 7.30503 16.9876 7.27875 16.9538C6.1725 15.615 5.055 13.2975 5.055 11.13C5.06073 9.43523 5.5698 7.78034 6.51759 6.37535C7.46539 4.97035 8.8092 3.87858 10.3785 3.23857C11.9478 2.59855 13.6719 2.43914 15.3319 2.78057C16.992 3.122 18.5132 3.94887 19.7025 5.15626C20.4841 5.94101 21.101 6.87403 21.517 7.90052C21.933 8.92701 22.1397 10.0263 22.125 11.1338C22.1094 12.6263 21.7228 14.0915 21 15.3975ZM13.5863 16.6313C13.0905 16.6323 12.5969 16.5642 12.12 16.4288C10.7815 16.0545 9.63508 15.1859 8.91265 13.9985C8.19022 12.8112 7.9457 11.3938 8.22855 10.033C8.51139 8.67227 9.3005 7.46972 10.4362 6.66862C11.572 5.86752 12.9696 5.52768 14.3464 5.71782C15.7231 5.90796 16.9763 6.6139 17.8524 7.69285C18.7285 8.7718 19.1621 10.1432 19.0656 11.5297C18.969 12.9162 18.3494 14.2143 17.3322 15.1613C16.315 16.1084 14.9761 16.6338 13.5863 16.6313Z" fill="#78818C"/>
</svg>
