<svg width="24" height="24" viewBox="0 0 24 24" fill="none" xmlns="http://www.w3.org/2000/svg">
    <path d="M21.2562 3.16223H19.3387C19.2487 2.74743 19.0195 2.37593 18.6891 2.1095C18.3587 1.84307 17.9471 1.69777 17.5226 1.69778C17.0982 1.69778 16.6865 1.84309 16.3562 2.10953C16.0258 2.37597 15.7966 2.74748 15.7066 3.16228L8.29337 3.16223C8.20712 2.74432 7.97938 2.36895 7.64855 2.09943C7.31773 1.82991 6.90407 1.68274 6.47736 1.68274C6.05064 1.68274 5.63698 1.82991 5.30616 2.09943C4.97533 2.36895 4.74759 2.74432 4.66134 3.16223H2.74383C2.41408 3.16254 2.09791 3.29366 1.86472 3.52682C1.63153 3.75997 1.50036 4.07612 1.5 4.40587V21.0732C1.50035 21.403 1.6315 21.7192 1.86468 21.9524C2.09786 22.1857 2.41404 22.3169 2.74383 22.3173H21.2562C21.586 22.3169 21.9021 22.1857 22.1353 21.9524C22.3685 21.7192 22.4997 21.403 22.5 21.0732V4.40587C22.4996 4.07612 22.3685 3.75997 22.1353 3.52682C21.9021 3.29366 21.5859 3.16254 21.2562 3.16223ZM17.5226 2.43274C17.7491 2.43341 17.9698 2.50378 18.1549 2.6343C18.34 2.76481 18.4803 2.94914 18.557 3.16223H16.4883C16.5649 2.94914 16.7053 2.76481 16.8904 2.6343C17.0754 2.50378 17.2962 2.43341 17.5226 2.43274ZM6.47736 2.43274C6.70381 2.43341 6.92456 2.50378 7.10962 2.6343C7.29467 2.76481 7.43506 2.94914 7.5117 3.16223H5.44302C5.51965 2.94914 5.66004 2.76481 5.8451 2.63429C6.03016 2.50378 6.2509 2.4334 6.47736 2.43274ZM2.74383 3.91223H4.66134C4.74817 4.32982 4.97609 4.7048 5.3068 4.97416C5.63751 5.24352 6.05085 5.39084 6.47738 5.39137C6.57683 5.39137 6.67221 5.35187 6.74254 5.28154C6.81287 5.21121 6.85238 5.11583 6.85238 5.01637C6.85238 4.91692 6.81287 4.82154 6.74254 4.75121C6.67221 4.68088 6.57683 4.64137 6.47738 4.64137C6.25098 4.64071 6.03028 4.57037 5.84524 4.43993C5.6602 4.30949 5.51979 4.12525 5.44308 3.91225H15.7066C15.7935 4.32984 16.0214 4.70481 16.3521 4.97416C16.6828 5.24352 17.0961 5.39084 17.5226 5.39137C17.6211 5.38991 17.7151 5.34976 17.7842 5.27959C17.8534 5.20942 17.8921 5.11487 17.8921 5.01637C17.8921 4.91786 17.8534 4.82331 17.7842 4.75315C17.7151 4.68298 17.6211 4.64283 17.5226 4.64137C17.2962 4.6407 17.0755 4.57037 16.8905 4.43992C16.7055 4.30948 16.5651 4.12525 16.4883 3.91225H21.2562C21.3871 3.91239 21.5126 3.96444 21.6051 4.05698C21.6977 4.14951 21.7498 4.27498 21.75 4.40587V6.84412H2.25V4.40587C2.2502 4.27498 2.30229 4.14951 2.39487 4.05697C2.48744 3.96443 2.61294 3.91238 2.74383 3.91223ZM21.2562 21.5673H2.74383C2.61288 21.5671 2.48734 21.515 2.39476 21.4224C2.30218 21.3298 2.25012 21.2042 2.25 21.0732V7.59412H21.75V21.0732C21.7499 21.2042 21.6978 21.3298 21.6052 21.4224C21.5127 21.515 21.3871 21.5671 21.2562 21.5673Z" fill="#78818C"/>
    <path d="M5.01923 9.11023C4.66466 9.1142 4.32597 9.25784 4.07665 9.50998C3.82733 9.76211 3.68749 10.1024 3.6875 10.457C3.68751 10.8116 3.82735 11.1519 4.07667 11.404C4.326 11.6561 4.6647 11.7997 5.01927 11.8037C5.37384 11.7997 5.71253 11.6561 5.96185 11.404C6.21117 11.1518 6.351 10.8115 6.351 10.4569C6.35099 10.1024 6.21115 9.76208 5.96182 9.50995C5.71249 9.25782 5.37379 9.11419 5.01923 9.11023ZM5.01923 11.0537C4.86245 11.0514 4.71286 10.9876 4.6028 10.8759C4.49273 10.7642 4.43103 10.6137 4.43103 10.457C4.43104 10.3002 4.49274 10.1497 4.60281 10.038C4.71289 9.92634 4.86248 9.86248 5.01925 9.86023C5.17592 9.86265 5.32535 9.92659 5.43528 10.0382C5.54521 10.1499 5.60682 10.3003 5.60682 10.457C5.60682 10.6137 5.5452 10.7641 5.43526 10.8757C5.32532 10.9873 5.17589 11.0513 5.01923 11.0537Z" fill="#78818C"/>
    <path d="M9.67304 9.11023C9.31847 9.1142 8.97978 9.25784 8.73045 9.50998C8.48113 9.76211 8.3413 10.1024 8.34131 10.457C8.34131 10.8116 8.48115 11.1519 8.73048 11.404C8.97981 11.6561 9.31851 11.7997 9.67308 11.8037C10.0276 11.7997 10.3663 11.6561 10.6157 11.404C10.865 11.1518 11.0048 10.8115 11.0048 10.4569C11.0048 10.1024 10.865 9.76208 10.6156 9.50995C10.3663 9.25782 10.0276 9.11419 9.67304 9.11023ZM9.67304 11.0537C9.51626 11.0514 9.36667 10.9876 9.2566 10.8759C9.14654 10.7642 9.08484 10.6137 9.08484 10.457C9.08485 10.3002 9.14655 10.1497 9.25663 10.038C9.3667 9.92634 9.51629 9.86248 9.67307 9.86023C9.82973 9.86265 9.97916 9.92659 10.0891 10.0382C10.199 10.1499 10.2606 10.3003 10.2606 10.457C10.2606 10.6137 10.199 10.7641 10.0891 10.8757C9.97913 10.9873 9.8297 11.0513 9.67304 11.0537Z" fill="#78818C"/>
    <path d="M14.3267 9.11023C13.9721 9.11412 13.6333 9.25772 13.3839 9.50986C13.1345 9.76201 12.9946 10.1023 12.9946 10.457C12.9946 10.8116 13.1345 11.152 13.3839 11.4041C13.6333 11.6562 13.9721 11.7998 14.3267 11.8037C14.6814 11.7998 15.0201 11.6562 15.2695 11.4041C15.5189 11.1519 15.6588 10.8116 15.6588 10.4569C15.6588 10.1023 15.5189 9.76197 15.2695 9.50983C15.0201 9.2577 14.6813 9.1141 14.3267 9.11023ZM14.3267 11.0537C14.1699 11.0514 14.0203 10.9876 13.9103 10.8759C13.8002 10.7642 13.7385 10.6137 13.7385 10.457C13.7385 10.3002 13.8002 10.1497 13.9103 10.038C14.0203 9.92634 14.1699 9.86248 14.3267 9.86023C14.4834 9.86265 14.6328 9.92659 14.7427 10.0382C14.8527 10.1499 14.9143 10.3003 14.9143 10.457C14.9143 10.6137 14.8527 10.7641 14.7427 10.8757C14.6328 10.9873 14.4834 11.0513 14.3267 11.0537Z" fill="#78818C"/>
    <path d="M18.9805 9.11023C18.6259 9.11411 18.2871 9.25772 18.0377 9.50986C17.7883 9.76201 17.6484 10.1023 17.6484 10.457C17.6484 10.8116 17.7883 11.152 18.0377 11.4041C18.2871 11.6562 18.6259 11.7998 18.9805 11.8037C19.3352 11.7998 19.6739 11.6562 19.9233 11.4041C20.1727 11.1519 20.3126 10.8116 20.3126 10.457C20.3126 10.1023 20.1727 9.76197 19.9233 9.50983C19.6739 9.2577 19.3351 9.11411 18.9805 9.11023ZM18.9805 11.0537C18.8237 11.0514 18.6741 10.9876 18.5641 10.8759C18.454 10.7642 18.3923 10.6138 18.3923 10.457C18.3923 10.3002 18.454 10.1497 18.5641 10.038C18.6742 9.92634 18.8237 9.86248 18.9805 9.86023C19.1372 9.86265 19.2866 9.92659 19.3965 10.0382C19.5065 10.1499 19.5681 10.3003 19.5681 10.457C19.5681 10.6137 19.5065 10.7641 19.3965 10.8757C19.2866 10.9873 19.1372 11.0513 18.9805 11.0537Z" fill="#78818C"/>
    <path d="M5.01923 13.3202C4.66466 13.3242 4.32597 13.4678 4.07665 13.7199C3.82733 13.9721 3.68749 14.3124 3.6875 14.6669C3.68751 15.0215 3.82735 15.3618 4.07667 15.6139C4.326 15.8661 4.6647 16.0097 5.01927 16.0137C5.37384 16.0097 5.71253 15.8661 5.96185 15.6139C6.21117 15.3618 6.351 15.0215 6.351 14.6669C6.35099 14.3123 6.21115 13.972 5.96182 13.7199C5.71249 13.4678 5.37379 13.3242 5.01923 13.3202ZM5.01923 15.2637C4.86247 15.2614 4.71292 15.1975 4.60288 15.0858C4.49284 14.9742 4.43116 14.8237 4.43116 14.6669C4.43116 14.5101 4.49285 14.3597 4.6029 14.248C4.71294 14.1364 4.8625 14.0725 5.01925 14.0702C5.17601 14.0725 5.32557 14.1364 5.43561 14.248C5.54564 14.3597 5.60733 14.5102 5.60732 14.6669C5.60732 14.8237 5.54563 14.9742 5.43559 15.0858C5.32554 15.1975 5.17598 15.2614 5.01923 15.2637Z" fill="#78818C"/>
    <path d="M9.67304 13.3202C9.31847 13.3242 8.97978 13.4678 8.73045 13.7199C8.48113 13.9721 8.3413 14.3124 8.34131 14.6669C8.34131 15.0215 8.48115 15.3618 8.73048 15.6139C8.97981 15.8661 9.31851 16.0097 9.67308 16.0137C10.0276 16.0097 10.3663 15.8661 10.6157 15.6139C10.865 15.3618 11.0048 15.0215 11.0048 14.6669C11.0048 14.3123 10.865 13.972 10.6156 13.7199C10.3663 13.4678 10.0276 13.3242 9.67304 13.3202ZM9.67304 15.2637C9.51628 15.2614 9.36672 15.1975 9.25669 15.0858C9.14665 14.9742 9.08496 14.8237 9.08497 14.6669C9.08497 14.5101 9.14666 14.3597 9.2567 14.248C9.36675 14.1364 9.51631 14.0725 9.67306 14.0702C9.82982 14.0725 9.97937 14.1364 10.0894 14.248C10.1995 14.3597 10.2611 14.5102 10.2611 14.6669C10.2611 14.8237 10.1994 14.9742 10.0894 15.0858C9.97935 15.1975 9.82979 15.2614 9.67304 15.2637Z" fill="#78818C"/>
    <path d="M14.3267 13.3202C13.9721 13.3241 13.6333 13.4677 13.3839 13.7198C13.1345 13.972 12.9946 14.3123 12.9946 14.6669C12.9946 15.0216 13.1345 15.3619 13.3839 15.6141C13.6333 15.8662 13.9721 16.0098 14.3267 16.0137C14.6814 16.0098 15.0201 15.8662 15.2695 15.614C15.5189 15.3619 15.6588 15.0216 15.6588 14.6669C15.6588 14.3123 15.5189 13.9719 15.2695 13.7198C15.0201 13.4677 14.6813 13.3241 14.3267 13.3202ZM14.3267 15.2637C14.1699 15.2614 14.0203 15.1976 13.9102 15.0859C13.8001 14.9742 13.7384 14.8237 13.7384 14.6669C13.7384 14.5101 13.8001 14.3596 13.9102 14.2479C14.0203 14.1363 14.1699 14.0724 14.3267 14.0702C14.4835 14.0724 14.6331 14.1363 14.7432 14.2479C14.8533 14.3596 14.915 14.5101 14.915 14.6669C14.915 14.8238 14.8533 14.9743 14.7432 15.0859C14.6331 15.1976 14.4835 15.2615 14.3267 15.2637Z" fill="#78818C"/>
    <path d="M18.9805 13.3202C18.6259 13.3241 18.2871 13.4677 18.0377 13.7198C17.7883 13.972 17.6484 14.3123 17.6484 14.6669C17.6484 15.0216 17.7883 15.3619 18.0377 15.6141C18.2871 15.8662 18.6259 16.0098 18.9805 16.0137C19.3352 16.0098 19.6739 15.8662 19.9233 15.614C20.1727 15.3619 20.3126 15.0216 20.3126 14.6669C20.3126 14.3123 20.1727 13.9719 19.9233 13.7198C19.6739 13.4677 19.3351 13.3241 18.9805 13.3202ZM18.9805 15.2637C18.8237 15.2614 18.6741 15.1976 18.564 15.0859C18.4539 14.9743 18.3922 14.8237 18.3922 14.6669C18.3922 14.5101 18.4539 14.3596 18.564 14.2479C18.6741 14.1363 18.8237 14.0724 18.9805 14.0702C19.1373 14.0724 19.2869 14.1363 19.397 14.2479C19.5071 14.3596 19.5689 14.5101 19.5689 14.6669C19.5689 14.8238 19.5071 14.9743 19.397 15.0859C19.2869 15.1976 19.1373 15.2615 18.9805 15.2637Z" fill="#78818C"/>
    <path d="M5.01929 17.5298C4.66452 17.5335 4.32556 17.6771 4.07602 17.9293C3.82648 18.1815 3.68652 18.5219 3.68652 18.8767C3.68653 19.2315 3.82651 19.572 4.07605 19.8242C4.3256 20.0763 4.66457 20.2199 5.01933 20.2236C5.37409 20.2199 5.71306 20.0763 5.96259 19.8241C6.21213 19.5719 6.3521 19.2315 6.35209 18.8767C6.35209 18.5219 6.21211 18.1814 5.96257 17.9293C5.71302 17.6771 5.37405 17.5335 5.01929 17.5298ZM5.01929 19.4736C4.86263 19.4711 4.71325 19.4071 4.60336 19.2954C4.49347 19.1838 4.43188 19.0334 4.43188 18.8767C4.43189 18.72 4.49348 18.5696 4.60338 18.458C4.71327 18.3463 4.86266 18.2823 5.01931 18.2798C5.17597 18.2823 5.32536 18.3463 5.43525 18.458C5.54514 18.5697 5.60672 18.72 5.60672 18.8767C5.60672 19.0334 5.54512 19.1838 5.43523 19.2955C5.32533 19.4071 5.17594 19.4711 5.01929 19.4736Z" fill="#78818C"/>
    <path d="M9.6731 17.5298C9.31833 17.5335 8.97937 17.6771 8.72983 17.9293C8.48029 18.1815 8.34033 18.5219 8.34033 18.8767C8.34034 19.2315 8.48031 19.572 8.72986 19.8242C8.97941 20.0763 9.31837 20.2199 9.67314 20.2236C10.0279 20.2199 10.3669 20.0763 10.6164 19.8241C10.8659 19.5719 11.0059 19.2315 11.0059 18.8767C11.0059 18.5219 10.8659 18.1814 10.6164 17.9293C10.3668 17.6771 10.0279 17.5335 9.6731 17.5298ZM9.6731 19.4736C9.51644 19.4711 9.36706 19.4071 9.25717 19.2954C9.14727 19.1838 9.08569 19.0334 9.08569 18.8767C9.0857 18.72 9.14729 18.5696 9.25719 18.458C9.36708 18.3463 9.51647 18.2823 9.67313 18.2798C9.82978 18.2823 9.97917 18.3463 10.0891 18.458C10.1989 18.5697 10.2605 18.7201 10.2605 18.8767C10.2605 19.0334 10.1989 19.1838 10.089 19.2955C9.97914 19.4071 9.82975 19.4711 9.6731 19.4736Z" fill="#78818C"/>
    <path d="M14.3269 17.5298C13.9721 17.5335 13.6332 17.6771 13.3836 17.9293C13.1341 18.1815 12.9941 18.5219 12.9941 18.8767C12.9941 19.2315 13.1341 19.572 13.3837 19.8242C13.6332 20.0763 13.9722 20.2199 14.3269 20.2236C14.6817 20.2199 15.0207 20.0763 15.2702 19.8241C15.5198 19.5719 15.6597 19.2315 15.6597 18.8767C15.6597 18.5219 15.5197 18.1814 15.2702 17.9293C15.0206 17.6771 14.6817 17.5335 14.3269 17.5298ZM14.3269 19.4736C14.1703 19.4711 14.0209 19.4071 13.911 19.2954C13.8011 19.1838 13.7395 19.0334 13.7395 18.8767C13.7395 18.72 13.8011 18.5696 13.911 18.458C14.0209 18.3463 14.1703 18.2823 14.3269 18.2798C14.4836 18.2823 14.633 18.3463 14.7429 18.458C14.8528 18.5697 14.9143 18.72 14.9143 18.8767C14.9143 19.0334 14.8527 19.1838 14.7428 19.2955C14.633 19.4071 14.4836 19.4711 14.3269 19.4736Z" fill="#78818C"/>
    <path d="M18.9807 17.5298C18.626 17.5335 18.287 17.6771 18.0375 17.9293C17.7879 18.1815 17.6479 18.5219 17.6479 18.8767C17.648 19.2315 17.7879 19.572 18.0375 19.8242C18.287 20.0763 18.626 20.2199 18.9808 20.2236C19.3355 20.2199 19.6745 20.0763 19.924 19.8241C20.1736 19.5719 20.3135 19.2315 20.3135 18.8767C20.3135 18.5219 20.1735 18.1814 19.924 17.9293C19.6744 17.6771 19.3355 17.5335 18.9807 17.5298ZM18.9807 19.4736C18.8241 19.4711 18.6747 19.4071 18.5648 19.2954C18.4549 19.1838 18.3933 19.0334 18.3933 18.8767C18.3933 18.72 18.4549 18.5696 18.5648 18.458C18.6747 18.3463 18.8241 18.2823 18.9807 18.2798C19.1374 18.2823 19.2868 18.3463 19.3967 18.458C19.5066 18.5697 19.5682 18.72 19.5681 18.8767C19.5681 19.0334 19.5066 19.1838 19.3967 19.2955C19.2868 19.4071 19.1374 19.4711 18.9807 19.4736Z" fill="#78818C"/>
</svg>
