<svg width="22" height="22" viewBox="0 0 22 22" fill="none" xmlns="http://www.w3.org/2000/svg">
    <path fill-rule="evenodd" clip-rule="evenodd" d="M0.635846 0.635663C1.03897 0.23253 1.69255 0.23253 2.09567 0.635663L11.0002 9.54012L19.9047 0.635663C20.3078 0.23253 20.9614 0.23253 21.3644 0.635663C21.7676 1.03878 21.7676 1.69237 21.3644 2.09549L12.46 11L21.3644 19.9045C21.7676 20.3076 21.7676 20.9612 21.3644 21.3642C20.9614 21.7674 20.3078 21.7674 19.9047 21.3642L11.0002 12.4599L2.09567 21.3642C1.69255 21.7674 1.03897 21.7674 0.635846 21.3642C0.232713 20.9612 0.232713 20.3076 0.635846 19.9045L9.5403 11L0.635846 2.09549C0.232713 1.69237 0.232713 1.03878 0.635846 0.635663Z" fill="black"/>
</svg>
