<svg width="25" height="24" viewBox="0 0 25 24" fill="none" xmlns="http://www.w3.org/2000/svg">
    <path d="M16.0486 10.8997L12.5003 5.03323L8.95194 10.8997H16.0486Z" fill="#9BC9FF"/>
    <path d="M16.0486 10.8997H23.1452L19.5969 5.03323L16.0486 10.8997Z" fill="#9BC9FF"/>
    <path d="M5.40363 5.03323L1.85532 10.8997H8.95194L5.40363 5.03323Z" fill="#9BC9FF"/>
    <path d="M1.85532 10.8997L12.4623 22.507L8.95194 10.8997H1.85532Z" fill="#9BC9FF"/>
    <path d="M12.5194 22.5697L12.5769 22.6328L23.1452 10.8997H16.0486L12.5194 22.5697Z" fill="#9BC9FF"/>
    <path d="M12.5003 22.6328L12.5194 22.5697L12.4623 22.507L12.5003 22.6328Z" fill="#9BC9FF"/>
    <path d="M12.5003 3.93326C12.4061 3.93326 12.3159 3.89463 12.2494 3.82586C12.1828 3.7571 12.1454 3.66384 12.1454 3.5666V1.36666C12.1454 1.26941 12.1828 1.17615 12.2494 1.10739C12.3159 1.03863 12.4061 1 12.5003 1C12.5944 1 12.6846 1.03863 12.7512 1.10739C12.8177 1.17615 12.8551 1.26941 12.8551 1.36666V3.5666C12.8551 3.66384 12.8177 3.7571 12.7512 3.82586C12.6846 3.89463 12.5944 3.93326 12.5003 3.93326Z" fill="#1E81CE"/>
    <path d="M2.91981 17.8662C2.83452 17.8662 2.75209 17.8344 2.68762 17.7767C2.62316 17.719 2.58096 17.6392 2.56877 17.552C2.55657 17.4648 2.57519 17.3759 2.62122 17.3017C2.66725 17.2275 2.7376 17.1729 2.81939 17.1479L4.62229 16.598C4.66721 16.5835 4.71446 16.5784 4.7613 16.583C4.80815 16.5876 4.85364 16.6017 4.89513 16.6246C4.93663 16.6476 4.9733 16.6788 5.00301 16.7165C5.03272 16.7542 5.05487 16.7976 5.06819 16.8442C5.08151 16.8909 5.08572 16.9398 5.08057 16.9881C5.07543 17.0364 5.06104 17.0832 5.03823 17.1257C5.01543 17.1683 4.98466 17.2057 4.94774 17.2358C4.91081 17.2659 4.86845 17.2882 4.82313 17.3012L3.02023 17.8512C2.98763 17.8612 2.95381 17.8662 2.91981 17.8662Z" fill="#1E81CE"/>
    <path d="M7.17779 22.2661C7.12261 22.2661 7.0682 22.2528 7.01887 22.2273C6.96954 22.2017 6.92665 22.1646 6.89362 22.119C6.86058 22.0733 6.83831 22.0203 6.82857 21.9642C6.81883 21.9081 6.82189 21.8504 6.8375 21.7957L7.36975 19.9323C7.39643 19.8391 7.45787 19.7606 7.54055 19.7141C7.62323 19.6677 7.72038 19.6571 7.81063 19.6847C7.90088 19.7122 7.97683 19.7757 8.02178 19.8611C8.06673 19.9466 8.077 20.047 8.05032 20.1402L7.51807 22.0032C7.4964 22.0791 7.45155 22.1457 7.39022 22.1931C7.32888 22.2405 7.25436 22.2661 7.17779 22.2661Z" fill="#1E81CE"/>
    <path d="M8.4197 3.96332C8.35735 3.96338 8.29609 3.94647 8.24208 3.91429C8.18808 3.8821 8.14323 3.83578 8.11206 3.77999L7.04756 1.87338C7.00125 1.78921 6.98904 1.68953 7.01359 1.59609C7.03814 1.50265 7.09746 1.42303 7.1786 1.37462C7.25975 1.32621 7.35613 1.31293 7.44672 1.33768C7.53731 1.36243 7.61474 1.42319 7.66213 1.50672L8.72663 3.41334C8.75775 3.46905 8.77415 3.53224 8.77416 3.59657C8.77418 3.6609 8.75782 3.7241 8.72672 3.77983C8.69562 3.83556 8.65088 3.88185 8.59698 3.91406C8.54309 3.94627 8.48195 3.96326 8.4197 3.96332Z" fill="#1E81CE"/>
    <path d="M16.5808 3.96332C16.5186 3.96326 16.4574 3.94627 16.4035 3.91406C16.3496 3.88185 16.3049 3.83556 16.2738 3.77983C16.2427 3.7241 16.2263 3.6609 16.2264 3.59657C16.2264 3.53224 16.2428 3.46905 16.2739 3.41334L17.3384 1.50672C17.3858 1.42319 17.4632 1.36243 17.5538 1.33768C17.6444 1.31293 17.7408 1.32621 17.8219 1.37462C17.9031 1.42303 17.9624 1.50265 17.9869 1.59609C18.0115 1.68953 17.9993 1.78921 17.953 1.87338L16.8885 3.77999C16.8573 3.83578 16.8124 3.8821 16.7584 3.91429C16.7044 3.94647 16.6432 3.96338 16.5808 3.96332Z" fill="#1E81CE"/>
    <path d="M4.69397 20.4328C4.6238 20.4328 4.55521 20.4113 4.49687 20.371C4.43853 20.3307 4.39307 20.2735 4.36622 20.2065C4.33937 20.1395 4.33234 20.0658 4.34602 19.9947C4.35971 19.9235 4.39349 19.8582 4.4431 19.8069L5.86243 18.3403C5.92935 18.2735 6.01898 18.2366 6.11201 18.2374C6.20505 18.2382 6.29405 18.2768 6.35984 18.3448C6.42562 18.4128 6.46294 18.5047 6.46375 18.6009C6.46456 18.697 6.42879 18.7896 6.36416 18.8588L4.94483 20.3254C4.8783 20.3942 4.78807 20.4328 4.69397 20.4328Z" fill="#1E81CE"/>
    <path d="M22.0807 17.8662C22.0467 17.8662 22.0129 17.8612 21.9803 17.8512L20.1774 17.3012C20.1321 17.2882 20.0897 17.2659 20.0528 17.2358C20.0158 17.2057 19.9851 17.1683 19.9623 17.1257C19.9395 17.0832 19.9251 17.0364 19.9199 16.9881C19.9148 16.9398 19.919 16.8909 19.9323 16.8442C19.9456 16.7976 19.9678 16.7542 19.9975 16.7165C20.0272 16.6788 20.0639 16.6476 20.1054 16.6246C20.1469 16.6017 20.1924 16.5876 20.2392 16.583C20.286 16.5784 20.3333 16.5835 20.3782 16.598L22.1811 17.1479C22.2629 17.1729 22.3333 17.2275 22.3793 17.3017C22.4253 17.3759 22.4439 17.4648 22.4317 17.552C22.4195 17.6392 22.3774 17.719 22.3129 17.7767C22.2484 17.8344 22.166 17.8662 22.0807 17.8662Z" fill="#1E81CE"/>
    <path d="M17.8227 22.2661C17.7462 22.2661 17.6716 22.2405 17.6103 22.1931C17.549 22.1457 17.5041 22.0791 17.4824 22.0032L16.9502 20.1402C16.9235 20.047 16.9338 19.9466 16.9787 19.8611C17.0237 19.7757 17.0996 19.7122 17.1899 19.6847C17.2801 19.6571 17.3773 19.6677 17.46 19.7141C17.5426 19.7606 17.6041 19.8391 17.6308 19.9323L18.163 21.7957C18.1786 21.8504 18.1817 21.9081 18.1719 21.9642C18.1622 22.0203 18.1399 22.0733 18.1069 22.119C18.0739 22.1646 18.031 22.2017 17.9816 22.2273C17.9323 22.2528 17.8779 22.2661 17.8227 22.2661Z" fill="#1E81CE"/>
    <path d="M20.3065 20.4328C20.2124 20.4328 20.1222 20.3942 20.0557 20.3254L18.6364 18.8588C18.5717 18.7896 18.536 18.697 18.5368 18.6009C18.5376 18.5047 18.5749 18.4128 18.6407 18.3448C18.7065 18.2768 18.7955 18.2382 18.8885 18.2374C18.9815 18.2366 19.0712 18.2735 19.1381 18.3403L20.5574 19.8069C20.607 19.8582 20.6408 19.9235 20.6545 19.9947C20.6682 20.0658 20.6611 20.1395 20.6343 20.2065C20.6074 20.2735 20.562 20.3307 20.5036 20.371C20.4453 20.4113 20.3767 20.4328 20.3065 20.4328Z" fill="#1E81CE"/>
    <path d="M23.4468 10.7054L19.8985 4.8389C19.8662 4.78634 19.8217 4.74301 19.769 4.7129C19.7163 4.68279 19.6571 4.66685 19.5969 4.66657H5.40363C5.3434 4.66685 5.28422 4.68279 5.23151 4.7129C5.17881 4.74301 5.13428 4.78634 5.10202 4.8389L1.55371 10.7054C1.51229 10.7745 1.49402 10.8557 1.50172 10.9365C1.50942 11.0174 1.54265 11.0933 1.59629 11.1527L12.3193 22.8858C12.3527 22.9222 12.393 22.9511 12.4377 22.9707C12.4824 22.9904 12.5305 23.0003 12.5791 23C12.6277 22.9996 12.6756 22.989 12.7201 22.9687C12.7645 22.9484 12.8044 22.919 12.8373 22.8821L23.4042 11.1491C23.4575 11.0902 23.4906 11.0149 23.4983 10.9347C23.506 10.8545 23.4879 10.7739 23.4468 10.7054ZM18.9582 5.39988L16.0486 10.2068L13.139 5.39988H18.9582ZM15.4099 10.5331H9.59064L12.5003 5.72621L15.4099 10.5331ZM11.8616 5.39988L8.95194 10.2068L6.04233 5.39988H11.8616ZM5.40363 5.72621L8.31325 10.5331H2.49401L5.40363 5.72621ZM2.67852 11.2664H8.69292L11.6664 21.1001L2.67852 11.2664ZM12.5003 21.4045L9.43451 11.2664H15.566L12.5003 21.4045ZM13.2667 21.3311L16.3076 11.2664H22.3291L13.2667 21.3311ZM16.6873 10.5331L19.5969 5.72621L22.5065 10.5331H16.6873Z" fill="#1E81CE"/>
</svg>
