<svg width="40" height="41" viewBox="0 0 40 41" fill="none" xmlns="http://www.w3.org/2000/svg">
    <path d="M0 5.17456H2.49726V32.399H14.1705V35.5129H0V5.17456ZM3.77493 5.17456H6.24315V27.5057H14.1705V30.6821L3.77493 30.6196V5.17456Z" fill="#479CFF"/>
    <path d="M18.2059 0.34375L23.3242 2.98577L26.8125 16.5218L34.9092 8.96583L40 11.5936L33.6764 40.3437L31.3099 39.1222L36.9844 13.323L35.2508 12.4281L25.7554 21.3275L21.657 5.4111L19.9234 4.51622L14.1928 30.6821L11.8823 29.0939L18.2059 0.34375ZM20.6335 7.41762L20.8812 7.54546L25.107 23.9971L25.2446 24.0681L35.0253 14.8465L35.3005 14.9886L30.1266 38.5114L27.7326 37.2756L31.052 22.1839L24.556 28.313L23.9782 28.0147L21.1088 17.0983L17.7986 32.1478L15.4596 30.9404L20.6335 7.41762Z" fill="#479CFF"/>
</svg>
