<svg width="114" height="32" viewBox="0 0 114 32" fill="none" xmlns="http://www.w3.org/2000/svg">
    <g clip-path="url(#clip0_170_3324)">
        <path fill-rule="evenodd" clip-rule="evenodd" d="M6.32024 0.109843C4.00024 1.07984 1.46024 3.80984 0.660236 7.23984C-0.359764 11.5798 3.87024 13.4098 4.22024 12.8098C4.62024 12.1098 3.46024 11.8698 3.22024 9.60984C2.92024 6.70984 4.27024 3.44984 5.97024 2.02984C6.29024 1.75984 6.27024 2.12984 6.27024 2.80984L6.21024 17.2698C6.21024 20.3698 6.08024 21.3398 5.85023 22.3098C5.62023 23.2898 5.25024 23.9498 5.52024 24.2098C5.84024 24.4898 7.20024 23.8098 7.98024 22.7098C8.87145 21.3505 9.33473 19.7551 9.31024 18.1298C9.38024 16.0698 9.37024 12.7998 9.38024 10.9398C9.38024 9.23984 9.41024 4.22984 9.35023 1.21984C9.33023 0.479843 7.28024 -0.290157 6.32024 0.119843V0.109843ZM88.4502 14.5898C88.4183 15.8871 88.1187 17.1638 87.5702 18.3398C86.7202 20.0598 84.9402 20.5898 84.1802 18.1198C83.7802 16.7798 83.7502 14.5298 84.0502 12.6498C84.3502 10.7498 85.1902 9.29984 86.5802 9.42984C87.9602 9.55984 88.6002 11.3298 88.4502 14.5898ZM65.3002 24.5698C65.2802 27.2398 64.8602 29.5798 63.9602 30.2698C62.6702 31.2298 60.9602 30.4998 61.3102 28.5498C61.6202 26.8298 63.1102 25.0698 65.3102 22.9098L65.3002 24.5698ZM64.9502 14.5698C64.8917 15.87 64.5934 17.1481 64.0702 18.3398C63.2202 20.0598 61.4302 20.5898 60.6802 18.1198C60.1802 16.4298 60.3002 14.2498 60.5502 12.8698C60.8802 11.0898 61.6702 9.42984 63.0802 9.42984C64.4602 9.42984 65.1402 10.9298 64.9502 14.5698ZM51.5402 14.5498C51.5149 15.8629 51.2187 17.1566 50.6702 18.3498C49.7902 20.0498 48.0402 20.5898 47.2702 18.1198C46.7202 16.3498 46.9102 13.9198 47.1402 12.6198C47.4802 10.6698 48.3402 9.29984 49.6702 9.41984C51.0502 9.55984 51.7102 11.3198 51.5402 14.5498ZM112.99 16.3598C112.66 16.3598 112.5 16.7098 112.38 17.2898C111.94 19.3098 111.48 19.7698 110.88 19.7698C110.22 19.7698 109.62 18.7698 109.46 16.7698C109.34 15.1898 109.36 12.2898 109.52 9.39984C109.55 8.80984 109.38 8.22984 107.79 7.64984C107.11 7.39984 106.11 7.02984 105.62 8.22984C104.63 10.5131 103.931 12.912 103.54 15.3698C103.54 15.4298 103.46 15.4398 103.44 15.3098C103.37 14.4398 103.18 12.8498 103.16 9.51984C103.16 8.86984 103.02 8.31984 102.3 7.86984C101.83 7.56984 100.42 7.05984 99.9002 7.66984C99.4702 8.16984 98.9602 9.53984 98.4302 11.1498L97.6902 13.3498L97.7002 8.46984C97.7002 7.96984 97.3602 7.79984 97.2502 7.76984C96.6635 7.58888 96.0607 7.46497 95.4502 7.39984C94.9702 7.39984 94.8502 7.66984 94.8502 8.06984C94.8502 8.11984 94.7702 12.7198 94.7702 15.9398V16.3998C94.5002 17.8798 93.6302 19.8898 92.6802 19.8898C91.7302 19.8898 91.2802 19.0498 91.2802 15.2098C91.2802 12.9698 91.3502 11.9998 91.3802 10.3798C91.4002 9.43984 91.4402 8.72984 91.4402 8.56984C91.4302 8.06984 90.5702 7.81984 90.1702 7.71984C89.7702 7.62984 89.4102 7.58984 89.1402 7.60984C88.7402 7.62984 88.4702 7.87984 88.4702 8.22984V8.77984C88.0387 8.09724 87.3961 7.57409 86.6402 7.28984C85.2002 6.85984 83.7002 7.23984 82.5702 8.81984C81.5949 10.2151 81.0207 11.8511 80.9102 13.5498C80.7502 15.0498 80.8102 16.5598 81.0802 17.8498C80.7502 19.2898 80.1202 19.8898 79.4402 19.8898C78.4502 19.8898 77.7402 18.2698 77.8202 15.4898C77.8802 13.6498 78.2402 12.3598 78.6402 10.4998C78.8102 9.69984 78.6802 9.29984 78.3302 8.89984C78.0102 8.52984 77.3302 8.33984 76.3402 8.56984C75.6402 8.72984 74.6402 8.90984 73.7402 9.03984C73.7402 9.03984 73.7902 8.82984 73.8402 8.43984C74.0702 6.40984 71.8602 6.56984 71.1502 7.21984C70.7302 7.60984 70.4502 8.05984 70.3302 8.88984C70.1602 10.1898 71.2302 10.7998 71.2302 10.7998C70.5431 13.3955 69.3911 15.8451 67.8302 18.0298V17.3298C67.8202 13.9698 67.8602 11.3298 67.8802 10.3798C67.9002 9.43984 67.9402 8.74984 67.9402 8.57984C67.9402 8.21984 67.7202 8.07984 67.2802 7.90984C66.8802 7.74984 66.4202 7.64984 65.9402 7.60984C65.3402 7.55984 64.9702 7.87984 64.9802 8.25984V8.77984C64.5467 8.09505 63.9002 7.57157 63.1402 7.28984C61.7002 6.85984 60.2002 7.23984 59.0702 8.81984C58.1298 10.229 57.5589 11.8522 57.4102 13.5398C57.2602 15.1098 57.2802 16.4398 57.5002 17.5798C57.2702 18.7098 56.6102 19.8798 55.8702 19.8798C54.9202 19.8798 54.3702 19.0498 54.3702 15.2098C54.3702 12.9698 54.4402 11.9998 54.4702 10.3798C54.4902 9.43984 54.5302 8.72984 54.5302 8.56984C54.5302 8.06984 53.6602 7.81984 53.2602 7.71984C52.8402 7.61984 52.4702 7.58984 52.2002 7.61984C51.8302 7.63984 51.5702 7.96984 51.5702 8.21984V8.77984C51.1367 8.09505 50.4902 7.57157 49.7302 7.28984C48.2902 6.85984 46.8002 7.24984 45.6602 8.81984C44.9102 9.84984 44.3102 10.9898 44.0002 13.5198C43.9163 14.1965 43.8762 14.878 43.8802 15.5598C43.5802 17.3698 42.2702 19.4598 41.2002 19.4598C40.5702 19.4598 39.9702 18.2498 39.9702 15.6598C39.9702 12.2098 40.1902 7.29984 40.2202 6.82984L41.8402 6.79984C42.5202 6.79984 43.1302 6.80984 44.0302 6.75984C44.4802 6.73984 44.9102 5.11984 44.4502 4.91984C44.2402 4.82984 42.7502 4.74984 42.1502 4.73984C41.6502 4.72984 40.2702 4.62984 40.2702 4.62984C40.2702 4.62984 40.4002 1.36984 40.4302 1.02984C40.4502 0.729843 40.0802 0.589843 39.8602 0.499843C39.3666 0.301178 38.854 0.153737 38.3302 0.0598427C37.5702 -0.0901573 37.2302 0.0598426 37.1602 0.699843C37.0602 1.66984 37.0102 4.51984 37.0102 4.51984C36.4502 4.51984 34.5402 4.40984 33.9902 4.40984C33.4702 4.40984 32.9102 6.62984 33.6302 6.65984L36.8302 6.74984L36.8002 13.2798V13.7498C36.2702 16.4798 34.4302 17.9498 34.4302 17.9498C34.8302 16.1498 34.0102 14.7998 32.5602 13.6498C32.0202 13.2298 30.9602 12.4298 29.7702 11.5498C29.7702 11.5498 30.4602 10.8698 31.0702 9.50984C31.5002 8.54984 31.5202 7.44984 30.4602 7.20984C28.7102 6.79984 27.2602 8.07984 26.8302 9.45984C26.6624 9.90656 26.6203 10.3907 26.7085 10.8597C26.7966 11.3287 27.0117 11.7645 27.3302 12.1198L27.4802 12.3098C27.0802 13.0698 26.5402 14.0898 26.0802 14.8898C24.8102 17.0898 23.8402 18.8398 23.1102 18.8398C22.5302 18.8398 22.5402 17.0698 22.5402 15.4098C22.5402 13.9798 22.6402 11.8298 22.7302 9.60984C22.7602 8.86984 22.3902 8.44984 21.7702 8.06984C21.2772 7.7288 20.7188 7.49384 20.1302 7.37984C19.4302 7.37984 17.4302 7.47984 15.5302 12.9498C15.3002 13.6398 14.8302 14.8898 14.8302 14.8898L14.8702 8.31984C14.8702 8.15984 14.7902 8.01984 14.6002 7.91984C14.0034 7.60259 13.345 7.41837 12.6702 7.37984C12.3102 7.37984 12.1302 7.54984 12.1302 7.87984L12.0602 18.1798C12.0602 18.9598 12.0802 19.8698 12.1602 20.2698C12.2402 20.6698 12.3602 20.9898 12.5202 21.1798C12.6702 21.3798 12.8502 21.5198 13.1402 21.5798C13.4202 21.6398 14.9202 21.8298 15.0002 21.2598C15.1002 20.5698 15.1002 19.8298 15.8902 17.0598C17.1102 12.7498 18.7102 10.6398 19.4702 9.89984C19.6002 9.75984 19.7502 9.75984 19.7402 9.96984L19.5202 15.2898C19.3202 20.6598 20.3002 21.6498 21.6902 21.6498C22.7602 21.6498 24.2702 20.5898 25.8902 17.9098L28.5902 13.4098L30.1702 14.8698C31.4502 16.0698 31.8702 17.2298 31.5902 18.3198C31.3802 19.1498 30.5702 20.0198 29.1502 19.1798C28.7302 18.9298 28.5502 18.7398 28.1402 18.4698C27.9102 18.3198 27.5702 18.2698 27.3602 18.4298C26.8302 18.8298 26.5202 19.3498 26.3502 19.9798C26.1802 20.5898 26.8002 20.9198 27.4402 21.1998C27.9902 21.4498 29.1802 21.6698 29.9402 21.6998C32.8802 21.7998 35.2402 20.2798 36.8802 16.3598C37.1802 19.7398 38.4302 21.6598 40.6002 21.6598C42.0502 21.6598 43.5102 19.7798 44.1502 17.9398C44.3302 18.6898 44.6002 19.3398 44.9502 19.8998C46.6302 22.5498 49.8802 21.9698 51.5102 19.7198C52.0102 19.0298 52.0902 18.7798 52.0902 18.7798C52.139 19.537 52.4665 20.2492 53.0094 20.7791C53.5523 21.3091 54.2722 21.6193 55.0302 21.6498C56.1302 21.6498 57.2602 21.1298 58.0602 19.3398C58.1502 19.5398 58.2602 19.7198 58.3602 19.8998C60.0402 22.5498 63.2902 21.9698 64.9202 19.7198L65.1202 19.4398L65.1702 20.8398L63.6702 22.2098C61.1502 24.5098 59.2302 26.2598 59.0902 28.2998C58.9102 30.8998 61.0202 31.8598 62.6202 31.9898C63.4205 32.0297 64.2169 31.8551 64.9271 31.4842C65.6374 31.1132 66.2357 30.5594 66.6602 29.8798C67.4402 28.7298 67.9602 26.2498 67.9202 23.7998L67.8602 20.2398C70.2556 17.4699 72.0957 14.265 73.2802 10.7998C73.2802 10.7998 74.2102 10.8098 75.2002 10.7498C75.5202 10.7298 75.6102 10.7898 75.5502 11.0198C75.4802 11.2998 74.3002 15.8598 75.3802 18.8998C76.1202 20.9798 77.7802 21.6498 78.7802 21.6498C79.9302 21.6498 81.0402 20.7798 81.6302 19.4798L81.8602 19.8998C83.5402 22.5498 86.7802 21.9698 88.4202 19.7198C88.7902 19.2198 89.0002 18.7798 89.0002 18.7798C89.3602 20.9798 91.0702 21.6598 92.0502 21.6598C93.0702 21.6598 94.0502 21.2398 94.8302 19.3798C94.8602 20.1998 94.9102 20.8698 94.9902 21.0798C95.0402 21.2098 95.3302 21.3798 95.5502 21.4498C96.4802 21.7898 97.4302 21.6298 97.7902 21.5598C98.0302 21.5098 98.2202 21.3098 98.2502 20.8098C98.3202 19.4798 98.2802 17.2498 98.6802 15.5998C99.3502 12.8098 99.9802 11.7298 100.28 11.1998C100.45 10.8998 100.64 10.8498 100.65 11.1698C100.66 11.8098 100.69 13.6898 100.95 16.2198C101.15 18.0798 101.41 19.1798 101.6 19.5198C102.17 20.5198 102.87 20.5698 103.43 20.5698C103.79 20.5698 104.55 20.4698 104.48 19.8398C104.45 19.5298 104.5 17.6198 105.18 14.8798C105.61 13.0898 106.33 11.4798 106.59 10.8798C106.69 10.6698 106.74 10.8398 106.74 10.8798C106.68 12.0998 106.56 16.1298 107.06 18.3398C107.74 21.3198 109.71 21.6598 110.4 21.6598C111.87 21.6598 113.07 20.5398 113.47 17.6098C113.57 16.9098 113.42 16.3598 112.99 16.3598Z" fill="black"/>
    </g>
    <defs>
        <clipPath id="clip0_170_3324">
            <rect width="113.655" height="32" fill="white" transform="translate(0.172363)"/>
        </clipPath>
    </defs>
</svg>
