<svg width="16" height="15" viewBox="0 0 16 15" fill="none" xmlns="http://www.w3.org/2000/svg">
    <path d="M15.4949 11.0085L13.4016 8.91518C12.654 8.16758 11.3831 8.46665 11.0841 9.43851C10.8598 10.1114 10.1122 10.4852 9.43932 10.3356C7.94411 9.96183 5.92558 8.01806 5.55178 6.44809C5.3275 5.77522 5.77606 5.02761 6.44891 4.80336C7.42079 4.50432 7.71983 3.23339 6.97223 2.48578L4.87894 0.392492C4.28085 -0.130831 3.38373 -0.130831 2.8604 0.392492L1.43996 1.81294C0.0195077 3.30815 1.58948 7.27045 5.10322 10.7842C8.61696 14.2979 12.5793 15.9427 14.0745 14.4475L15.4949 13.027C16.0183 12.4289 16.0183 11.5318 15.4949 11.0085Z" fill="white"/>
</svg>
