<svg width="17" height="18" viewBox="0 0 17 18" fill="none" xmlns="http://www.w3.org/2000/svg">
    <g clip-path="url(#clip0_302_1802)">
        <path d="M11.5793 0.703613H5.33311C2.45881 0.703613 0.12793 3.03449 0.12793 5.9088V12.155C0.12793 15.0293 2.45881 17.3602 5.33311 17.3602H11.5793C14.4536 17.3602 16.7845 15.0293 16.7845 12.155V5.9088C16.7845 3.03449 14.4536 0.703613 11.5793 0.703613ZM15.223 12.155C15.223 14.1642 13.5885 15.7986 11.5793 15.7986H5.33311C3.32391 15.7986 1.68948 14.1642 1.68948 12.155V5.9088C1.68948 3.8996 3.32391 2.26517 5.33311 2.26517H11.5793C13.5885 2.26517 15.223 3.8996 15.223 5.9088V12.155Z" fill="black"/>
        <path d="M8.45614 4.86768C6.15649 4.86768 4.29199 6.73217 4.29199 9.03182C4.29199 11.3315 6.15649 13.196 8.45614 13.196C10.7558 13.196 12.6203 11.3315 12.6203 9.03182C12.6203 6.73217 10.7558 4.86768 8.45614 4.86768ZM8.45614 11.6344C7.02159 11.6344 5.85355 10.4664 5.85355 9.03182C5.85355 7.59623 7.02159 6.42923 8.45614 6.42923C9.89069 6.42923 11.0587 7.59623 11.0587 9.03182C11.0587 10.4664 9.89069 11.6344 8.45614 11.6344Z" fill="black"/>
        <path d="M12.9328 5.11023C13.2392 5.11023 13.4877 4.86181 13.4877 4.55536C13.4877 4.24891 13.2392 4.00049 12.9328 4.00049C12.6264 4.00049 12.3779 4.24891 12.3779 4.55536C12.3779 4.86181 12.6264 5.11023 12.9328 5.11023Z" fill="black"/>
    </g>
    <defs>
        <clipPath id="clip0_302_1802">
            <rect width="16.6566" height="16.6566" fill="white" transform="translate(0.12793 0.703613)"/>
        </clipPath>
    </defs>
</svg>
