<svg width="17" height="15" viewBox="0 0 17 15" fill="none" xmlns="http://www.w3.org/2000/svg">
    <path d="M11.0407 4.9599C10.6734 5.20354 10.3098 5.45081 9.94977 5.70172C9.27337 6.17081 8.5897 6.66172 7.89148 7.11263C7.25509 7.52717 6.65506 7.99626 6.0223 8.41081C5.33863 8.85808 4.49495 9.33081 3.65127 9.0799C2.45485 8.72717 1.52389 8.57808 0.647484 8.23626C-0.228924 7.89081 0.0838184 7.29808 0.742033 6.98535C1.40025 6.67263 8.65879 3.54172 8.65879 3.54172L13.1972 1.66536C13.5899 1.51263 13.9827 1.35627 14.3791 1.1999C14.6445 1.09445 14.9027 0.978082 15.1828 0.912628C15.4991 0.839901 15.8737 0.807174 16.161 0.992628C16.5683 1.25445 16.5683 1.83263 16.5174 2.25808C16.4155 3.09081 16.2919 3.9199 16.1683 4.74899C16.0046 5.84354 15.8373 6.94172 15.6664 8.03626C15.5137 9.00717 15.3609 9.97808 15.2082 10.9526C15.0955 11.6544 15.0446 12.3781 14.8955 13.069C14.8264 13.3817 14.7246 13.6981 14.5464 13.9672C13.7972 15.0944 12.3935 14.0872 11.6262 13.5235C10.9935 13.0581 8.31332 11.3272 7.65147 10.8617C7.41509 10.6944 7.22963 10.4072 7.23327 10.1126C7.2369 9.70899 7.52419 9.40354 7.80421 9.14536C8.14604 8.82899 8.50242 8.52354 8.84062 8.1999C9.34974 7.7199 9.86249 7.23626 10.3716 6.75626C10.8116 6.34172 11.248 5.93081 11.688 5.51627C11.9317 5.28717 12.1608 5.05081 12.3753 4.79627C12.4408 4.7199 12.4844 4.65808 12.4917 4.55626C12.4953 4.48354 12.4808 4.41445 12.4263 4.36354C12.2262 4.17445 11.9753 4.36354 11.7935 4.4799C11.5353 4.63263 11.288 4.79627 11.0407 4.9599Z" fill="black"/>
</svg>
