<svg width="22" height="23" viewBox="0 0 22 23" fill="none" xmlns="http://www.w3.org/2000/svg">
    <path d="M11.9715 7.38574C11.906 7.38574 11.8369 7.38938 11.7715 7.39302L11.9497 8.01484C11.9569 8.01484 11.9642 8.01484 11.9715 8.01484C12.8988 8.01484 13.6552 8.75302 13.6698 9.66938L14.3025 9.86211C14.3062 9.80756 14.3098 9.75301 14.3098 9.69847C14.3062 8.42211 13.2588 7.38574 11.9715 7.38574Z" fill="black"/>
    <path d="M11.9716 6.05469C11.7789 6.05469 11.5898 6.06923 11.4043 6.09832L11.5788 6.70923C11.7061 6.69105 11.8407 6.68378 11.9716 6.68378C13.6517 6.68378 15.0154 8.03287 15.0154 9.69832C15.0154 9.82559 15.0081 9.95287 14.9936 10.0729L15.6081 10.262C15.6372 10.0765 15.6518 9.89105 15.6518 9.69832C15.6518 7.68741 14.0008 6.05469 11.9716 6.05469Z" fill="black"/>
    <path d="M15.4585 6.13863C14.4221 5.11317 13.0438 4.5459 11.5819 4.5459C11.3783 4.5459 11.1746 4.55681 10.9746 4.57863L11.1492 5.19681C11.291 5.1859 11.4365 5.17863 11.5819 5.17863C14.2584 5.17863 16.4294 7.32772 16.4294 9.98226C16.4294 10.1604 16.4185 10.335 16.4003 10.5095L17.0186 10.6986C17.0513 10.4623 17.0658 10.2223 17.0658 9.98226C17.0658 8.52772 16.4949 7.16408 15.4585 6.13863Z" fill="black"/>
    <path d="M21.2626 5.48389C20.8699 4.56389 20.3062 3.73844 19.5898 3.02935C18.8734 2.32025 18.0406 1.76025 17.1133 1.37116C16.5424 1.13116 15.9496 0.960251 15.3423 0.862069C15.3278 0.858433 15.3132 0.858435 15.2987 0.854798C14.8987 0.79298 14.4914 0.760254 14.0804 0.760254H8.77109C7.72013 0.760254 6.7019 0.963888 5.73821 1.37116C4.81089 1.76025 3.97813 2.32025 3.26173 3.02935C2.54533 3.73844 1.98166 4.56389 1.58892 5.48389C1.17799 6.44025 0.970703 7.45116 0.970703 8.49116V12.033C0.970703 13.6075 1.45073 15.1239 2.35986 16.4221C3.0799 17.4512 4.0254 18.2839 5.12728 18.8621C5.35274 18.9821 5.58548 19.0875 5.82185 19.1857V19.2003C5.88004 19.2257 5.93822 19.2475 5.99641 19.273L5.96368 21.8148V21.8221V21.8293C5.96732 22.193 6.1746 22.5093 6.48007 22.6657C6.56007 22.6875 6.64371 22.6984 6.73099 22.6984C7.00373 22.6984 7.26193 22.5821 7.44375 22.3821L9.82932 19.7639H14.0804C15.1314 19.7639 16.1496 19.5603 17.1133 19.153C18.0406 18.7639 18.8734 18.2039 19.5898 17.4948C20.3062 16.7857 20.8699 15.9603 21.2626 15.0403C21.6736 14.0839 21.8808 13.073 21.8808 12.033V8.49116C21.8772 7.45116 21.6699 6.44025 21.2626 5.48389ZM6.72371 21.8875C6.64735 21.8875 6.57462 21.8293 6.57462 21.7384L6.62553 19.4584L6.6619 17.8293V17.8112C6.60371 17.7893 6.54552 17.7675 6.48734 17.7457C6.28733 17.6657 6.09459 17.5784 5.90549 17.4803C5.88731 17.473 5.87277 17.4621 5.85458 17.4548C3.89812 16.4148 2.55987 14.3675 2.55987 12.0257V8.48389C2.55987 5.10207 5.35274 2.33116 8.77109 2.33116H14.0804C14.415 2.33116 14.7387 2.35661 15.0587 2.40752C18.0116 2.87661 20.288 5.42935 20.288 8.48389V12.0257C20.288 15.4075 17.4952 18.1784 14.0768 18.1784H10.1639L8.72745 19.7566L6.83281 21.8366C6.81826 21.8548 6.80009 21.8657 6.7819 21.873C6.76372 21.8839 6.74553 21.8875 6.72371 21.8875Z" fill="black"/>
    <path d="M13.9714 12.1751C13.375 12.1278 12.9205 12.5532 12.6732 13.0987C12.5132 13.0951 9.05847 12.9714 8.62208 9.10597C9.18575 8.88052 9.63304 8.43688 9.60031 7.84051C9.56395 7.17506 8.50935 5.21143 7.47657 5.21143C6.48743 5.21143 5.56738 6.28415 5.56738 7.17506C5.56738 7.24052 5.57466 7.30597 5.5892 7.37506C5.57466 7.38233 5.56738 7.38597 5.56738 7.38597C5.56738 7.38597 6.24014 12.8587 13.8114 16.0078C13.9169 16.0514 14.1387 16.1096 14.2551 16.1387C14.2805 16.146 14.3096 16.1532 14.3351 16.1605C14.4042 16.1751 14.4696 16.1823 14.5351 16.186C15.0588 16.2005 15.6552 15.9023 16.0661 15.4587C16.357 15.1423 16.5534 14.7532 16.5643 14.346C16.5934 13.3242 14.6406 12.226 13.9714 12.1751Z" fill="black"/>
</svg>
