<svg width="20" height="20" viewBox="0 0 20 20" fill="none" xmlns="http://www.w3.org/2000/svg">
    <path d="M7.25173 5.65116C7.28809 5.73116 7.31718 5.81117 7.34627 5.89117C7.40082 6.01844 7.45174 6.14935 7.50629 6.27662C7.56811 6.42208 7.62629 6.57116 7.68811 6.71662C7.73902 6.84389 7.79357 6.97116 7.84449 7.09844C7.87358 7.16753 7.90267 7.23662 7.93176 7.30571C7.93176 7.30934 7.9354 7.31298 7.9354 7.31662L8.02631 7.51299C8.09541 7.66208 8.07359 7.85116 7.98995 7.98935C7.96449 8.04389 7.92448 8.0948 7.89175 8.14207C7.87721 8.16389 7.86266 8.18208 7.84812 8.2039C7.80812 8.26208 7.76448 8.31662 7.72084 8.37116C7.61174 8.50571 7.49174 8.63662 7.36809 8.76025C7.32082 8.80753 7.27718 8.88753 7.26264 8.95662C7.23718 9.08753 7.45537 9.39662 7.58629 9.59662C7.7172 9.79662 7.86267 9.98935 8.0154 10.1712C8.1645 10.3457 8.32087 10.5166 8.48088 10.6766C8.55361 10.7494 8.62998 10.8184 8.70635 10.8875C8.81544 10.9821 8.92454 11.0693 9.04091 11.1566C9.18637 11.2621 9.33183 11.3639 9.48456 11.4584C9.66639 11.5712 9.85186 11.6766 10.0446 11.7748C10.2446 11.8766 10.4519 11.9712 10.6592 12.0548C10.6592 12.0548 10.881 12.1603 11.0919 11.9384L11.841 10.9821C11.841 10.9821 11.9465 10.7966 12.1938 10.8512C12.452 10.9057 14.2012 11.7821 14.2012 11.7821C14.263 11.8112 14.3212 11.8293 14.3721 11.8803C14.4448 11.9493 14.463 12.033 14.4594 12.1494C14.4557 12.2112 14.4557 12.273 14.4484 12.3348C14.4194 12.6475 14.3757 12.9784 14.1975 13.2475C14.1612 13.3021 14.1212 13.3566 14.0775 13.4075C13.8957 13.6257 13.6557 13.793 13.412 13.9348C13.0629 14.1384 12.6665 14.2512 12.2629 14.2548C12.1102 14.2548 11.9611 14.2621 11.8083 14.2439C11.7101 14.233 11.6119 14.2148 11.5174 14.1966C11.2228 14.1348 10.9319 14.0475 10.6483 13.9457C10.2519 13.8039 9.87003 13.6366 9.49183 13.4548C7.40809 12.4475 5.90984 10.2293 5.90984 10.2293C5.87711 10.1821 5.84075 10.1348 5.80438 10.0875C5.65528 9.87662 5.5171 9.65844 5.38982 9.43298C5.33527 9.33844 5.28435 9.24389 5.23708 9.14571C5.12798 8.92753 5.02979 8.70572 4.95706 8.47662C4.93161 8.40026 4.90979 8.32753 4.8916 8.24753C4.87342 8.1748 4.85888 8.10207 4.84797 8.02571C4.72796 7.34571 4.90616 6.75662 5.06253 6.39662C5.16072 6.16753 5.32799 5.9748 5.47709 5.77844C5.48073 5.77116 5.488 5.76753 5.49163 5.76025C5.49163 5.74934 5.53164 5.71298 5.53891 5.70571C5.55709 5.68389 5.57528 5.66208 5.5971 5.64026C5.60801 5.62572 5.62255 5.6148 5.6371 5.60026C5.76801 5.46935 5.97893 5.34935 6.17531 5.31299H6.85898C6.85898 5.31299 7.00808 5.32389 7.13536 5.46934C7.18263 5.51298 7.219 5.57844 7.25173 5.65116Z" fill="black"/>
    <path d="M18.9434 7.78207C18.8198 7.17116 18.6343 6.57116 18.3907 6.00025C18.1543 5.43661 17.8597 4.89479 17.5142 4.38934C17.176 3.88752 16.7869 3.4148 16.3578 2.98571C15.9287 2.55662 15.456 2.16752 14.9541 1.82934C14.4486 1.48752 13.9032 1.19297 13.3431 0.952974C12.7686 0.709338 12.1685 0.523885 11.5612 0.400249C10.9357 0.272976 10.2921 0.20752 9.65203 0.20752C9.00837 0.20752 8.36833 0.272976 7.74285 0.400249C7.13191 0.523885 6.53188 0.709338 5.96094 0.952974C5.39728 1.18934 4.85543 1.48389 4.34995 1.82934C3.84811 2.16752 3.37535 2.55662 2.94624 2.98571C2.51713 3.4148 2.12802 3.88752 1.78983 4.38934C1.44799 4.89479 1.15343 5.44025 0.913414 6.00025C0.669766 6.57479 0.484304 7.17479 0.360661 7.78207C0.233382 8.40752 0.167923 9.05116 0.167923 9.69116C0.167923 10.3348 0.233382 10.9748 0.360661 11.6002C0.484304 12.2112 0.669766 12.8112 0.913414 13.3821C1.06615 13.7384 1.23707 14.0875 1.43344 14.4257L0.793407 16.6766L0.0224609 19.3821L2.7426 18.6621L5.13181 18.0293C5.40091 18.1748 5.67729 18.3093 5.96094 18.4293C6.53551 18.673 7.13554 18.8584 7.74285 18.9821C8.36833 19.1093 9.012 19.1748 9.65203 19.1748C10.2957 19.1748 10.9357 19.1093 11.5612 18.9821C12.1722 18.8584 12.7722 18.673 13.3431 18.4293C13.9068 18.193 14.4486 17.8984 14.9541 17.553C15.456 17.2148 15.9287 16.8257 16.3578 16.3966C16.7869 15.9675 17.176 15.4948 17.5142 14.993C17.8561 14.4875 18.1506 13.9421 18.3907 13.3821C18.6343 12.8075 18.8198 12.2075 18.9434 11.6002C19.0707 10.9748 19.1361 10.3312 19.1361 9.69116C19.1361 9.04752 19.0707 8.40752 18.9434 7.78207ZM9.65203 17.5748C8.99018 17.5748 8.35015 17.4948 7.73558 17.3421C6.88462 17.1312 6.08458 16.7784 5.36818 16.313L3.40809 16.833L2.33167 17.1166L2.62986 16.0693L3.16807 14.1784C2.7135 13.5239 2.35713 12.8003 2.11711 12.0221C1.88801 11.2839 1.768 10.5021 1.768 9.69116C1.768 5.33843 5.29909 1.80752 9.65203 1.80752C14.005 1.80752 17.5361 5.33843 17.5361 9.69116C17.5361 14.0439 14.005 17.5748 9.65203 17.5748Z" fill="black"/>
</svg>
