<svg width="17" height="18" viewBox="0 0 17 18" fill="none" xmlns="http://www.w3.org/2000/svg">
    <g clip-path="url(#clip0_302_1784)">
        <path d="M16.0717 4.40965C15.6199 3.60597 15.1296 3.45814 14.1312 3.40193C13.1339 3.33426 10.6261 3.30615 8.45342 3.30615C6.27661 3.30615 3.76772 3.33426 2.77144 3.40089C1.77517 3.45814 1.2838 3.60493 0.827829 4.40965C0.362485 5.21229 0.123047 6.59479 0.123047 9.02873V9.03185V9.03498V9.03706C0.123047 11.4606 0.362485 12.8535 0.827829 13.6478C1.2838 14.4515 1.77413 14.5972 2.7704 14.6649C3.76772 14.7232 6.27661 14.7576 8.45342 14.7576C10.6261 14.7576 13.1339 14.7232 14.1323 14.6659C15.1306 14.5983 15.621 14.4525 16.0728 13.6489C16.5423 12.8545 16.7796 11.4616 16.7796 9.0381V9.03289V9.02977C16.7796 6.59479 16.5423 5.21229 16.0717 4.40965ZM6.36927 12.155V5.90874L11.5744 9.03185L6.36927 12.155Z" fill="black"/>
    </g>
    <defs>
        <clipPath id="clip0_302_1784">
            <rect width="16.6566" height="16.6566" fill="white" transform="translate(0.123047 0.703613)"/>
        </clipPath>
    </defs>
</svg>
