<svg width="24" height="25" viewBox="0 0 24 25" fill="none" xmlns="http://www.w3.org/2000/svg">
    <path d="M12.923 7.74C12.923 9.52941 11.4766 10.98 9.69231 10.98C7.90801 10.98 6.46153 9.52941 6.46153 7.74C6.46153 5.95059 7.90801 4.5 9.69231 4.5C11.4766 4.5 12.923 5.95059 12.923 7.74Z" fill="#70B0FB"/>
    <path fill-rule="evenodd" clip-rule="evenodd" d="M3 7.74C3 7.35656 3.30996 7.04571 3.69231 7.04571H6.46154C6.84389 7.04571 7.15385 7.35656 7.15385 7.74C7.15385 8.12345 6.84389 8.43429 6.46154 8.43429H3.69231C3.30996 8.43429 3 8.12345 3 7.74Z" fill="#70B0FB"/>
    <path fill-rule="evenodd" clip-rule="evenodd" d="M14.0769 7.74C14.0769 7.35656 14.3869 7.04571 14.7692 7.04571H20.3077C20.69 7.04571 21 7.35656 21 7.74C21 8.12345 20.69 8.43429 20.3077 8.43429H14.7692C14.3869 8.43429 14.0769 8.12345 14.0769 7.74Z" fill="#70B0FB"/>
    <path d="M11.077 17.46C11.077 19.2494 12.5234 20.7 14.3077 20.7C16.092 20.7 17.5384 19.2494 17.5384 17.46C17.5384 15.6706 16.092 14.22 14.3077 14.22C12.5234 14.22 11.077 15.6706 11.077 17.46Z" fill="#70B0FB"/>
    <path fill-rule="evenodd" clip-rule="evenodd" d="M21 17.46C21 17.0766 20.69 16.7657 20.3077 16.7657H17.5384C17.1561 16.7657 16.8461 17.0766 16.8461 17.46C16.8461 17.8434 17.1561 18.1543 17.5384 18.1543H20.3077C20.69 18.1543 21 17.8434 21 17.46Z" fill="#70B0FB"/>
    <path fill-rule="evenodd" clip-rule="evenodd" d="M9.92308 17.46C9.92308 17.0766 9.61312 16.7657 9.23077 16.7657H3.69231C3.30996 16.7657 3 17.0766 3 17.46C3 17.8434 3.30996 18.1543 3.69231 18.1543H9.23077C9.61312 18.1543 9.92308 17.8434 9.92308 17.46Z" fill="#70B0FB"/>
</svg>
