<svg width="18" height="19" viewBox="0 0 18 19" fill="none" xmlns="http://www.w3.org/2000/svg">
    <path d="M6.92294 1.19231V3.5C6.92294 3.68362 6.85 3.8597 6.72017 3.98953C6.59034 4.11937 6.41425 4.1923 6.23064 4.1923C6.04702 4.1923 5.87093 4.11937 5.7411 3.98953C5.61127 3.8597 5.53833 3.68362 5.53833 3.5V1.19231C5.53833 1.0087 5.61127 0.832604 5.7411 0.70277C5.87093 0.572936 6.04702 0.5 6.23064 0.5C6.41425 0.5 6.59034 0.572936 6.72017 0.70277C6.85 0.832604 6.92294 1.0087 6.92294 1.19231Z" fill="#70B0FB"/>
    <path d="M17.6862 4.00772C17.6431 3.41327 17.3868 2.85436 16.9646 2.43377C16.5423 2.01317 15.9823 1.75917 15.3877 1.71848C14.7877 1.67232 14.1046 1.62617 13.3846 1.58925V3.50002C13.3846 3.92844 13.2144 4.33933 12.9115 4.64227C12.6085 4.94521 12.1977 5.11541 11.7692 5.11541C11.3408 5.11541 10.93 4.94521 10.627 4.64227C10.3241 4.33933 10.1539 3.92844 10.1539 3.50002V1.4231H7.84611V3.50002C7.84611 3.92844 7.67592 4.33933 7.37302 4.64227C7.07008 4.94521 6.6592 5.11541 6.23077 5.11541C5.80235 5.11541 5.39146 4.94521 5.08852 4.64227C4.78558 4.33933 4.61539 3.92844 4.61539 3.50002V1.58925C3.89539 1.58925 3.21231 1.67232 2.60308 1.71848C2.00912 1.76105 1.45025 2.01566 1.02834 2.43587C0.606429 2.85609 0.349578 3.41394 0.304614 4.00772C0.166158 5.7154 0 8.13391 0 9.96154C0 11.7893 0.166158 14.2169 0.304614 15.9247C0.349821 16.5174 0.607005 17.0742 1.0291 17.4928C1.45118 17.9115 2.00993 18.1642 2.60308 18.2046C4.44923 18.3431 7.05231 18.5 9 18.5C10.9477 18.5 13.5416 18.3431 15.3877 18.2046C15.9815 18.1661 16.5413 17.914 16.9638 17.495C17.3863 17.0759 17.6428 16.5181 17.6862 15.9247C17.8339 14.2169 18 11.7984 18 9.96154C18 8.12464 17.8339 5.7154 17.6862 4.00772ZM5.3077 13.2384C5.06288 13.2384 4.82809 13.1412 4.65498 12.9681C4.48186 12.795 4.38462 12.5602 4.38462 12.3154C4.38462 12.0706 4.48186 11.8358 4.65498 11.6627C4.82809 11.4896 5.06288 11.3924 5.3077 11.3924C5.55251 11.3924 5.7873 11.4896 5.9604 11.6627C6.13352 11.8358 6.23077 12.0706 6.23077 12.3154C6.23077 12.5602 6.13352 12.795 5.9604 12.9681C5.7873 13.1412 5.55251 13.2384 5.3077 13.2384ZM5.3077 9.54619C5.06288 9.54619 4.82809 9.4489 4.65498 9.27583C4.48186 9.10267 4.38462 8.86795 4.38462 8.62306C4.38462 8.37826 4.48186 8.14345 4.65498 7.97038C4.82809 7.79731 5.06288 7.70002 5.3077 7.70002C5.55251 7.70002 5.7873 7.79731 5.9604 7.97038C6.13352 8.14345 6.23077 8.37826 6.23077 8.62306C6.23077 8.86795 6.13352 9.10267 5.9604 9.27583C5.7873 9.4489 5.55251 9.54619 5.3077 9.54619ZM9 13.2384C8.7552 13.2384 8.52039 13.1412 8.34732 12.9681C8.17416 12.795 8.07696 12.5602 8.07696 12.3154C8.07696 12.0706 8.17416 11.8358 8.34732 11.6627C8.52039 11.4896 8.7552 11.3924 9 11.3924C9.2448 11.3924 9.47961 11.4896 9.65268 11.6627C9.82584 11.8358 9.92304 12.0706 9.92304 12.3154C9.92304 12.5602 9.82584 12.795 9.65268 12.9681C9.47961 13.1412 9.2448 13.2384 9 13.2384ZM9 9.54619C8.7552 9.54619 8.52039 9.4489 8.34732 9.27583C8.17416 9.10267 8.07696 8.86795 8.07696 8.62306C8.07696 8.37826 8.17416 8.14345 8.34732 7.97038C8.52039 7.79731 8.7552 7.70002 9 7.70002C9.2448 7.70002 9.47961 7.79731 9.65268 7.97038C9.82584 8.14345 9.92304 8.37826 9.92304 8.62306C9.92304 8.86795 9.82584 9.10267 9.65268 9.27583C9.47961 9.4489 9.2448 9.54619 9 9.54619ZM12.6923 9.54619C12.4474 9.54619 12.2127 9.4489 12.0396 9.27583C11.8665 9.10267 11.7692 8.86795 11.7692 8.62306C11.7692 8.37826 11.8665 8.14345 12.0396 7.97038C12.2127 7.79731 12.4474 7.70002 12.6923 7.70002C12.9371 7.70002 13.172 7.79731 13.345 7.97038C13.5181 8.14345 13.6154 8.37826 13.6154 8.62306C13.6154 8.86795 13.5181 9.10267 13.345 9.27583C13.172 9.4489 12.9371 9.54619 12.6923 9.54619Z" fill="#70B0FB"/>
    <path d="M12.4617 1.19231V3.5C12.4617 3.68362 12.3887 3.8597 12.2589 3.98953C12.129 4.11937 11.9529 4.1923 11.7693 4.1923C11.5857 4.1923 11.4097 4.11937 11.2798 3.98953C11.1499 3.8597 11.077 3.68362 11.077 3.5V1.19231C11.077 1.0087 11.1499 0.832604 11.2798 0.70277C11.4097 0.572936 11.5857 0.5 11.7693 0.5C11.9529 0.5 12.129 0.572936 12.2589 0.70277C12.3887 0.832604 12.4617 1.0087 12.4617 1.19231Z" fill="#70B0FB"/>
</svg>
