<svg width="24" height="25" viewBox="0 0 24 25" fill="none" xmlns="http://www.w3.org/2000/svg">
    <path d="M21 13.4473C21 13.1961 20.8984 12.9551 20.7176 12.7775C20.5367 12.5998 20.2915 12.5 20.0357 12.5H19.3929C19.3076 12.5 19.2259 12.5332 19.1656 12.5925C19.1053 12.6517 19.0714 12.732 19.0714 12.8158V17.2368C19.0714 17.3206 19.1053 17.4009 19.1656 17.4601C19.2259 17.5193 19.3076 17.5526 19.3929 17.5526H20.0357C20.2915 17.5526 20.5367 17.4528 20.7176 17.2751C20.8984 17.0975 21 16.8565 21 16.6052V13.4473Z" fill="#FF7575"/>
    <path d="M4.28571 12.8158H5.25V14.0789H4.28571V12.8158Z" fill="#FF7575"/>
    <path d="M17.7857 13.7631H18.4286V16.2895H17.7857V13.7631Z" fill="#FF7575"/>
    <path d="M3.64286 10.921C3.64286 10.8373 3.60899 10.757 3.54871 10.6977C3.48843 10.6385 3.40668 10.6052 3.32143 10.6052C3.23618 10.6052 3.15442 10.6385 3.09414 10.6977C3.03386 10.757 3 10.8373 3 10.921V15.9737C3 16.0574 3.03386 16.1377 3.09414 16.197C3.15442 16.2562 3.23618 16.2895 3.32143 16.2895C3.40668 16.2895 3.48843 16.2562 3.54871 16.197C3.60899 16.1377 3.64286 16.0574 3.64286 15.9737V10.921Z" fill="#FF7575"/>
    <path d="M16.8214 11.2368H15.8571C15.6014 11.2368 15.3561 11.137 15.1753 10.9593C14.9945 10.7817 14.8929 10.5407 14.8929 10.2895V9.65787C14.8929 9.57412 14.859 9.4938 14.7987 9.43457C14.7384 9.37535 14.6567 9.34208 14.5714 9.34208H8.46429C8.37904 9.34208 8.29728 9.37535 8.237 9.43457C8.17672 9.4938 8.14286 9.57412 8.14286 9.65787C8.14286 9.90913 8.04126 10.1501 7.86042 10.3278C7.67959 10.5054 7.43432 10.6052 7.17857 10.6052H6.21429C6.12904 10.6052 6.04728 10.6385 5.987 10.6977C5.92672 10.757 5.89286 10.8373 5.89286 10.921V16.2895C5.89286 16.3732 5.92672 16.4535 5.987 16.5127C6.04728 16.572 6.12904 16.6052 6.21429 16.6052H7.55529C7.68196 16.605 7.80742 16.6293 7.92444 16.677C8.04146 16.7246 8.14771 16.7946 8.23704 16.8828L9.78889 18.4075C9.84916 18.4667 9.9309 18.5 10.0161 18.5H16.8214C16.9067 18.5 16.9884 18.4667 17.0487 18.4075C17.109 18.3483 17.1429 18.2679 17.1429 18.1842V11.5526C17.1429 11.4689 17.109 11.3885 17.0487 11.3293C16.9884 11.2701 16.9067 11.2368 16.8214 11.2368Z" fill="#FF7575"/>
    <path d="M10.7143 7.76313H12.6429V8.7105H10.7143V7.76313Z" fill="#FF7575"/>
    <path d="M14.8929 6.49998H8.46429C8.37904 6.49998 8.29728 6.53325 8.237 6.59247C8.17672 6.65169 8.14286 6.73201 8.14286 6.81577C8.14286 6.89952 8.17672 6.97984 8.237 7.03906C8.29728 7.09829 8.37904 7.13156 8.46429 7.13156H14.8929C14.9781 7.13156 15.0599 7.09829 15.1201 7.03906C15.1804 6.97984 15.2143 6.89952 15.2143 6.81577C15.2143 6.73201 15.1804 6.65169 15.1201 6.59247C15.0599 6.53325 14.9781 6.49998 14.8929 6.49998Z" fill="#FF7575"/>
</svg>
