<svg width="18" height="19" viewBox="0 0 18 19" fill="none" xmlns="http://www.w3.org/2000/svg">
    <path d="M6.92319 1.19231V3.5C6.92319 3.68362 6.85024 3.8597 6.72042 3.98953C6.59058 4.11937 6.41449 4.1923 6.23088 4.1923C6.04726 4.1923 5.87118 4.11937 5.74134 3.98953C5.61151 3.8597 5.53857 3.68362 5.53857 3.5V1.19231C5.53857 1.0087 5.61151 0.832604 5.74134 0.70277C5.87118 0.572936 6.04726 0.5 6.23088 0.5C6.41449 0.5 6.59058 0.572936 6.72042 0.70277C6.85024 0.832604 6.92319 1.0087 6.92319 1.19231Z" fill="#FF7575"/>
    <path d="M17.6862 4.0077C17.6431 3.41325 17.3868 2.85434 16.9646 2.43375C16.5423 2.01316 15.9823 1.75916 15.3877 1.71847C14.7877 1.67231 14.1046 1.62616 13.3846 1.58924V3.5C13.3846 3.92843 13.2144 4.33931 12.9115 4.64225C12.6085 4.94519 12.1977 5.11539 11.7692 5.11539C11.3408 5.11539 10.93 4.94519 10.627 4.64225C10.3241 4.33931 10.1539 3.92843 10.1539 3.5V1.42308H7.84611V3.5C7.84611 3.92843 7.67592 4.33931 7.37302 4.64225C7.07008 4.94519 6.6592 5.11539 6.23077 5.11539C5.80235 5.11539 5.39146 4.94519 5.08852 4.64225C4.78558 4.33931 4.61539 3.92843 4.61539 3.5V1.58924C3.89539 1.58924 3.21231 1.67231 2.60308 1.71847C2.00912 1.76104 1.45025 2.01564 1.02834 2.43586C0.606429 2.85608 0.349578 3.41393 0.304614 4.0077C0.166158 5.71539 0 8.13389 0 9.96152C0 11.7892 0.166158 14.2169 0.304614 15.9247C0.349821 16.5174 0.607005 17.0741 1.0291 17.4928C1.45118 17.9115 2.00993 18.1642 2.60308 18.2046C4.44923 18.343 7.05231 18.5 9 18.5C10.9477 18.5 13.5416 18.343 15.3877 18.2046C15.9815 18.1661 16.5413 17.914 16.9638 17.495C17.3863 17.0758 17.6428 16.5181 17.6862 15.9247C17.8339 14.2169 18 11.7984 18 9.96152C18 8.12463 17.8339 5.71539 17.6862 4.0077ZM5.3077 13.2384C5.06288 13.2384 4.82809 13.1412 4.65498 12.9681C4.48186 12.795 4.38462 12.5602 4.38462 12.3154C4.38462 12.0706 4.48186 11.8358 4.65498 11.6627C4.82809 11.4895 5.06288 11.3923 5.3077 11.3923C5.55251 11.3923 5.7873 11.4895 5.9604 11.6627C6.13352 11.8358 6.23077 12.0706 6.23077 12.3154C6.23077 12.5602 6.13352 12.795 5.9604 12.9681C5.7873 13.1412 5.55251 13.2384 5.3077 13.2384ZM5.3077 9.54618C5.06288 9.54618 4.82809 9.44888 4.65498 9.27582C4.48186 9.10265 4.38462 8.86794 4.38462 8.62305C4.38462 8.37825 4.48186 8.14344 4.65498 7.97037C4.82809 7.7973 5.06288 7.70001 5.3077 7.70001C5.55251 7.70001 5.7873 7.7973 5.9604 7.97037C6.13352 8.14344 6.23077 8.37825 6.23077 8.62305C6.23077 8.86794 6.13352 9.10265 5.9604 9.27582C5.7873 9.44888 5.55251 9.54618 5.3077 9.54618ZM9 13.2384C8.7552 13.2384 8.52039 13.1412 8.34732 12.9681C8.17416 12.795 8.07696 12.5602 8.07696 12.3154C8.07696 12.0706 8.17416 11.8358 8.34732 11.6627C8.52039 11.4895 8.7552 11.3923 9 11.3923C9.2448 11.3923 9.47961 11.4895 9.65268 11.6627C9.82584 11.8358 9.92304 12.0706 9.92304 12.3154C9.92304 12.5602 9.82584 12.795 9.65268 12.9681C9.47961 13.1412 9.2448 13.2384 9 13.2384ZM9 9.54618C8.7552 9.54618 8.52039 9.44888 8.34732 9.27582C8.17416 9.10265 8.07696 8.86794 8.07696 8.62305C8.07696 8.37825 8.17416 8.14344 8.34732 7.97037C8.52039 7.7973 8.7552 7.70001 9 7.70001C9.2448 7.70001 9.47961 7.7973 9.65268 7.97037C9.82584 8.14344 9.92304 8.37825 9.92304 8.62305C9.92304 8.86794 9.82584 9.10265 9.65268 9.27582C9.47961 9.44888 9.2448 9.54618 9 9.54618ZM12.6923 9.54618C12.4474 9.54618 12.2127 9.44888 12.0396 9.27582C11.8665 9.10265 11.7692 8.86794 11.7692 8.62305C11.7692 8.37825 11.8665 8.14344 12.0396 7.97037C12.2127 7.7973 12.4474 7.70001 12.6923 7.70001C12.9371 7.70001 13.172 7.7973 13.345 7.97037C13.5181 8.14344 13.6154 8.37825 13.6154 8.62305C13.6154 8.86794 13.5181 9.10265 13.345 9.27582C13.172 9.44888 12.9371 9.54618 12.6923 9.54618Z" fill="#FF7575"/>
    <path d="M12.4618 1.19231V3.5C12.4618 3.68362 12.3888 3.8597 12.259 3.98953C12.1292 4.11937 11.953 4.1923 11.7694 4.1923C11.5858 4.1923 11.4098 4.11937 11.2799 3.98953C11.15 3.8597 11.0771 3.68362 11.0771 3.5V1.19231C11.0771 1.0087 11.15 0.832604 11.2799 0.70277C11.4098 0.572936 11.5858 0.5 11.7694 0.5C11.953 0.5 12.1292 0.572936 12.259 0.70277C12.3888 0.832604 12.4618 1.0087 12.4618 1.19231Z" fill="#FF7575"/>
</svg>
