<svg width="24" height="24" viewBox="0 0 24 24" fill="none" xmlns="http://www.w3.org/2000/svg">
    <path d="M12.923 7.24C12.923 9.02941 11.4766 10.48 9.69231 10.48C7.90801 10.48 6.46153 9.02941 6.46153 7.24C6.46153 5.45059 7.90801 4 9.69231 4C11.4766 4 12.923 5.45059 12.923 7.24Z" fill="#B1C0D4"/>
    <path fill-rule="evenodd" clip-rule="evenodd" d="M3 7.24C3 6.85656 3.30996 6.54571 3.69231 6.54571H6.46154C6.84389 6.54571 7.15385 6.85656 7.15385 7.24C7.15385 7.62345 6.84389 7.93429 6.46154 7.93429H3.69231C3.30996 7.93429 3 7.62345 3 7.24Z" fill="#B1C0D4"/>
    <path fill-rule="evenodd" clip-rule="evenodd" d="M14.0769 7.24C14.0769 6.85656 14.3869 6.54571 14.7692 6.54571H20.3077C20.69 6.54571 21 6.85656 21 7.24C21 7.62345 20.69 7.93429 20.3077 7.93429H14.7692C14.3869 7.93429 14.0769 7.62345 14.0769 7.24Z" fill="#B1C0D4"/>
    <path d="M11.077 16.96C11.077 18.7494 12.5234 20.2 14.3077 20.2C16.092 20.2 17.5384 18.7494 17.5384 16.96C17.5384 15.1706 16.092 13.72 14.3077 13.72C12.5234 13.72 11.077 15.1706 11.077 16.96Z" fill="#B1C0D4"/>
    <path fill-rule="evenodd" clip-rule="evenodd" d="M21 16.96C21 16.5766 20.69 16.2657 20.3077 16.2657H17.5384C17.1561 16.2657 16.8461 16.5766 16.8461 16.96C16.8461 17.3434 17.1561 17.6543 17.5384 17.6543H20.3077C20.69 17.6543 21 17.3434 21 16.96Z" fill="#B1C0D4"/>
    <path fill-rule="evenodd" clip-rule="evenodd" d="M9.92308 16.96C9.92308 16.5766 9.61312 16.2657 9.23077 16.2657H3.69231C3.30996 16.2657 3 16.5766 3 16.96C3 17.3434 3.30996 17.6543 3.69231 17.6543H9.23077C9.61312 17.6543 9.92308 17.3434 9.92308 16.96Z" fill="#B1C0D4"/>
</svg>
