<svg width="24" height="24" viewBox="0 0 24 24" fill="none" xmlns="http://www.w3.org/2000/svg">
    <path d="M20.4912 16.2102L17.9792 13.6982C17.0821 12.8011 15.557 13.16 15.1981 14.3262C14.929 15.1337 14.0319 15.5822 13.2245 15.4028C11.4302 14.9542 9.00796 12.6217 8.5594 10.7377C8.29026 9.93026 8.82854 9.03313 9.63595 8.76403C10.8022 8.40518 11.1611 6.88007 10.2639 5.98294L7.75199 3.47099C7.03429 2.843 5.95774 2.843 5.32975 3.47099L3.62521 5.17553C1.92067 6.96978 3.80464 11.7245 8.02113 15.941C12.2376 20.1575 16.9924 22.1312 18.7866 20.3369L20.4912 18.6324C21.1192 17.9147 21.1192 16.8382 20.4912 16.2102Z" fill="#B1C0D4"/>
</svg>
