<svg width="24" height="24" viewBox="0 0 24 24" fill="none" xmlns="http://www.w3.org/2000/svg">
    <path d="M11.395 11.6706C12.5862 11.6706 13.6177 11.2434 14.4605 10.4005C15.3032 9.55769 15.7305 8.5265 15.7305 7.33518C15.7305 6.14427 15.3032 5.11293 14.4603 4.26987C13.6174 3.42723 12.5861 3 11.395 3C10.2037 3 9.1725 3.42723 8.32972 4.27001C7.48694 5.11279 7.05957 6.14413 7.05957 7.33518C7.05957 8.5265 7.48694 9.55783 8.32986 10.4006C9.17278 11.2433 10.2041 11.6706 11.395 11.6706Z" fill="#B1C0D4"/>
    <path d="M18.981 16.8412C18.9567 16.4905 18.9075 16.1079 18.8351 15.7038C18.7621 15.2968 18.668 14.912 18.5554 14.5603C18.4391 14.1968 18.2809 13.8378 18.0853 13.4938C17.8824 13.1368 17.644 12.8259 17.3764 12.57C17.0967 12.3024 16.7542 12.0872 16.3582 11.9302C15.9635 11.7741 15.5261 11.695 15.0582 11.695C14.8745 11.695 14.6968 11.7704 14.3536 11.9938C14.1424 12.1315 13.8953 12.2908 13.6196 12.467C13.3838 12.6173 13.0643 12.758 12.6698 12.8855C12.2849 13.01 11.894 13.0732 11.5083 13.0732C11.1225 13.0732 10.7318 13.01 10.3465 12.8855C9.95235 12.7582 9.63293 12.6174 9.39741 12.4672C9.12426 12.2926 8.87707 12.1333 8.6627 11.9937C8.31993 11.7702 8.14209 11.6948 7.95835 11.6948C7.49033 11.6948 7.05308 11.7741 6.65854 11.9303C6.26276 12.087 5.92012 12.3022 5.64011 12.5702C5.37273 12.8261 5.13419 13.1369 4.9315 13.4938C4.73608 13.8378 4.57788 14.1967 4.46142 14.5605C4.34895 14.9121 4.25488 15.2968 4.18182 15.7038C4.10945 16.1073 4.06029 16.49 4.03598 16.8416C4.01208 17.186 4 17.5435 4 17.9045C4 18.8441 4.29869 19.6048 4.88769 20.1658C5.46941 20.7193 6.23914 21.0002 7.17516 21.0002H15.8422C16.7782 21.0002 17.5477 20.7195 18.1296 20.1658C18.7187 19.6052 19.0174 18.8444 19.0174 17.9044C19.0172 17.5417 19.005 17.184 18.981 16.8412Z" fill="#B1C0D4"/>
</svg>
