<svg width="24" height="24" viewBox="0 0 24 24" fill="none" xmlns="http://www.w3.org/2000/svg">
    <path d="M21 12.9473C21 12.6961 20.8984 12.4551 20.7176 12.2775C20.5367 12.0998 20.2915 12 20.0357 12H19.3929C19.3076 12 19.2259 12.0332 19.1656 12.0925C19.1053 12.1517 19.0714 12.232 19.0714 12.3158V16.7368C19.0714 16.8206 19.1053 16.9009 19.1656 16.9601C19.2259 17.0193 19.3076 17.0526 19.3929 17.0526H20.0357C20.2915 17.0526 20.5367 16.9528 20.7176 16.7751C20.8984 16.5975 21 16.3565 21 16.1052V12.9473Z" fill="#B1C0D4"/>
    <path d="M4.28571 12.3158H5.25V13.5789H4.28571V12.3158Z" fill="#B1C0D4"/>
    <path d="M17.7857 13.2631H18.4286V15.7895H17.7857V13.2631Z" fill="#B1C0D4"/>
    <path d="M3.64286 10.421C3.64286 10.3373 3.60899 10.257 3.54871 10.1977C3.48843 10.1385 3.40668 10.1052 3.32143 10.1052C3.23618 10.1052 3.15442 10.1385 3.09414 10.1977C3.03386 10.257 3 10.3373 3 10.421V15.4737C3 15.5574 3.03386 15.6377 3.09414 15.697C3.15442 15.7562 3.23618 15.7895 3.32143 15.7895C3.40668 15.7895 3.48843 15.7562 3.54871 15.697C3.60899 15.6377 3.64286 15.5574 3.64286 15.4737V10.421Z" fill="#B1C0D4"/>
    <path d="M16.8214 10.7368H15.8571C15.6014 10.7368 15.3561 10.637 15.1753 10.4593C14.9945 10.2817 14.8929 10.0407 14.8929 9.78945V9.15787C14.8929 9.07412 14.859 8.9938 14.7987 8.93457C14.7384 8.87535 14.6567 8.84208 14.5714 8.84208H8.46429C8.37904 8.84208 8.29728 8.87535 8.237 8.93457C8.17672 8.9938 8.14286 9.07412 8.14286 9.15787C8.14286 9.40913 8.04126 9.6501 7.86042 9.82776C7.67959 10.0054 7.43432 10.1052 7.17857 10.1052H6.21429C6.12904 10.1052 6.04728 10.1385 5.987 10.1977C5.92672 10.257 5.89286 10.3373 5.89286 10.421V15.7895C5.89286 15.8732 5.92672 15.9535 5.987 16.0127C6.04728 16.072 6.12904 16.1052 6.21429 16.1052H7.55529C7.68196 16.105 7.80742 16.1293 7.92444 16.177C8.04146 16.2246 8.14771 16.2946 8.23704 16.3828L9.78889 17.9075C9.84916 17.9667 9.9309 18 10.0161 18H16.8214C16.9067 18 16.9884 17.9667 17.0487 17.9075C17.109 17.8483 17.1429 17.7679 17.1429 17.6842V11.0526C17.1429 10.9689 17.109 10.8885 17.0487 10.8293C16.9884 10.7701 16.9067 10.7368 16.8214 10.7368Z" fill="#B1C0D4"/>
    <path d="M10.7143 7.26313H12.6429V8.2105H10.7143V7.26313Z" fill="#B1C0D4"/>
    <path d="M14.8929 5.99998H8.46429C8.37904 5.99998 8.29728 6.03325 8.237 6.09247C8.17672 6.15169 8.14286 6.23201 8.14286 6.31577C8.14286 6.39952 8.17672 6.47984 8.237 6.53906C8.29728 6.59829 8.37904 6.63156 8.46429 6.63156H14.8929C14.9781 6.63156 15.0599 6.59829 15.1201 6.53906C15.1804 6.47984 15.2143 6.39952 15.2143 6.31577C15.2143 6.23201 15.1804 6.15169 15.1201 6.09247C15.0599 6.03325 14.9781 5.99998 14.8929 5.99998Z" fill="#B1C0D4"/>
</svg>
