<svg width="18" height="18" viewBox="0 0 18 18" fill="none" xmlns="http://www.w3.org/2000/svg">
    <path d="M6.92294 0.692307V3C6.92294 3.18362 6.85 3.3597 6.72017 3.48953C6.59034 3.61937 6.41425 3.6923 6.23064 3.6923C6.04702 3.6923 5.87093 3.61937 5.7411 3.48953C5.61127 3.3597 5.53833 3.18362 5.53833 3V0.692307C5.53833 0.508698 5.61127 0.332604 5.7411 0.20277C5.87093 0.0729361 6.04702 0 6.23064 0C6.41425 0 6.59034 0.0729361 6.72017 0.20277C6.85 0.332604 6.92294 0.508698 6.92294 0.692307Z" fill="#B1C0D5"/>
    <path d="M17.6862 3.5077C17.6431 2.91325 17.3868 2.35434 16.9646 1.93375C16.5423 1.51316 15.9823 1.25916 15.3877 1.21847C14.7877 1.17231 14.1046 1.12616 13.3846 1.08924V3C13.3846 3.42843 13.2144 3.83931 12.9115 4.14225C12.6085 4.44519 12.1977 4.61539 11.7692 4.61539C11.3408 4.61539 10.93 4.44519 10.627 4.14225C10.3241 3.83931 10.1539 3.42843 10.1539 3V0.92308H7.84611V3C7.84611 3.42843 7.67592 3.83931 7.37302 4.14225C7.07008 4.44519 6.6592 4.61539 6.23077 4.61539C5.80235 4.61539 5.39146 4.44519 5.08852 4.14225C4.78558 3.83931 4.61539 3.42843 4.61539 3V1.08924C3.89539 1.08924 3.21231 1.17231 2.60308 1.21847C2.00912 1.26104 1.45025 1.51564 1.02834 1.93586C0.606429 2.35608 0.349578 2.91393 0.304614 3.5077C0.166158 5.21539 0 7.63389 0 9.46152C0 11.2892 0.166158 13.7169 0.304614 15.4247C0.349821 16.0174 0.607005 16.5741 1.0291 16.9928C1.45118 17.4115 2.00993 17.6642 2.60308 17.7046C4.44923 17.843 7.05231 18 9 18C10.9477 18 13.5416 17.843 15.3877 17.7046C15.9815 17.6661 16.5413 17.414 16.9638 16.995C17.3863 16.5758 17.6428 16.0181 17.6862 15.4247C17.8339 13.7169 18 11.2984 18 9.46152C18 7.62463 17.8339 5.21539 17.6862 3.5077ZM5.3077 12.7384C5.06288 12.7384 4.82809 12.6412 4.65498 12.4681C4.48186 12.295 4.38462 12.0602 4.38462 11.8154C4.38462 11.5706 4.48186 11.3358 4.65498 11.1627C4.82809 10.9895 5.06288 10.8923 5.3077 10.8923C5.55251 10.8923 5.7873 10.9895 5.9604 11.1627C6.13352 11.3358 6.23077 11.5706 6.23077 11.8154C6.23077 12.0602 6.13352 12.295 5.9604 12.4681C5.7873 12.6412 5.55251 12.7384 5.3077 12.7384ZM5.3077 9.04618C5.06288 9.04618 4.82809 8.94888 4.65498 8.77582C4.48186 8.60265 4.38462 8.36794 4.38462 8.12305C4.38462 7.87825 4.48186 7.64344 4.65498 7.47037C4.82809 7.2973 5.06288 7.20001 5.3077 7.20001C5.55251 7.20001 5.7873 7.2973 5.9604 7.47037C6.13352 7.64344 6.23077 7.87825 6.23077 8.12305C6.23077 8.36794 6.13352 8.60265 5.9604 8.77582C5.7873 8.94888 5.55251 9.04618 5.3077 9.04618ZM9 12.7384C8.7552 12.7384 8.52039 12.6412 8.34732 12.4681C8.17416 12.295 8.07696 12.0602 8.07696 11.8154C8.07696 11.5706 8.17416 11.3358 8.34732 11.1627C8.52039 10.9895 8.7552 10.8923 9 10.8923C9.2448 10.8923 9.47961 10.9895 9.65268 11.1627C9.82584 11.3358 9.92304 11.5706 9.92304 11.8154C9.92304 12.0602 9.82584 12.295 9.65268 12.4681C9.47961 12.6412 9.2448 12.7384 9 12.7384ZM9 9.04618C8.7552 9.04618 8.52039 8.94888 8.34732 8.77582C8.17416 8.60265 8.07696 8.36794 8.07696 8.12305C8.07696 7.87825 8.17416 7.64344 8.34732 7.47037C8.52039 7.2973 8.7552 7.20001 9 7.20001C9.2448 7.20001 9.47961 7.2973 9.65268 7.47037C9.82584 7.64344 9.92304 7.87825 9.92304 8.12305C9.92304 8.36794 9.82584 8.60265 9.65268 8.77582C9.47961 8.94888 9.2448 9.04618 9 9.04618ZM12.6923 9.04618C12.4474 9.04618 12.2127 8.94888 12.0396 8.77582C11.8665 8.60265 11.7692 8.36794 11.7692 8.12305C11.7692 7.87825 11.8665 7.64344 12.0396 7.47037C12.2127 7.2973 12.4474 7.20001 12.6923 7.20001C12.9371 7.20001 13.172 7.2973 13.345 7.47037C13.5181 7.64344 13.6154 7.87825 13.6154 8.12305C13.6154 8.36794 13.5181 8.60265 13.345 8.77582C13.172 8.94888 12.9371 9.04618 12.6923 9.04618Z" fill="#B1C0D5"/>
    <path d="M12.4617 0.692307V3C12.4617 3.18362 12.3887 3.3597 12.2589 3.48953C12.129 3.61937 11.9529 3.6923 11.7693 3.6923C11.5857 3.6923 11.4097 3.61937 11.2798 3.48953C11.1499 3.3597 11.077 3.18362 11.077 3V0.692307C11.077 0.508698 11.1499 0.332604 11.2798 0.20277C11.4097 0.0729361 11.5857 0 11.7693 0C11.9529 0 12.129 0.0729361 12.2589 0.20277C12.3887 0.332604 12.4617 0.508698 12.4617 0.692307Z" fill="#B1C0D5"/>
</svg>
