<svg width="282" height="282" viewBox="0 0 282 282" fill="none" xmlns="http://www.w3.org/2000/svg">
    <path d="M40.9268 184.316L93.3075 219.179L122.861 221.432L124.48 239.874L188.022 282L265.92 131.6L40.9268 184.316Z" fill="#DAE4F1" fill-opacity="0.3"/>
    <path d="M69.5762 112.358L85.0676 164.863L282 0L69.5762 112.358Z" fill="url(#paint0_linear_252_3983)"/>
    <path d="M281.998 0L69.5747 112.358L0 66.0631L281.998 0Z" fill="url(#paint1_linear_252_3983)"/>
    <path d="M97.2377 130.758L85.0674 164.863L282 0L97.2377 130.758Z" fill="url(#paint2_linear_252_3983)"/>
    <path d="M282 0L97.2383 130.758L184.364 188.505L282 0Z" fill="url(#paint3_linear_252_3983)"/>
    <defs>
        <linearGradient id="paint0_linear_252_3983" x1="66.4724" y1="96.4741" x2="289.415" y2="67.2448" gradientUnits="userSpaceOnUse">
            <stop stop-color="#A8D5FB"/>
            <stop offset="1" stop-color="#B9D8FD"/>
        </linearGradient>
        <linearGradient id="paint1_linear_252_3983" x1="0.617554" y1="77.9124" x2="285.908" y2="40.5089" gradientUnits="userSpaceOnUse">
            <stop stop-color="#BBDEFB"/>
            <stop offset="1" stop-color="#F2F5FF"/>
        </linearGradient>
        <linearGradient id="paint2_linear_252_3983" x1="74.9624" y1="95.3575" x2="289.414" y2="67.2414" gradientUnits="userSpaceOnUse">
            <stop stop-color="#7FB5E3"/>
            <stop offset="1" stop-color="#E0E7FF"/>
        </linearGradient>
        <linearGradient id="paint3_linear_252_3983" x1="93.6357" y1="111.198" x2="291.772" y2="85.2214" gradientUnits="userSpaceOnUse">
            <stop stop-color="#BBDEFB"/>
            <stop offset="1" stop-color="#F2F5FF"/>
        </linearGradient>
    </defs>
</svg>
