<svg width="114" height="40" viewBox="0 0 114 40" fill="none" xmlns="http://www.w3.org/2000/svg">
    <path d="M66.9996 20.1543V11.3857H66V21.1571H72.2416V20.1543H66.9996Z" fill="#479CFF"/>
    <path d="M73.5036 17.66H79.4283C79.4527 17.5314 79.4527 17.4286 79.4527 17.3C79.4527 14.8829 78.1117 13.3143 76.0393 13.3143C73.9912 13.3143 72.504 14.96 72.504 17.3C72.504 19.5886 73.845 21.2857 76.2099 21.2857C77.6484 21.2857 78.6968 20.5914 79.2576 19.8714L78.5506 19.2286C78.0873 19.8971 77.2827 20.36 76.1856 20.36C74.6252 20.36 73.6255 19.3314 73.5036 17.66ZM76.0393 14.2143C77.4046 14.2143 78.3067 15.1914 78.453 16.8114H73.5036C73.6743 15.2429 74.6495 14.2143 76.0393 14.2143Z" fill="#479CFF"/>
    <path d="M86.6149 20.2571C86.2736 20.2571 86.1273 20.1029 86.1273 19.7171V15.8086C86.1273 14.24 85.1033 13.3143 83.4454 13.3143C82.2263 13.3143 81.1779 13.8029 80.3977 14.7029L81.056 15.3714C81.6655 14.6257 82.4945 14.2143 83.421 14.2143C84.4694 14.2143 85.1764 14.7543 85.1764 15.5514C85.1764 16.2714 84.4694 16.4 83.3235 16.6314C81.9093 16.8886 80.2514 17.2486 80.2514 19.1C80.2514 20.4114 81.1779 21.2857 82.592 21.2857C83.7379 21.2857 84.762 20.72 85.274 19.8971C85.3227 20.8486 85.6641 21.2086 86.5418 21.2086C86.6637 21.2086 86.8588 21.1829 86.8831 21.1571V20.2571H86.6149ZM82.6652 20.3857C81.763 20.3857 81.2267 19.9229 81.2267 19.0743C81.2267 17.8657 82.3482 17.6343 83.4454 17.4286C84.2499 17.3 84.8351 17.1714 85.2008 16.8629V18.1743C85.2008 19.4086 84.0549 20.3857 82.6652 20.3857Z" fill="#479CFF"/>
    <path d="M90.4613 21.2857C92.1437 21.2857 93.2652 20.3857 93.2652 19.0486C93.2652 17.9429 92.5581 17.3257 90.6564 16.7343C89.1935 16.2971 88.779 15.9886 88.779 15.3714C88.779 14.6771 89.4617 14.24 90.4613 14.24C91.1928 14.24 91.9242 14.5229 92.485 15.0886L93.0945 14.2914C92.3631 13.6486 91.461 13.3143 90.4857 13.3143C88.9497 13.3143 87.8282 14.1886 87.8282 15.4229C87.8282 16.5286 88.4865 17.1457 90.3638 17.6857C91.8267 18.1229 92.3143 18.4829 92.3143 19.1514C92.3143 19.8971 91.6073 20.36 90.4613 20.36C89.5105 20.36 88.7059 20 88.0964 19.3314L87.4868 20.0514C88.2426 20.8486 89.291 21.2857 90.4613 21.2857Z" fill="#479CFF"/>
    <path d="M94.8685 12.1829H95.9901V11H94.8685V12.1829ZM94.966 21.1571H95.9413V13.4429H94.966V21.1571Z" fill="#479CFF"/>
    <path d="M101.958 13.3143C100.787 13.3143 99.8121 13.88 99.2757 14.78L99.1782 13.4429H98.3736V21.1571H99.3488V16.6571C99.3488 15.2943 100.397 14.2143 101.714 14.2143C102.933 14.2143 103.713 15.0629 103.713 16.6829V21.1571H104.688V16.4C104.688 14.4714 103.567 13.3143 101.958 13.3143Z" fill="#479CFF"/>
    <path d="M112.314 13.4429L112.216 14.7029C111.656 13.8286 110.729 13.3143 109.608 13.3143C107.681 13.3143 106.316 14.8829 106.316 17.1457C106.316 19.4086 107.633 20.9514 109.608 20.9514C110.705 20.9514 111.607 20.4371 112.192 19.5886V20.4371C112.192 21.9286 111.436 22.9314 109.778 22.9314C108.779 22.9314 108.096 22.6486 107.511 21.9543L106.901 22.6486C107.56 23.42 108.535 23.8571 109.778 23.8571C111.826 23.8571 113.118 22.4686 113.118 20.4629L113.143 13.4429H112.314ZM109.778 20.0771C108.291 20.0771 107.316 18.8943 107.316 17.1457C107.316 15.3971 108.291 14.2143 109.778 14.2143C111.265 14.2143 112.241 15.3714 112.241 17.1457C112.241 18.8943 111.265 20.0771 109.778 20.0771Z" fill="#479CFF"/>
    <path d="M75.7881 25.5713H74.1855L70.9064 33.6774L67.6272 25.5713H66V34.8774H66.9862V26.6488L70.3393 34.8774H71.4241L74.8019 26.5999V34.8774H75.7881V25.5713Z" fill="#479CFF"/>
    <path d="M81.4282 34.9999C83.5731 34.9999 85.0525 33.4325 85.0525 31.2039C85.0525 28.9264 83.6225 27.408 81.4282 27.408C79.2832 27.408 77.8039 28.9754 77.8039 31.2039C77.8039 33.4815 79.2339 34.9999 81.4282 34.9999ZM81.4282 34.1427C79.8502 34.1427 78.8147 32.9917 78.8147 31.2039C78.8147 29.4407 79.8502 28.2652 81.4282 28.2652C83.0061 28.2652 84.0416 29.4162 84.0416 31.2039C84.0416 32.9672 83.0061 34.1427 81.4282 34.1427Z" fill="#479CFF"/>
    <path d="M90.52 28.3876V27.5305H88.1038V25.5713H87.2655L87.1176 27.5305H85.6629V28.3876H87.1176V33.0897C87.1176 34.3141 87.8079 34.9999 89.1146 34.9999C89.5584 34.9999 90.0269 34.9509 90.52 34.8284V33.9223C90.0022 34.0692 89.6324 34.0937 89.2379 34.0937C88.4489 34.0937 88.1038 33.7999 88.1038 32.9672V28.3876H90.52Z" fill="#479CFF"/>
    <path d="M94.9766 34.9999C97.1216 34.9999 98.6009 33.4325 98.6009 31.2039C98.6009 28.9264 97.1709 27.408 94.9766 27.408C92.8316 27.408 91.3523 28.9754 91.3523 31.2039C91.3523 33.4815 92.7823 34.9999 94.9766 34.9999ZM94.9766 34.1427C93.3987 34.1427 92.3632 32.9917 92.3632 31.2039C92.3632 29.4407 93.3987 28.2652 94.9766 28.2652C96.5545 28.2652 97.59 29.4162 97.59 31.2039C97.59 32.9672 96.5545 34.1427 94.9766 34.1427Z" fill="#479CFF"/>
    <path d="M103.994 27.408C102.811 27.408 101.825 27.9468 101.282 28.7795L101.184 27.5305H100.37V34.8774H101.356V30.6652C101.356 29.3182 102.367 28.3631 103.723 28.3631C103.945 28.3631 104.241 28.3876 104.488 28.4121V27.457C104.315 27.4325 104.142 27.408 103.994 27.408Z" fill="#479CFF"/>
    <path d="M107.736 34.9999C109.437 34.9999 110.571 34.1427 110.571 32.8692C110.571 31.8162 109.856 31.2284 107.933 30.6652C106.454 30.2488 106.035 29.955 106.035 29.3672C106.035 28.706 106.725 28.2897 107.736 28.2897C108.476 28.2897 109.215 28.559 109.782 29.0978L110.399 28.3386C109.659 27.7264 108.747 27.408 107.761 27.408C106.207 27.408 105.073 28.2407 105.073 29.4162C105.073 30.4692 105.739 31.057 107.637 31.5713C109.117 31.9876 109.61 32.3305 109.61 32.9672C109.61 33.6774 108.895 34.1182 107.736 34.1182C106.775 34.1182 105.961 33.7754 105.345 33.1386L104.728 33.8243C105.492 34.5835 106.553 34.9999 107.736 34.9999Z" fill="#479CFF"/>
    <path d="M0 5H3.78299V31.9208H21.4663V35H0V5ZM5.71847 5H9.45748V27.0821H21.4663V30.2231L5.71847 30.1613V5Z" fill="#479CFF"/>
    <path d="M27.5794 0.223022L35.3329 2.83558L40.617 16.2207L52.8824 8.74895L60.5943 11.3475L51.0149 39.7769L47.4299 38.569L56.0261 13.0575L53.3999 12.1726L39.0158 20.9728L32.8073 5.23386L30.1811 4.34896L21.5 30.223L18 28.6525L27.5794 0.223022ZM31.2568 7.218L31.6319 7.34441L38.0334 23.6126L38.2419 23.6828L53.0583 14.5641L53.4751 14.7045L45.6375 37.965L42.0108 36.743L47.0393 21.8196L37.1988 27.8803L36.3234 27.5854L31.9768 16.7907L26.9624 31.6724L23.4191 30.4785L31.2568 7.218Z" fill="#479CFF"/>
</svg>
