<svg width="33" height="32" viewBox="0 0 33 32" fill="none" xmlns="http://www.w3.org/2000/svg">
    <path d="M16.4974 32C25.3344 32 32.4982 24.8366 32.4982 16C32.4982 7.16344 25.3344 0 16.4974 0C7.66038 0 0.496582 7.16344 0.496582 16C0.496582 24.8366 7.66038 32 16.4974 32Z" fill="#569FFF"/>
    <g clip-path="url(#clip0_192_2344)">
        <path d="M19.1985 10.4693H20.7191V7.8209C20.4568 7.78481 19.5546 7.70361 18.5038 7.70361C16.3114 7.70361 14.8095 9.08264 14.8095 11.6172V13.9498H12.3901V16.9105H14.8095V24.3602H17.7758V16.9112H20.0973L20.4658 13.9505H17.7751V11.9108C17.7758 11.0551 18.0062 10.4693 19.1985 10.4693Z" fill="white"/>
    </g>
    <defs>
        <clipPath id="clip0_192_2344">
            <rect width="16.6566" height="16.6566" fill="white" transform="translate(8.2002 7.70361)"/>
        </clipPath>
    </defs>
</svg>
