<svg width="33" height="32" viewBox="0 0 33 32" fill="none" xmlns="http://www.w3.org/2000/svg">
    <path d="M16.5037 32C25.3407 32 32.5045 24.8366 32.5045 16C32.5045 7.16344 25.3407 0 16.5037 0C7.66673 0 0.50293 7.16344 0.50293 16C0.50293 24.8366 7.66673 32 16.5037 32Z" fill="url(#paint0_linear_192_2348)"/>
    <g clip-path="url(#clip0_192_2348)">
        <path d="M19.6579 7.70361H13.4117C10.5374 7.70361 8.20654 10.0345 8.20654 12.9088V19.155C8.20654 22.0293 10.5374 24.3602 13.4117 24.3602H19.6579C22.5322 24.3602 24.8631 22.0293 24.8631 19.155V12.9088C24.8631 10.0345 22.5322 7.70361 19.6579 7.70361ZM23.3016 19.155C23.3016 21.1642 21.6671 22.7986 19.6579 22.7986H13.4117C11.4025 22.7986 9.7681 21.1642 9.7681 19.155V12.9088C9.7681 10.8996 11.4025 9.26517 13.4117 9.26517H19.6579C21.6671 9.26517 23.3016 10.8996 23.3016 12.9088V19.155Z" fill="white"/>
        <path d="M16.5348 11.8677C14.2351 11.8677 12.3706 13.7322 12.3706 16.0318C12.3706 18.3315 14.2351 20.196 16.5348 20.196C18.8344 20.196 20.6989 18.3315 20.6989 16.0318C20.6989 13.7322 18.8344 11.8677 16.5348 11.8677ZM16.5348 18.6344C15.1002 18.6344 13.9322 17.4664 13.9322 16.0318C13.9322 14.5962 15.1002 13.4292 16.5348 13.4292C17.9693 13.4292 19.1373 14.5962 19.1373 16.0318C19.1373 17.4664 17.9693 18.6344 16.5348 18.6344Z" fill="white"/>
        <path d="M21.0114 12.1102C21.3179 12.1102 21.5663 11.8618 21.5663 11.5554C21.5663 11.2489 21.3179 11.0005 21.0114 11.0005C20.705 11.0005 20.4565 11.2489 20.4565 11.5554C20.4565 11.8618 20.705 12.1102 21.0114 12.1102Z" fill="white"/>
    </g>
    <defs>
        <linearGradient id="paint0_linear_192_2348" x1="7.06146" y1="29.4093" x2="32.4628" y2="-4.7037e-07" gradientUnits="userSpaceOnUse">
            <stop stop-color="#FBBF5F"/>
            <stop offset="0.252548" stop-color="#ED6744"/>
            <stop offset="0.479167" stop-color="#E03472"/>
            <stop offset="0.744792" stop-color="#7B39B4"/>
            <stop offset="0.994792" stop-color="#5855CE"/>
        </linearGradient>
        <clipPath id="clip0_192_2348">
            <rect width="16.6566" height="16.6566" fill="white" transform="translate(8.20654 7.70361)"/>
        </clipPath>
    </defs>
</svg>
