<svg width="33" height="32" viewBox="0 0 33 32" fill="none" xmlns="http://www.w3.org/2000/svg">
    <path d="M16.5023 32C25.3393 32 32.5031 24.8366 32.5031 16C32.5031 7.16344 25.3393 0 16.5023 0C7.66527 0 0.501465 7.16344 0.501465 16C0.501465 24.8366 7.66527 32 16.5023 32Z" fill="#6AA8F5"/>
    <path d="M18.1208 13.9599C17.7535 14.2035 17.3899 14.4508 17.0298 14.7017C16.3534 15.1708 15.6698 15.6617 14.9716 16.1126C14.3352 16.5272 13.7351 16.9963 13.1024 17.4108C12.4187 17.8581 11.575 18.3308 10.7313 18.0799C9.53492 17.7272 8.60397 17.5781 7.72756 17.2363C6.85115 16.8908 7.1639 16.2981 7.82211 15.9854C8.48033 15.6726 15.7389 12.5417 15.7389 12.5417L20.2773 10.6654C20.67 10.5126 21.0628 10.3563 21.4592 10.1999C21.7246 10.0944 21.9828 9.97808 22.2628 9.91263C22.5792 9.8399 22.9538 9.80717 23.2411 9.99263C23.6484 10.2544 23.6484 10.8326 23.5974 11.2581C23.4956 12.0908 23.372 12.9199 23.2483 13.749C23.0847 14.8435 22.9174 15.9417 22.7465 17.0363C22.5938 18.0072 22.441 18.9781 22.2883 19.9526C22.1756 20.6544 22.1246 21.3781 21.9755 22.069C21.9065 22.3817 21.8046 22.6981 21.6264 22.9672C20.8773 24.0944 19.4736 23.0872 18.7063 22.5235C18.0735 22.0581 15.3934 20.3272 14.7315 19.8617C14.4952 19.6944 14.3097 19.4072 14.3133 19.1126C14.317 18.709 14.6043 18.4035 14.8843 18.1454C15.2261 17.829 15.5825 17.5235 15.9207 17.1999C16.4298 16.7199 16.9426 16.2363 17.4517 15.7563C17.8917 15.3417 18.3281 14.9308 18.7681 14.5163C19.0118 14.2872 19.2409 14.0508 19.4554 13.7963C19.5209 13.7199 19.5645 13.6581 19.5718 13.5563C19.5754 13.4835 19.5609 13.4144 19.5063 13.3635C19.3063 13.1744 19.0554 13.3635 18.8736 13.4799C18.6154 13.6326 18.3681 13.7963 18.1208 13.9599Z" fill="white"/>
</svg>
