<svg width="33" height="32" viewBox="0 0 33 32" fill="none" xmlns="http://www.w3.org/2000/svg">
    <path d="M16.5008 32C25.3378 32 32.5016 24.8366 32.5016 16C32.5016 7.16344 25.3378 0 16.5008 0C7.6638 0 0.5 7.16344 0.5 16C0.5 24.8366 7.6638 32 16.5008 32Z" fill="#947AE8"/>
    <path d="M17.0496 12.3857C16.9842 12.3857 16.9151 12.3894 16.8496 12.393L17.0278 13.0148C17.0351 13.0148 17.0423 13.0148 17.0496 13.0148C17.9769 13.0148 18.7333 13.753 18.7479 14.6694L19.3806 14.8621C19.3843 14.8076 19.3879 14.753 19.3879 14.6985C19.3843 13.4221 18.337 12.3857 17.0496 12.3857Z" fill="white"/>
    <path d="M17.0497 11.0547C16.857 11.0547 16.6679 11.0692 16.4824 11.0983L16.657 11.7092C16.7843 11.6911 16.9188 11.6838 17.0497 11.6838C18.7298 11.6838 20.0935 13.0329 20.0935 14.6983C20.0935 14.8256 20.0862 14.9529 20.0717 15.0729L20.6863 15.262C20.7154 15.0765 20.7299 14.891 20.7299 14.6983C20.7299 12.6874 19.0789 11.0547 17.0497 11.0547Z" fill="white"/>
    <path d="M20.5371 11.1386C19.5007 10.1132 18.1224 9.5459 16.6605 9.5459C16.4569 9.5459 16.2532 9.55681 16.0532 9.57863L16.2278 10.1968C16.3696 10.1859 16.5151 10.1786 16.6605 10.1786C19.337 10.1786 21.508 12.3277 21.508 14.9823C21.508 15.1604 21.4971 15.335 21.479 15.5095L22.0972 15.6986C22.1299 15.4623 22.1444 15.2223 22.1444 14.9823C22.1444 13.5277 21.5735 12.1641 20.5371 11.1386Z" fill="white"/>
    <path d="M26.3412 10.4839C25.9485 9.56389 25.3848 8.73844 24.6684 8.02935C23.952 7.32025 23.1193 6.76025 22.1919 6.37116C21.621 6.13116 21.0282 5.96025 20.4209 5.86207C20.4064 5.85843 20.3918 5.85843 20.3773 5.8548C19.9773 5.79298 19.57 5.76025 19.1591 5.76025H13.8497C12.7987 5.76025 11.7805 5.96389 10.8168 6.37116C9.88951 6.76025 9.05674 7.32025 8.34034 8.02935C7.62394 8.73844 7.06028 9.56389 6.66753 10.4839C6.2566 11.4403 6.04932 12.4512 6.04932 13.4912V17.033C6.04932 18.6075 6.52934 20.1239 7.43847 21.4221C8.15851 22.4512 9.10402 23.2839 10.2059 23.8621C10.4314 23.9821 10.6641 24.0875 10.9005 24.1857V24.2003C10.9587 24.2257 11.0168 24.2475 11.075 24.273L11.0423 26.8148V26.8221V26.8293C11.0459 27.193 11.2532 27.5093 11.5587 27.6657C11.6387 27.6875 11.7223 27.6984 11.8096 27.6984C12.0823 27.6984 12.3405 27.5821 12.5224 27.3821L14.9079 24.7639H19.1591C20.21 24.7639 21.2283 24.5603 22.1919 24.153C23.1193 23.7639 23.952 23.2039 24.6684 22.4948C25.3848 21.7857 25.9485 20.9603 26.3412 20.0403C26.7522 19.0839 26.9594 18.073 26.9594 17.033V13.4912C26.9558 12.4512 26.7485 11.4403 26.3412 10.4839ZM11.8023 26.8875C11.726 26.8875 11.6532 26.8293 11.6532 26.7384L11.7041 24.4584L11.7405 22.8293V22.8112C11.6823 22.7893 11.6241 22.7675 11.566 22.7457C11.3659 22.6657 11.1732 22.5784 10.9841 22.4803C10.9659 22.473 10.9514 22.4621 10.9332 22.4548C8.97674 21.4148 7.63848 19.3675 7.63848 17.0257V13.4839C7.63848 10.1021 10.4314 7.33116 13.8497 7.33116H19.1591C19.4936 7.33116 19.8173 7.35661 20.1373 7.40752C23.0902 7.87661 25.3666 10.4293 25.3666 13.4839V17.0257C25.3666 20.4075 22.5738 23.1784 19.1554 23.1784H15.2425L13.8061 24.7566L11.9114 26.8366C11.8969 26.8548 11.8787 26.8657 11.8605 26.873C11.8423 26.8839 11.8241 26.8875 11.8023 26.8875Z" fill="white"/>
    <path d="M19.0501 17.1751C18.4537 17.1278 17.9991 17.5532 17.7518 18.0987C17.5918 18.0951 14.1371 17.9714 13.7007 14.106C14.2644 13.8805 14.7117 13.4369 14.6789 12.8405C14.6426 12.1751 13.588 10.2114 12.5552 10.2114C11.566 10.2114 10.646 11.2842 10.646 12.1751C10.646 12.2405 10.6533 12.306 10.6678 12.3751C10.6533 12.3823 10.646 12.386 10.646 12.386C10.646 12.386 11.3188 17.8587 18.89 21.0078C18.9955 21.0514 19.2173 21.1096 19.3337 21.1387C19.3592 21.146 19.3882 21.1532 19.4137 21.1605C19.4828 21.1751 19.5483 21.1823 19.6137 21.186C20.1374 21.2005 20.7338 20.9023 21.1447 20.4587C21.4356 20.1423 21.632 19.7532 21.6429 19.346C21.672 18.3242 19.7192 17.226 19.0501 17.1751Z" fill="white"/>
</svg>
