<svg width="33" height="32" viewBox="0 0 33 32" fill="none" xmlns="http://www.w3.org/2000/svg">
    <path d="M16.4993 32C25.3363 32 32.5001 24.8366 32.5001 16C32.5001 7.16344 25.3363 0 16.4993 0C7.66234 0 0.498535 7.16344 0.498535 16C0.498535 24.8366 7.66234 32 16.4993 32Z" fill="#72D885"/>
    <path d="M14.3318 11.6512C14.3682 11.7312 14.3973 11.8112 14.4264 11.8912C14.4809 12.0184 14.5318 12.1494 14.5864 12.2766C14.6482 12.4221 14.7064 12.5712 14.7682 12.7166C14.8191 12.8439 14.8737 12.9712 14.9246 13.0984C14.9537 13.1675 14.9827 13.2366 15.0118 13.3057C15.0118 13.3093 15.0155 13.313 15.0155 13.3166L15.1064 13.513C15.1755 13.6621 15.1537 13.8512 15.07 13.9893C15.0446 14.0439 15.0046 14.0948 14.9718 14.1421C14.9573 14.1639 14.9427 14.1821 14.9282 14.2039C14.8882 14.2621 14.8446 14.3166 14.8009 14.3712C14.6918 14.5057 14.5718 14.6366 14.4482 14.7603C14.4009 14.8075 14.3573 14.8875 14.3427 14.9566C14.3173 15.0875 14.5355 15.3966 14.6664 15.5966C14.7973 15.7966 14.9427 15.9893 15.0955 16.1712C15.2446 16.3457 15.401 16.5166 15.561 16.6766C15.6337 16.7494 15.7101 16.8184 15.7864 16.8875C15.8955 16.9821 16.0046 17.0693 16.121 17.1566C16.2664 17.2621 16.4119 17.3639 16.5646 17.4584C16.7465 17.5712 16.9319 17.6766 17.1247 17.7748C17.3247 17.8766 17.532 17.9712 17.7392 18.0548C17.7392 18.0548 17.9611 18.1603 18.172 17.9384L18.9211 16.9821C18.9211 16.9821 19.0266 16.7966 19.2739 16.8512C19.5321 16.9057 21.2812 17.7821 21.2812 17.7821C21.3431 17.8112 21.4013 17.8293 21.4522 17.8803C21.5249 17.9493 21.5431 18.033 21.5394 18.1494C21.5358 18.2112 21.5358 18.273 21.5285 18.3348C21.4994 18.6475 21.4558 18.9784 21.2776 19.2475C21.2412 19.3021 21.2012 19.3566 21.1576 19.4075C20.9758 19.6257 20.7358 19.793 20.4921 19.9348C20.143 20.1384 19.7466 20.2512 19.343 20.2548C19.1902 20.2548 19.0411 20.2621 18.8884 20.2439C18.7902 20.233 18.692 20.2148 18.5975 20.1966C18.3029 20.1348 18.012 20.0475 17.7283 19.9457C17.332 19.8039 16.9501 19.6366 16.5719 19.4548C14.4882 18.4475 12.9899 16.2294 12.9899 16.2294C12.9572 16.1821 12.9208 16.1348 12.8845 16.0875C12.7354 15.8766 12.5972 15.6584 12.4699 15.433C12.4153 15.3384 12.3644 15.2439 12.3172 15.1457C12.2081 14.9275 12.1099 14.7057 12.0371 14.4766C12.0117 14.4003 11.9899 14.3275 11.9717 14.2475C11.9535 14.1748 11.939 14.1021 11.928 14.0257C11.808 13.3457 11.9862 12.7566 12.1426 12.3966C12.2408 12.1675 12.4081 11.9748 12.5572 11.7784C12.5608 11.7712 12.5681 11.7675 12.5717 11.7603C12.5717 11.7493 12.6117 11.713 12.619 11.7057C12.6372 11.6839 12.6554 11.6621 12.6772 11.6403C12.6881 11.6257 12.7026 11.6148 12.7172 11.6003C12.8481 11.4693 13.059 11.3494 13.2554 11.313H13.9391C13.9391 11.313 14.0882 11.3239 14.2154 11.4693C14.2627 11.513 14.2991 11.5784 14.3318 11.6512Z" fill="white"/>
    <path d="M26.0235 13.7821C25.8998 13.1712 25.7144 12.5712 25.4707 12.0002C25.2344 11.4366 24.9398 10.8948 24.5943 10.3893C24.2561 9.88752 23.867 9.4148 23.4379 8.98571C23.0088 8.55662 22.536 8.16752 22.0342 7.82934C21.5287 7.48752 20.9832 7.19297 20.4232 6.95297C19.8486 6.70934 19.2486 6.52388 18.6413 6.40025C18.0158 6.27298 17.3721 6.20752 16.7321 6.20752C16.0884 6.20752 15.4484 6.27298 14.8229 6.40025C14.212 6.52388 13.612 6.70934 13.041 6.95297C12.4774 7.18934 11.9355 7.48389 11.43 7.82934C10.9282 8.16752 10.4554 8.55662 10.0263 8.98571C9.59721 9.4148 9.2081 9.88752 8.8699 10.3893C8.52807 10.8948 8.2335 11.4402 7.99349 12.0002C7.74984 12.5748 7.56438 13.1748 7.44074 13.7821C7.31346 14.4075 7.248 15.0512 7.248 15.6912C7.248 16.3348 7.31346 16.9748 7.44074 17.6002C7.56438 18.2112 7.74984 18.8112 7.99349 19.3821C8.14623 19.7384 8.31715 20.0875 8.51352 20.4257L7.87348 22.6766L7.10254 25.3821L9.82268 24.6621L12.2119 24.0293C12.481 24.1748 12.7574 24.3093 13.041 24.4293C13.6156 24.673 14.2156 24.8584 14.8229 24.9821C15.4484 25.1093 16.0921 25.1748 16.7321 25.1748C17.3758 25.1748 18.0158 25.1093 18.6413 24.9821C19.2522 24.8584 19.8523 24.673 20.4232 24.4293C20.9869 24.193 21.5287 23.8984 22.0342 23.553C22.536 23.2148 23.0088 22.8257 23.4379 22.3966C23.867 21.9675 24.2561 21.4948 24.5943 20.993C24.9362 20.4875 25.2307 19.9421 25.4707 19.3821C25.7144 18.8075 25.8998 18.2075 26.0235 17.6002C26.1508 16.9748 26.2162 16.3312 26.2162 15.6912C26.2162 15.0475 26.1508 14.4075 26.0235 13.7821ZM16.7321 23.5748C16.0703 23.5748 15.4302 23.4948 14.8157 23.3421C13.9647 23.1312 13.1647 22.7784 12.4483 22.313L10.4882 22.833L9.41175 23.1166L9.70994 22.0693L10.2482 20.1784C9.79358 19.5239 9.4372 18.8003 9.19719 18.0221C8.96809 17.2839 8.84808 16.5021 8.84808 15.6912C8.84808 11.3384 12.3792 7.80752 16.7321 7.80752C21.0851 7.80752 24.6161 11.3384 24.6161 15.6912C24.6161 20.0439 21.0851 23.5748 16.7321 23.5748Z" fill="white"/>
</svg>
