<svg width="33" height="32" viewBox="0 0 33 32" fill="none" xmlns="http://www.w3.org/2000/svg">
    <path d="M16.4959 32C25.3329 32 32.4967 24.8366 32.4967 16C32.4967 7.16344 25.3329 0 16.4959 0C7.65892 0 0.495117 7.16344 0.495117 16C0.495117 24.8366 7.65892 32 16.4959 32Z" fill="#FF4B4B"/>
    <g clip-path="url(#clip0_192_2343)">
        <path d="M24.1474 11.4097C23.6956 10.606 23.2053 10.4581 22.2069 10.4019C21.2096 10.3343 18.7017 10.3062 16.5291 10.3062C14.3523 10.3062 11.8434 10.3343 10.8471 10.4009C9.85086 10.4581 9.35949 10.6049 8.90351 11.4097C8.43817 12.2123 8.19873 13.5948 8.19873 16.0287V16.0319V16.035V16.0371C8.19873 18.4606 8.43817 19.8535 8.90351 20.6478C9.35949 21.4515 9.84981 21.5972 10.8461 21.6649C11.8434 21.7232 14.3523 21.7576 16.5291 21.7576C18.7017 21.7576 21.2096 21.7232 22.208 21.6659C23.2063 21.5983 23.6966 21.4525 24.1485 20.6489C24.618 19.8545 24.8553 18.4616 24.8553 16.0381V16.0329V16.0298C24.8553 13.5948 24.618 12.2123 24.1474 11.4097ZM14.4449 19.155V12.9087L19.6501 16.0319L14.4449 19.155Z" fill="white"/>
    </g>
    <defs>
        <clipPath id="clip0_192_2343">
            <rect width="16.6566" height="16.6566" fill="white" transform="translate(8.19873 7.70361)"/>
        </clipPath>
    </defs>
</svg>
