<svg width="120" height="120" viewBox="0 0 120 120" fill="none" xmlns="http://www.w3.org/2000/svg">
    <g clip-path="url(#clip0_302_1014)">
        <path d="M100.409 40.2863C98.4504 38.3281 96.1838 36.7887 93.6781 35.6538C87.1107 32.6796 81.9474 27.3551 79.0451 20.7558C73.6739 8.54181 61.4728 0.0107913 47.2765 1.00009e-05C28.688 -0.0140525 13.2542 14.8038 12.5546 33.3792C12.2553 41.3297 14.6304 48.7123 18.8522 54.7001C24.214 62.3051 25.6071 71.9927 22.8415 80.8774C18.9125 93.5002 20.2824 105.463 27.7571 112.938C40.8558 126.037 67.7382 120.392 87.8004 100.33C107.862 80.2673 113.507 53.3852 100.409 40.2863Z" fill="url(#paint0_linear_302_1014)"/>
        <path opacity="0.1" d="M111.287 76.2569V69.5139C111.287 68.8668 110.763 68.342 110.115 68.342H105.438C105.058 66.9524 104.507 65.6343 103.81 64.4097L107.116 61.102C107.574 60.6442 107.574 59.9024 107.116 59.4449L102.348 54.677C101.891 54.2195 101.149 54.2193 100.691 54.6768L97.3833 57.9836C96.1587 57.2861 94.8406 56.7353 93.451 56.3549V51.6777C93.451 51.0306 92.9262 50.5059 92.2791 50.5059H85.5361C84.889 50.5059 84.3642 51.0306 84.3642 51.6777V56.3549C82.9746 56.7351 81.6565 57.2859 80.4319 57.9836L77.1239 54.6768C76.6662 54.2193 75.9244 54.2193 75.4669 54.677L70.699 59.4449C70.2415 59.9024 70.2413 60.6445 70.6988 61.102L74.0056 64.4097C73.3081 65.6343 72.7573 66.9527 72.3769 68.342H67.6997C67.0524 68.342 66.5278 68.8668 66.5278 69.5139V76.2569C66.5278 76.904 67.0524 77.4288 67.6997 77.4288H72.3769C72.757 78.8184 73.3078 80.1365 74.0056 81.3611L70.6988 84.6688C70.2413 85.1266 70.2413 85.8684 70.699 86.3261L75.4669 91.094C75.9244 91.5515 76.6664 91.5517 77.1239 91.0942L80.4319 87.7874C81.6565 88.4849 82.9749 89.0357 84.3642 89.4161V94.0933C84.3642 94.7404 84.889 95.2652 85.5361 95.2652H92.2791C92.9262 95.2652 93.451 94.7404 93.451 94.0933V89.4161C94.8406 89.0359 96.1587 88.4852 97.3833 87.7874L100.691 91.0942C101.149 91.5517 101.891 91.5517 102.348 91.094L107.116 86.3261C107.574 85.8686 107.574 85.1266 107.116 84.6688L103.81 81.3611C104.507 80.1365 105.058 78.8181 105.438 77.4288H110.115C110.763 77.4288 111.287 76.904 111.287 76.2569ZM88.9076 81.6745C84.0535 81.6745 80.1185 77.7395 80.1185 72.8854C80.1185 68.0312 84.0535 64.0963 88.9076 64.0963C93.7617 64.0963 97.6967 68.0312 97.6967 72.8854C97.6967 77.7395 93.7617 81.6745 88.9076 81.6745Z" fill="#0000CC"/>
        <path opacity="0.1" d="M68.6293 101.025V96.3375C68.6293 95.6904 68.1048 95.1656 67.4574 95.1656H64.1031C63.8089 94.0903 63.3826 93.0703 62.8428 92.1225L65.2145 89.7502C65.672 89.2924 65.672 88.5506 65.2142 88.0931L61.8992 84.7784C61.4417 84.3209 60.6997 84.3206 60.2422 84.7781L57.8699 87.1498C56.9223 86.61 55.9021 86.1837 54.8267 85.8895V82.5352C54.8267 81.888 54.302 81.3633 53.6549 81.3633H48.9669C48.3198 81.3633 47.795 81.888 47.795 82.5352V85.8895C46.7197 86.1837 45.6997 86.61 44.7519 87.1498L42.3795 84.7781C41.9218 84.3206 41.18 84.3206 40.7225 84.7784L37.4078 88.0931C36.9503 88.5506 36.95 89.2927 37.4075 89.7502L39.7792 92.1225C39.2394 93.0701 38.8131 94.0903 38.5189 95.1656H35.1646C34.5172 95.1656 33.9927 95.6904 33.9927 96.3375V101.025C33.9927 101.673 34.5172 102.197 35.1646 102.197H38.5189C38.8131 103.273 39.2394 104.293 39.7792 105.24L37.4075 107.613C36.95 108.071 36.95 108.812 37.4078 109.27L40.7225 112.585C41.18 113.042 41.922 113.042 42.3795 112.585L44.7519 110.213C45.6995 110.753 46.7197 111.179 47.795 111.473V114.828C47.795 115.475 48.3198 116 48.9669 116H53.6549C54.302 116 54.8267 115.475 54.8267 114.828V111.473C55.9021 111.179 56.922 110.753 57.8699 110.213L60.2422 112.585C60.6999 113.042 61.4417 113.042 61.8992 112.585L65.2142 109.27C65.6717 108.812 65.672 108.07 65.2145 107.613L62.8428 105.24C63.3826 104.293 63.8089 103.273 64.1031 102.197H67.4574C68.1045 102.197 68.6293 101.673 68.6293 101.025ZM51.3109 105.692C47.4388 105.692 44.2998 102.553 44.2998 98.6813C44.2998 94.8091 47.4388 91.6702 51.3109 91.6702C55.183 91.6702 58.322 94.8091 58.322 98.6813C58.322 102.553 55.183 105.692 51.3109 105.692Z" fill="#0000CC"/>
        <path opacity="0.1" d="M68.5563 51.4811V41.676C68.5563 41.0289 68.0318 40.5041 67.3844 40.5041H60.7361C60.2278 38.6463 59.4914 36.8838 58.5586 35.2464L63.259 30.5444C63.7165 30.0866 63.7165 29.3449 63.2587 28.8874L56.3255 21.9541C55.868 21.4966 55.1259 21.4963 54.6684 21.9538L49.9664 26.6542C48.329 25.7217 46.5665 24.9852 44.7087 24.4766V17.8284C44.7087 17.1813 44.1839 16.6565 43.5368 16.6565H33.7317C33.0846 16.6565 32.5598 17.1813 32.5598 17.8284V24.4766C30.7019 24.985 28.9394 25.7214 27.3021 26.6542L22.6003 21.9538C22.1426 21.4963 21.4008 21.4963 20.943 21.9541L14.0097 28.8874C13.5522 29.3449 13.552 30.0869 14.0095 30.5444L18.7099 35.2464C17.7773 36.8838 17.0409 38.6463 16.5326 40.5041H9.88428C9.23717 40.5041 8.7124 41.0289 8.7124 41.676V51.4811C8.7124 52.1284 9.23717 52.653 9.88428 52.653H16.5328C17.0412 54.5109 17.7776 56.2734 18.7101 57.9107L14.0097 62.6127C13.5522 63.0705 13.5522 63.8123 14.01 64.2698L20.9433 71.2031C21.4008 71.6606 22.1428 71.6608 22.6005 71.2033L27.3023 66.5029C28.9397 67.4355 30.7022 68.1719 32.5601 68.6802V75.3285C32.5601 75.9759 33.0848 76.5004 33.7319 76.5004H43.537C44.1841 76.5004 44.7089 75.9759 44.7089 75.3285V68.6802C46.5668 68.1719 48.3293 67.4355 49.9666 66.5029L54.6687 71.2033C55.1264 71.6608 55.8682 71.6608 56.3257 71.2031L63.259 64.2698C63.7165 63.8123 63.7167 63.0702 63.2592 62.6127L58.5588 57.9107C59.4914 56.2734 60.2278 54.5109 60.7364 52.653H67.3847C68.0315 52.653 68.5563 52.1282 68.5563 51.4811ZM38.6344 59.8366C31.312 59.8366 25.3762 53.9008 25.3762 46.5784C25.3762 39.2561 31.312 33.3203 38.6344 33.3203C45.9567 33.3203 51.8925 39.2561 51.8925 46.5784C51.8925 53.9008 45.9567 59.8366 38.6344 59.8366Z" fill="#0000CC"/>
        <path d="M111.287 69.9287V63.1858C111.287 62.5387 110.763 62.0139 110.115 62.0139H105.438C105.058 60.6243 104.507 59.3062 103.81 58.0816L107.116 54.7736C107.574 54.3159 107.574 53.5741 107.116 53.1166L102.348 48.3487C101.891 47.8912 101.149 47.8909 100.691 48.3484L97.3833 51.6552C96.1587 50.9577 94.8406 50.4069 93.451 50.0266V45.3494C93.451 44.7023 92.9262 44.1775 92.2791 44.1775H85.5361C84.889 44.1775 84.3642 44.7023 84.3642 45.3494V50.0266C82.9746 50.4067 81.6565 50.9575 80.4319 51.6552L77.1239 48.3484C76.6662 47.8909 75.9244 47.8909 75.4669 48.3487L70.699 53.1166C70.2415 53.5741 70.2413 54.3161 70.6988 54.7736L74.0056 58.0816C73.3081 59.3062 72.7573 60.6245 72.3769 62.0139H67.6997C67.0524 62.0139 66.5278 62.5387 66.5278 63.1858V69.9287C66.5278 70.5758 67.0524 71.1006 67.6997 71.1006H72.3769C72.757 72.4902 73.3078 73.8083 74.0056 75.033L70.6988 78.3407C70.2413 78.7984 70.2413 79.5402 70.699 79.998L75.4669 84.7658C75.9244 85.2233 76.6664 85.2236 77.1239 84.7661L80.4319 81.4593C81.6565 82.1568 82.9749 82.7076 84.3642 83.088V87.7651C84.3642 88.4123 84.889 88.937 85.5361 88.937H92.2791C92.9262 88.937 93.451 88.4123 93.451 87.7651V83.088C94.8406 82.7078 96.1587 82.157 97.3833 81.4593L100.691 84.7661C101.149 85.2236 101.891 85.2236 102.348 84.7658L107.116 79.998C107.574 79.5405 107.574 78.7984 107.116 78.3407L103.81 75.033C104.507 73.8083 105.058 72.49 105.438 71.1006H110.115C110.763 71.1006 111.287 70.5758 111.287 69.9287ZM88.9076 75.3463C84.0535 75.3463 80.1185 71.4114 80.1185 66.5573C80.1185 61.7031 84.0535 57.7682 88.9076 57.7682C93.7617 57.7682 97.6967 61.7031 97.6967 66.5573C97.6967 71.4114 93.7617 75.3463 88.9076 75.3463Z" fill="#6583FE"/>
        <path d="M92.2791 90.1089H85.5361C84.2438 90.1089 83.1924 89.0575 83.1924 87.7652V83.9591C82.3186 83.6725 81.4664 83.3195 80.6445 82.9037L77.9524 85.5948C77.5097 86.0373 76.9214 86.2811 76.2954 86.2811H76.2952C75.6692 86.2811 75.0804 86.0371 74.6379 85.5941L69.8703 80.8265C69.4278 80.384 69.1838 79.7957 69.1838 79.1695C69.1838 78.5434 69.4275 77.9549 69.87 77.5124L72.5611 74.8204C72.1453 73.9984 71.7924 73.1463 71.5057 72.2727H67.6997C66.4074 72.2727 65.356 71.2213 65.356 69.929V63.186C65.356 61.8937 66.4074 60.8423 67.6997 60.8423H71.5057C71.7921 59.9685 72.1453 59.1163 72.5611 58.2944L69.87 55.6023C68.9567 54.689 68.9567 53.2021 69.87 52.288L74.6381 47.5202C75.552 46.6061 77.0388 46.6066 77.9524 47.5197L80.6445 50.211C81.4664 49.795 82.3186 49.442 83.1924 49.1554V45.3496C83.1924 44.0573 84.2438 43.0059 85.5361 43.0059H92.2791C93.5714 43.0059 94.6228 44.0573 94.6228 45.3496V49.1554C95.4966 49.442 96.3485 49.795 97.1707 50.211L99.8628 47.5197C100.777 46.6063 102.264 46.6066 103.177 47.5202L107.945 52.288C108.859 53.2019 108.859 54.6887 107.945 55.6023L105.254 58.2944C105.67 59.1163 106.023 59.9685 106.309 60.8423H110.115C111.408 60.8423 112.459 61.8937 112.459 63.186V69.929C112.459 71.2213 111.408 72.2727 110.115 72.2727H106.309C106.023 73.1467 105.67 73.9984 105.254 74.8204L107.945 77.5124C108.387 77.9552 108.631 78.5434 108.631 79.1695C108.631 79.7957 108.387 80.3842 107.945 80.8267L103.177 85.5944C102.734 86.0371 102.146 86.2811 101.52 86.2811C100.894 86.2811 100.305 86.0376 99.8625 85.5948L97.1705 82.9037C96.3488 83.3195 95.4966 83.6725 94.6226 83.9591V87.7652C94.6228 89.0575 93.5714 90.1089 92.2791 90.1089ZM80.4321 80.2877C80.6306 80.2877 80.8303 80.338 81.012 80.4412C82.1653 81.0984 83.3972 81.6084 84.6734 81.9578C85.1827 82.097 85.5361 82.5599 85.5361 83.088V87.7652H92.2791V83.088C92.2791 82.5599 92.6323 82.0968 93.1418 81.9576C94.4182 81.6086 95.6501 81.0984 96.8032 80.4412C97.2621 80.1805 97.8387 80.2574 98.2118 80.6308L101.52 83.9373L106.288 79.1695L102.981 75.8615C102.608 75.4881 102.53 74.9113 102.792 74.4527C103.448 73.2995 103.959 72.0677 104.308 70.7912C104.448 70.282 104.91 69.9288 105.439 69.9288H110.116V63.1858H105.439C104.91 63.1858 104.448 62.8326 104.308 62.323C103.959 61.0471 103.449 59.815 102.792 58.6612C102.53 58.2025 102.608 57.6259 102.981 57.2526L106.288 53.9448L101.52 49.177L98.2123 52.4837C97.8389 52.8569 97.2619 52.934 96.8037 52.6734C95.6501 52.0159 94.418 51.5059 93.1423 51.1567C92.633 51.0173 92.2795 50.5544 92.2795 50.0263V45.3494H85.5366V50.0263C85.5366 50.5544 85.1834 51.0175 84.6738 51.1565C83.3981 51.5057 82.166 52.0159 81.0124 52.6734C80.5538 52.9345 79.977 52.8569 79.6039 52.4837L76.2961 49.177L71.5282 53.9448L74.8348 57.2526C75.2079 57.6259 75.2855 58.2025 75.0244 58.6612C74.3672 59.815 73.857 61.0471 73.5078 62.323C73.3683 62.8326 72.9056 63.1858 72.3774 63.1858H67.7002V69.9288H72.3774C72.9054 69.9288 73.3683 70.282 73.5078 70.7912C73.857 72.0674 74.3674 73.2995 75.0244 74.4529C75.2855 74.9113 75.2081 75.4881 74.8348 75.8615L71.5282 79.1695L76.2961 83.9373L79.6039 80.6308C79.8291 80.4053 80.1289 80.2877 80.4321 80.2877ZM88.9076 76.5184C83.415 76.5184 78.9467 72.0501 78.9467 66.5575C78.9467 61.0649 83.415 56.5966 88.9076 56.5966C94.4002 56.5966 98.8685 61.0649 98.8685 66.5575C98.8685 67.5655 98.7181 68.5607 98.4216 69.5155C98.2296 70.1336 97.5729 70.4798 96.9549 70.2871C96.3368 70.0952 95.9913 69.4384 96.1833 68.8202C96.4097 68.091 96.5248 67.3295 96.5248 66.5575C96.5248 62.3573 93.1078 58.9403 88.9076 58.9403C84.7076 58.9403 81.2904 62.3573 81.2904 66.5575C81.2904 70.7577 84.7076 74.1747 88.9076 74.1747C89.7441 74.1747 90.5705 74.0376 91.3638 73.7676C91.976 73.5583 92.6424 73.8862 92.851 74.4988C93.0598 75.1115 92.7321 75.7773 92.1195 75.9862C91.0824 76.3391 90.0017 76.5184 88.9076 76.5184Z" fill="#0000CC"/>
        <path d="M68.6288 94.6971V90.0094C68.6288 89.3623 68.1043 88.8375 67.457 88.8375H64.1026C63.8084 87.7622 63.3821 86.7422 62.8423 85.7944L65.214 83.422C65.6715 82.9643 65.6715 82.2225 65.2138 81.765L61.8987 78.4502C61.4412 77.9927 60.6992 77.9925 60.2417 78.45L57.8694 80.8216C56.9218 80.2819 55.9016 79.8555 54.8263 79.5614V76.207C54.8263 75.5599 54.3015 75.0352 53.6544 75.0352H48.9664C48.3193 75.0352 47.7945 75.5599 47.7945 76.207V79.5614C46.7192 79.8555 45.6992 80.2819 44.7514 80.8216L42.3791 78.45C41.9213 77.9925 41.1795 77.9925 40.722 78.4502L37.4073 81.765C36.9498 82.2225 36.9495 82.9645 37.407 83.422L39.7787 85.7944C39.2389 86.742 38.8126 87.7622 38.5184 88.8375H35.1641C34.5167 88.8375 33.9922 89.3623 33.9922 90.0094V94.6973C33.9922 95.3445 34.5167 95.8692 35.1641 95.8692H38.5184C38.8126 96.9445 39.2389 97.9645 39.7787 98.9123L37.407 101.285C36.9495 101.742 36.9495 102.484 37.4073 102.942L40.722 106.256C41.1795 106.714 41.9216 106.714 42.3791 106.257L44.7514 103.885C45.699 104.425 46.7192 104.851 47.7945 105.145V108.5C47.7945 109.147 48.3193 109.672 48.9664 109.672H53.6544C54.3015 109.672 54.8263 109.147 54.8263 108.5V105.145C55.9016 104.851 56.9216 104.425 57.8694 103.885L60.2417 106.257C60.6994 106.714 61.4412 106.714 61.8987 106.256L65.2138 102.942C65.6713 102.484 65.6715 101.742 65.214 101.285L62.8423 98.9123C63.3821 97.9648 63.8084 96.9445 64.1026 95.8692H67.457C68.1041 95.869 68.6288 95.3445 68.6288 94.6971ZM51.3104 99.3642C47.4383 99.3642 44.2993 96.2252 44.2993 92.3531C44.2993 88.481 47.4383 85.342 51.3104 85.342C55.1825 85.342 58.3215 88.481 58.3215 92.3531C58.3215 96.2252 55.1825 99.3642 51.3104 99.3642Z" fill="white"/>
        <path d="M53.6546 110.843H48.9666C47.6743 110.843 46.6229 109.792 46.6229 108.5V106.01C46.0583 105.817 45.5056 105.588 44.9689 105.325L43.2078 107.085C42.2942 107.999 40.8073 107.999 39.8935 107.085L36.5785 103.77C35.6652 102.857 35.6649 101.37 36.578 100.456L38.3387 98.6946C38.0759 98.1579 37.8472 97.6054 37.6536 97.0406H35.1641C33.8717 97.0406 32.8203 95.9892 32.8203 94.6969V90.0094C32.8203 88.717 33.8717 87.6656 35.1641 87.6656H37.6536C37.8472 87.101 38.0759 86.5483 38.3387 86.0114L36.578 84.2503C35.6645 83.3362 35.6647 81.8496 36.5785 80.9358L39.8933 77.621C40.8069 76.7074 42.2937 76.7072 43.2076 77.6208L44.9687 79.3811C45.5059 79.1184 46.058 78.8894 46.6227 78.6961V76.2065C46.6227 74.9142 47.6741 73.8628 48.9664 73.8628H53.6544C54.9467 73.8628 55.9981 74.9142 55.9981 76.2065V78.6961C56.5625 78.8894 57.1149 79.1184 57.6521 79.3811L59.4132 77.6208C60.3268 76.7072 61.8137 76.7072 62.7275 77.6208L66.0425 80.936C66.9563 81.8494 66.9563 83.3362 66.0427 84.2503L64.2821 86.0114C64.5448 86.5483 64.7738 87.1008 64.9672 87.6656H67.457C68.7493 87.6656 69.8007 88.717 69.8007 90.0094V94.6971C69.8007 95.9894 68.7493 97.0408 67.457 97.0408H64.9672C64.7736 97.6054 64.5448 98.1581 64.2821 98.6948L66.0425 100.456C66.9559 101.37 66.9556 102.857 66.0423 103.77L62.7275 107.085C61.8134 107.999 60.3268 107.999 59.413 107.086L57.6519 105.325C57.1152 105.588 56.5625 105.817 55.9979 106.01V108.5C55.9984 109.792 54.947 110.843 53.6546 110.843ZM44.7521 102.713C44.9506 102.713 45.1503 102.764 45.3317 102.867C46.205 103.364 47.1378 103.751 48.1041 104.015C48.6134 104.155 48.9666 104.617 48.9666 105.145V108.499H53.6546V105.145C53.6546 104.617 54.0078 104.154 54.5171 104.015C55.4837 103.751 56.4165 103.364 57.2895 102.867C57.7482 102.606 58.3248 102.683 58.6979 103.056L61.0702 105.428L64.385 102.113L62.0136 99.7404C61.6405 99.367 61.5629 98.7902 61.8242 98.3318C62.3216 97.4585 62.708 96.5259 62.9722 95.5596C63.1116 95.0501 63.5743 94.6969 64.1026 94.6969H67.457V90.0094H64.1026C63.5743 90.0094 63.1116 89.6562 62.9722 89.1466C62.7078 88.1805 62.3216 87.2475 61.824 86.3742C61.5629 85.9155 61.6405 85.339 62.0136 84.9656L64.3852 82.5933L61.0702 79.2785L58.6977 81.6501C58.3245 82.0233 57.748 82.1008 57.2893 81.8397C56.4153 81.3419 55.4827 80.9557 54.5171 80.6918C54.0078 80.5523 53.6544 80.0894 53.6544 79.5614V76.2072H48.9664V79.5614C48.9664 80.0894 48.6132 80.5526 48.1037 80.6918C47.138 80.9557 46.2055 81.3419 45.3315 81.8397C44.873 82.1008 44.2963 82.0237 43.9231 81.6501L41.5508 79.2787L38.2358 82.5933L40.6072 84.9656C40.9803 85.339 41.0579 85.9155 40.7968 86.3742C40.2992 87.2477 39.913 88.1805 39.6486 89.1466C39.5091 89.6562 39.0465 90.0094 38.5182 90.0094H35.1638V94.6971H38.5182C39.0463 94.6971 39.5091 95.0503 39.6486 95.5598C39.913 96.5261 40.2992 97.459 40.7966 98.332C41.0579 98.7904 40.9803 99.3672 40.6072 99.7406L38.2355 102.113L41.5505 105.428L43.9229 103.057C44.1491 102.831 44.4488 102.713 44.7521 102.713ZM51.3106 100.536C46.7984 100.536 43.1277 96.8653 43.1277 92.3531C43.1277 87.8412 46.7984 84.1704 51.3106 84.1704C55.8226 84.1704 59.4934 87.8412 59.4934 92.3531C59.4936 96.8653 55.8228 100.536 51.3106 100.536ZM51.3106 86.5141C48.091 86.5141 45.4714 89.1335 45.4714 92.3531C45.4714 95.5727 48.0908 98.1923 51.3106 98.1923C54.5302 98.1923 57.1496 95.5727 57.1496 92.3531C57.1496 89.1335 54.5305 86.5141 51.3106 86.5141Z" fill="#0000CC"/>
        <path d="M68.5563 45.153V35.3479C68.5563 34.7008 68.0318 34.176 67.3844 34.176H60.7361C60.2278 32.3181 59.4914 30.5556 58.5586 28.9183L63.259 24.2163C63.7165 23.7585 63.7165 23.0167 63.2587 22.5592L56.3255 15.6259C55.868 15.1684 55.1259 15.1682 54.6684 15.6257L49.9664 20.3261C48.329 19.3935 46.5665 18.6571 44.7087 18.1485V11.5002C44.7087 10.8531 44.1839 10.3284 43.5368 10.3284H33.7317C33.0846 10.3284 32.5598 10.8531 32.5598 11.5002V18.1485C30.7019 18.6569 28.9394 19.3933 27.3021 20.3261L22.6003 15.6257C22.1426 15.1682 21.4008 15.1682 20.943 15.6259L14.01 22.559C13.5525 23.0165 13.5522 23.7585 14.0097 24.2163L18.7101 28.9183C17.7776 30.5556 17.0412 32.3181 16.5328 34.176H9.88428C9.23717 34.176 8.7124 34.7008 8.7124 35.3479V45.153C8.7124 45.8003 9.23717 46.3249 9.88428 46.3249H16.5328C17.0412 48.1827 17.7776 49.9452 18.7101 51.5826L14.0097 56.2844C13.5522 56.7421 13.5522 57.4839 14.01 57.9417L20.9433 64.8749C21.4008 65.3324 22.1428 65.3327 22.6005 64.8752L27.3023 60.1748C28.9397 61.1074 30.7022 61.8438 32.5601 62.3521V69.0004C32.5601 69.6477 33.0848 70.1723 33.7319 70.1723H43.537C44.1841 70.1723 44.7089 69.6477 44.7089 69.0004V62.3521C46.5668 61.8438 48.3293 61.1074 49.9666 60.1748L54.6687 64.8752C55.1264 65.3327 55.8682 65.3327 56.3257 64.8749L63.259 57.9417C63.7165 57.4841 63.7167 56.7421 63.2592 56.2844L58.5588 51.5826C59.4914 49.9452 60.2278 48.1827 60.7364 46.3249H67.3847C68.0315 46.3249 68.5563 45.8001 68.5563 45.153ZM38.6344 53.5084C31.312 53.5084 25.3762 47.5727 25.3762 40.2503C25.3762 32.928 31.312 26.9922 38.6344 26.9922C45.9567 26.9922 51.8925 32.928 51.8925 40.2503C51.8925 47.5727 45.9567 53.5084 38.6344 53.5084Z" fill="white"/>
        <path d="M43.537 71.3439H33.7319C32.4396 71.3439 31.3882 70.2925 31.3882 69.0002V63.2284C30.0532 62.8084 28.755 62.2706 27.5114 61.6225L23.429 65.7034C22.5152 66.617 21.0281 66.617 20.1145 65.703L13.1812 58.7699C12.2676 57.8568 12.2674 56.3699 13.181 55.4559L17.2619 51.3738C16.6139 50.1297 16.076 48.8313 15.656 47.4965H9.88428C8.59193 47.4965 7.54053 46.4451 7.54053 45.1527V35.3477C7.54053 34.0553 8.59193 33.0039 9.88428 33.0039H15.6558C16.0758 31.6689 16.6137 30.3707 17.2617 29.1269L13.1808 25.0445C12.2674 24.1312 12.2674 22.6443 13.1808 21.7302L20.114 14.7972C21.0279 13.8838 22.5147 13.8836 23.4286 14.7967L27.5109 18.8777C28.7545 18.2296 30.0527 17.6917 31.3877 17.2717V11.5002C31.3877 10.2079 32.4391 9.15649 33.7315 9.15649H43.5365C44.8289 9.15649 45.8803 10.2079 45.8803 11.5002V17.272C47.2153 17.692 48.5135 18.2299 49.7573 18.8777L53.8394 14.797C54.7535 13.8836 56.2404 13.8838 57.1537 14.7974L64.087 21.7305C65.0006 22.6445 65.0006 24.1312 64.087 25.0448L60.0063 29.1271C60.6544 30.3709 61.1922 31.6691 61.6122 33.0041H67.3837C68.6761 33.0041 69.7275 34.0556 69.7275 35.3479V45.153C69.7275 46.4453 68.6761 47.4967 67.3837 47.4967H61.6122C61.1922 48.8315 60.6544 50.1299 60.0063 51.374L64.0872 55.4559C65.0006 56.3697 65.0006 57.8566 64.087 58.7702L57.1537 65.7034C56.7112 66.1462 56.1227 66.3902 55.4967 66.3902C54.8707 66.3902 54.2822 66.1467 53.8394 65.7039L49.7573 61.623C48.5137 62.271 47.2155 62.8089 45.8803 63.2289V69.0006C45.8808 70.2925 44.8294 71.3439 43.537 71.3439ZM27.3026 59.0027C27.5011 59.0027 27.7008 59.0531 27.8824 59.1562C29.4532 60.051 31.1308 60.7457 32.8692 61.2217C33.3785 61.361 33.7317 61.8238 33.7317 62.3519V69.0002H43.5368V62.3519C43.5368 61.8238 43.89 61.3607 44.3993 61.2217C46.1376 60.746 47.8155 60.0513 49.3861 59.1562C49.845 58.8956 50.4213 58.9727 50.7947 59.3458L55.4965 64.0462L62.4297 57.1129L57.7294 52.4111C57.3562 52.0377 57.2787 51.4612 57.5397 51.0025C58.4346 49.4315 59.1295 47.7536 59.6051 46.0155C59.7445 45.5059 60.2072 45.1527 60.7354 45.1527H67.3837V35.3477H60.7354C60.2074 35.3477 59.7445 34.9945 59.6051 34.4849C59.1295 32.7468 58.4346 31.0689 57.5397 29.4981C57.2784 29.0397 57.356 28.4629 57.7291 28.0895L62.4295 23.3875L55.4962 16.4545L50.7944 21.1549C50.4208 21.5277 49.8445 21.6051 49.3858 21.3445C47.8151 20.4496 46.1374 19.7549 44.399 19.2792C43.8897 19.1399 43.5365 18.677 43.5365 18.149V11.5002H33.7315V18.1485C33.7315 18.6766 33.3783 19.1395 32.869 19.2787C31.1306 19.7545 29.4527 20.4492 27.8822 21.344C27.4237 21.6051 26.8469 21.528 26.4736 21.1544L21.7718 16.4545L14.8387 23.3875L19.5391 28.0895C19.9122 28.4629 19.9898 29.0397 19.7285 29.4981C18.8337 31.0689 18.1387 32.7468 17.6632 34.4849C17.5237 34.9945 17.0611 35.3477 16.5328 35.3477H9.88428V45.1527H16.5328C17.0608 45.1527 17.5237 45.5059 17.6632 46.0155C18.1387 47.7536 18.8337 49.4315 19.7285 51.0025C19.9896 51.4612 19.9122 52.0377 19.5389 52.4111L14.8385 57.1129L21.7718 64.0462L26.4738 59.3458C26.6995 59.1203 26.9993 59.0027 27.3026 59.0027ZM38.6344 54.6803C36.2137 54.6803 33.8177 54.0679 31.7053 52.9092C31.1379 52.5979 30.93 51.8856 31.2415 51.3182C31.5529 50.7508 32.2652 50.5427 32.8324 50.8544C34.6005 51.8242 36.6068 52.3366 38.6346 52.3366C45.299 52.3366 50.7208 46.9145 50.7208 40.2503C50.7208 33.5859 45.299 28.1643 38.6346 28.1643C31.9704 28.1643 26.5486 33.5861 26.5486 40.2503C26.5486 42.1295 26.97 43.9326 27.8013 45.6093C28.0887 46.1892 27.8517 46.8923 27.2719 47.1796C26.6915 47.4667 25.9889 47.23 25.7013 46.6502C24.7083 44.647 24.2048 42.4938 24.2048 40.2501C24.2048 32.2935 30.678 25.8203 38.6346 25.8203C46.5914 25.8203 53.0646 32.2935 53.0646 40.2501C53.0644 48.2071 46.5912 54.6803 38.6344 54.6803Z" fill="#0000CC"/>
        <path d="M88.9077 24.6807C87.1987 24.6807 85.8081 23.2901 85.8081 21.5811C85.8081 19.872 87.1987 18.4814 88.9077 18.4814C90.617 18.4814 92.0073 19.872 92.0073 21.5811C92.0073 23.2901 90.6168 24.6807 88.9077 24.6807ZM88.9077 20.8254C88.491 20.8254 88.1519 21.1643 88.1519 21.5813C88.1519 21.998 88.491 22.3371 88.9077 22.3371C89.3244 22.3371 89.6636 21.9982 89.6636 21.5813C89.6636 21.1643 89.3244 20.8254 88.9077 20.8254Z" fill="#6583FE"/>
        <path d="M88.9077 111.87C87.1987 111.87 85.8081 110.48 85.8081 108.771C85.8081 107.061 87.1987 105.671 88.9077 105.671C90.617 105.671 92.0073 107.061 92.0073 108.771C92.0073 110.48 90.6168 111.87 88.9077 111.87ZM88.9077 108.015C88.491 108.015 88.1519 108.354 88.1519 108.771C88.1519 109.187 88.491 109.527 88.9077 109.527C89.3244 109.527 89.6636 109.188 89.6636 108.771C89.6636 108.354 89.3244 108.015 88.9077 108.015Z" fill="#6583FE"/>
        <path d="M51.3105 11.5002C49.6015 11.5002 48.2109 10.1097 48.2109 8.40062C48.2109 6.69133 49.6015 5.30078 51.3105 5.30078C53.0196 5.30078 54.4102 6.69133 54.4102 8.40062C54.4102 10.1099 53.0196 11.5002 51.3105 11.5002ZM51.3105 7.64477C50.8938 7.64477 50.5547 7.98391 50.5547 8.40086C50.5547 8.81758 50.8938 9.15672 51.3105 9.15672C51.7273 9.15672 52.0664 8.81781 52.0664 8.40086C52.0664 7.98391 51.7273 7.64477 51.3105 7.64477Z" fill="#6583FE"/>
        <path d="M77.1292 33.5145C76.8292 33.5145 76.5294 33.4001 76.3004 33.1711L73.6538 30.5246C73.1961 30.0671 73.1961 29.325 73.6538 28.8675L76.3004 26.221C76.7581 25.7633 77.4999 25.7633 77.9577 26.221L80.6042 28.8675C80.8241 29.0874 80.9474 29.3853 80.9474 29.6961C80.9474 30.0068 80.8238 30.305 80.6042 30.5246L77.9577 33.1711C77.7289 33.4001 77.4289 33.5145 77.1292 33.5145ZM76.1399 29.6961L77.1292 30.6854L78.1185 29.6961L77.1292 28.7068L76.1399 29.6961Z" fill="#6583FE"/>
        <path d="M13.7595 82.0855C13.4487 82.0855 13.1506 81.962 12.9308 81.7422L10.2842 79.0956C9.82648 78.6381 9.82648 77.8961 10.2842 77.4386L12.9308 74.792C13.3885 74.3343 14.1303 74.3343 14.588 74.792L17.2346 77.4386C17.4545 77.6584 17.5777 77.9563 17.5777 78.2671C17.5777 78.5779 17.4542 78.876 17.2346 79.0956L14.588 81.7424C14.3684 81.962 14.0703 82.0855 13.7595 82.0855ZM12.77 78.2671L13.7593 79.2566L14.7486 78.2671L13.7593 77.2778L12.77 78.2671Z" fill="#6583FE"/>
    </g>
    <defs>
        <linearGradient id="paint0_linear_302_1014" x1="120.642" y1="76.3099" x2="-95.2385" y2="28.4927" gradientUnits="userSpaceOnUse">
            <stop stop-color="#D2DEFF" stop-opacity="0"/>
            <stop offset="1" stop-color="#B7C5FF"/>
        </linearGradient>
        <clipPath id="clip0_302_1014">
            <rect width="120" height="120" fill="white"/>
        </clipPath>
    </defs>
</svg>
