<svg width="120" height="120" viewBox="0 0 120 120" fill="none" xmlns="http://www.w3.org/2000/svg">
    <g clip-path="url(#clip0_302_1084)">
        <path d="M110.795 28.8199C124.785 4.59516 89.3927 -9.29343 74.5617 7.14821C61.5933 21.525 54.2093 30.7849 32.8682 29.7757C-1.61183 28.1454 36.7966 58.8703 12.9049 76.6674C-8.18206 92.3749 24.4769 115.942 37.9179 96.6942C60.2697 64.6856 65.8497 108.37 83.1621 118.206C91.3 122.83 104.23 118.071 107.214 109.009C111.095 97.2202 98.1527 87.7486 96.8304 76.6418C94.8473 59.9838 102.591 43.0259 110.795 28.8199Z" fill="url(#paint0_linear_302_1084)"/>
        <path opacity="0.1" d="M113.597 79.9516H112.113C112.074 79.9516 112.036 79.9546 111.997 79.9563L114.69 71.9156C115.036 70.8796 114.828 69.7406 114.139 68.8945L102.165 54.2231C103.195 53.1049 103.977 51.8955 104.511 50.9435C104.949 50.1611 104.386 49.1971 103.489 49.1971H98.0597C97.9275 49.1714 78.1603 45.3194 56.7612 49.6666C56.2871 49.7629 55.8171 49.8703 55.3505 49.9853C57.0933 47.9397 58.1473 45.2894 58.1473 42.3916C58.1473 35.9196 52.9006 30.6729 46.4285 30.6729C39.9886 30.6729 34.7639 35.8682 34.7121 42.296C33.7934 42.0646 32.8322 41.9404 31.8418 41.9404C25.3697 41.9404 20.123 47.1871 20.123 53.6592C20.123 58.2417 22.7548 62.2071 26.5878 64.1336C21.3406 65.8357 14.3909 68.2415 9.45237 70.5192C7.76722 71.2973 6.68909 72.9871 6.68909 74.8434V79.9692C6.60214 79.9591 6.51425 79.9521 6.42519 79.9521H6.31644C5.62433 79.9521 5.08292 80.5488 5.15019 81.2378L5.62081 86.0582C5.79659 87.8589 7.31042 89.2321 9.1198 89.2321H19.5605C21.3298 91.1292 23.8498 92.3168 26.6485 92.3168C29.4471 92.3168 31.9671 91.1292 33.7364 89.2321H83.1132C83.4387 89.2321 83.7495 89.0967 83.9712 88.8583L86.7903 85.8276C88.1133 89.606 91.7084 92.3168 95.9384 92.3168C100.097 92.3168 103.643 89.6969 105.019 86.0179L107.661 88.8586C107.883 89.0969 108.193 89.2324 108.519 89.2324H112.92C113.523 89.2324 114.027 88.7746 114.086 88.1744L114.763 81.2378C114.831 80.5485 114.29 79.9516 113.597 79.9516Z" fill="#2626BC"/>
        <path d="M97.6201 43.5719H103.489C104.385 43.5719 104.949 44.5359 104.511 45.3182C103.363 47.3664 101.065 50.605 97.6201 51.5655V43.5719Z" fill="#6582FD"/>
        <path fill-rule="evenodd" clip-rule="evenodd" d="M96.4483 43.5719C96.4483 42.9247 96.9729 42.4 97.6201 42.4H103.489C105.283 42.4 106.408 44.3297 105.533 45.891C104.363 47.9797 101.865 51.5988 97.9348 52.6943C97.5819 52.7927 97.2032 52.7204 96.9114 52.4988C96.6196 52.2772 96.4483 51.9319 96.4483 51.5655V43.5719ZM98.792 44.7438V49.8254C100.976 48.6288 102.562 46.3988 103.488 44.7455L103.49 44.7466C103.49 44.7459 103.49 44.745 103.489 44.7439C103.489 44.7438 103.489 44.7435 103.489 44.7434C103.489 44.7434 103.489 44.7434 103.489 44.7434C103.488 44.7416 103.487 44.7405 103.486 44.74C103.486 44.7396 103.486 44.7403 103.488 44.7413C103.488 44.7414 103.488 44.7415 103.489 44.7416C103.489 44.7418 103.489 44.742 103.49 44.7423C103.49 44.741 103.491 44.7402 103.491 44.7398C103.491 44.7402 103.491 44.7407 103.491 44.7413C103.491 44.7417 103.491 44.7421 103.491 44.7426C103.491 44.7427 103.491 44.7428 103.491 44.7429C103.492 44.7434 103.493 44.7437 103.494 44.744C103.495 44.7442 103.495 44.7442 103.495 44.7441C103.494 44.744 103.493 44.7439 103.49 44.7438C103.49 44.7445 103.49 44.7452 103.49 44.7457C103.49 44.7461 103.49 44.7465 103.49 44.7467C103.491 44.7477 103.491 44.7479 103.49 44.7474C103.49 44.7472 103.49 44.7469 103.49 44.7466L103.488 44.7455C103.488 44.7449 103.489 44.7444 103.489 44.7439C103.489 44.744 103.489 44.7439 103.489 44.7439C103.489 44.7439 103.489 44.7438 103.489 44.7438H98.792Z" fill="#2626BC"/>
        <path d="M114.689 66.2906L110.321 79.3382H6.68944V69.2179C6.68944 67.3617 7.76756 65.6718 9.45272 64.8937C18.4176 60.7593 34.0129 56.2007 34.0129 56.2007C34.0129 56.2007 44.1355 46.6054 56.7613 44.0414C78.2324 39.6797 98.0629 43.5726 98.0629 43.5726L114.139 63.2695C114.828 64.1156 115.036 65.2547 114.689 66.2906Z" fill="#6582FD"/>
        <path fill-rule="evenodd" clip-rule="evenodd" d="M90.6904 62.122C90.6904 61.4748 91.215 60.9501 91.8623 60.9501H94.0518C94.699 60.9501 95.2237 61.4748 95.2237 62.122C95.2237 62.7692 94.699 63.2939 94.0518 63.2939H91.8623C91.215 63.2939 90.6904 62.7692 90.6904 62.122Z" fill="white"/>
        <path fill-rule="evenodd" clip-rule="evenodd" d="M57.7377 62.122C57.7377 61.4748 58.2624 60.9501 58.9096 60.9501H61.0991C61.7463 60.9501 62.271 61.4748 62.271 62.122C62.271 62.7692 61.7463 63.2939 61.0991 63.2939H58.9096C58.2624 63.2939 57.7377 62.7692 57.7377 62.122Z" fill="white"/>
        <path fill-rule="evenodd" clip-rule="evenodd" d="M66.0004 58.8281C66.6476 58.8281 67.1722 59.3528 67.1722 60V68.7349C67.1722 69.3821 66.6476 69.9068 66.0004 69.9068C65.3532 69.9068 64.8285 69.3821 64.8285 68.7349V60C64.8285 59.3528 65.3532 58.8281 66.0004 58.8281Z" fill="#2626BC"/>
        <path fill-rule="evenodd" clip-rule="evenodd" d="M98.6108 58.8281C99.258 58.8281 99.7827 59.3528 99.7827 60V67.6804C99.7827 68.3276 99.258 68.8523 98.6108 68.8523C97.9636 68.8523 97.439 68.3276 97.439 67.6804V60C97.439 59.3528 97.9636 58.8281 98.6108 58.8281Z" fill="#2626BC"/>
        <path d="M114.689 66.2906L113.089 71.0718L110.751 69.8121C109.681 69.235 109.206 67.9528 109.641 66.8175L112.006 60.6562L114.139 63.2695C114.828 64.1156 115.036 65.2547 114.689 66.2906Z" fill="white"/>
        <path d="M87.7011 78.1711V79.3382H26.6488V67.3054H47.931C50.1883 67.3054 52.4312 67.6399 54.5903 68.2992C60.5254 70.1111 73.8072 74.1391 87.7011 78.1711Z" fill="white"/>
        <path d="M11.5944 67.882L12.7663 69.4837L11.5944 71.0859H6.68897V69.5507C6.68897 68.6297 7.43662 67.882 8.35772 67.882H11.5944Z" fill="white"/>
        <path d="M11.5937 71.0857H13.6133C14.2858 71.0857 14.9176 70.7653 15.3151 70.2227L16.2105 69.0002C16.5508 68.5357 16.2189 67.8815 15.6433 67.8815H11.5937V71.0857Z" fill="#2626BC"/>
        <path fill-rule="evenodd" clip-rule="evenodd" d="M108.323 56.145C108.825 55.7358 109.563 55.8106 109.972 56.312L115.046 62.529C115.99 63.6861 116.276 65.2466 115.801 66.6628L111.432 79.7097C111.272 80.1874 110.824 80.5094 110.32 80.5094H6.6892C6.04199 80.5094 5.51733 79.9847 5.51733 79.3375V69.2177C5.51733 66.9043 6.8602 64.8006 8.96243 63.8306C11.9119 62.4696 15.5475 61.0729 19.0987 59.8095C19.7084 59.5925 20.3786 59.911 20.5956 60.5208C20.8125 61.1305 20.494 61.8007 19.8843 62.0176C16.3587 63.2719 12.7995 64.6413 9.94442 65.9587C8.67399 66.5449 7.86108 67.8167 7.86108 69.2177V78.1657H109.477L113.579 65.9184C113.798 65.2652 113.666 64.5451 113.231 64.0109C113.231 64.0109 113.231 64.011 113.231 64.0109L108.157 57.7939C107.747 57.2925 107.822 56.5543 108.323 56.145Z" fill="#2626BC"/>
        <path fill-rule="evenodd" clip-rule="evenodd" d="M98.2875 42.4219C98.2878 42.4219 98.2882 42.422 98.0624 43.5719L98.2882 42.422C98.5563 42.4746 98.7975 42.6193 98.9703 42.831L105.273 50.5534C105.682 51.0548 105.607 51.793 105.106 52.2022C104.605 52.6115 103.866 52.5367 103.457 52.0353L97.427 44.6467C97.3031 44.6248 97.152 44.5986 96.9746 44.5689C96.4018 44.4729 95.5556 44.3397 94.4714 44.1931C92.3027 43.8998 89.1838 43.5527 85.3981 43.3407C77.8206 42.9162 67.6021 43.0343 56.9956 45.1891C52.2922 46.1446 47.9192 48.1165 44.3031 50.2007C43.7423 50.5239 43.0258 50.3314 42.7026 49.7706C42.3794 49.2099 42.5719 48.4933 43.1327 48.1701C46.8881 46.0056 51.502 43.9135 56.5289 42.8923C67.3925 40.6853 77.8242 40.569 85.5292 41.0006C89.3847 41.2166 92.5653 41.5702 94.7856 41.8705C95.8959 42.0207 96.7666 42.1576 97.3622 42.2574C97.6599 42.3073 97.8889 42.348 98.0447 42.3764C98.1227 42.3906 98.1823 42.4018 98.223 42.4095C98.2434 42.4134 98.259 42.4164 98.2699 42.4185L98.2827 42.4209L98.2875 42.4219Z" fill="#2626BC"/>
        <path d="M9.15764 77.6468L8.59326 75.9035C8.28881 74.9634 7.41342 74.3266 6.4253 74.3266H6.31655C5.62444 74.3266 5.08303 74.9233 5.1503 75.6124L5.62092 80.4328C5.7967 82.2335 7.31053 83.6067 9.1199 83.6067H83.1133C83.4388 83.6067 83.7496 83.4712 83.9713 83.2329L87.7009 79.2232H11.3256C10.3377 79.2236 9.46209 78.5868 9.15764 77.6468Z" fill="white"/>
        <path fill-rule="evenodd" clip-rule="evenodd" d="M3.98396 75.7262C3.84945 74.3483 4.93222 73.1547 6.31655 73.1547H6.4253C7.92165 73.1547 9.24717 74.1191 9.70813 75.5424L10.2725 77.2857C10.4204 77.7425 10.8458 78.0515 11.3251 78.0513H87.7009C88.1672 78.0513 88.5891 78.3277 88.7753 78.7552C88.9615 79.1827 88.8765 79.6799 88.559 80.0213L84.8294 84.031C84.3861 84.5075 83.7646 84.7786 83.1133 84.7786H9.1199C6.70747 84.7786 4.68898 82.9476 4.45459 80.5466C4.45459 80.5466 4.45459 80.5467 4.45459 80.5466L3.98396 75.7262ZM6.31663 75.4985L6.4253 75.4985C6.90515 75.4985 7.33038 75.8077 7.47836 76.2644C7.47835 76.2644 7.47837 76.2645 7.47836 76.2644L8.04274 78.0077C8.50364 79.4309 9.82931 80.3955 11.3256 80.395C11.3258 80.395 11.326 80.395 11.3262 80.395H85.0105L83.1133 82.4347L9.1199 82.4348C7.9136 82.4348 6.90443 81.5193 6.78725 80.3189L6.31663 75.4985Z" fill="#2626BC"/>
        <path d="M108.978 77.3475L109.292 76.3783C109.688 75.1551 110.827 74.3266 112.112 74.3266H113.597C114.289 74.3266 114.831 74.9233 114.763 75.6124L114.086 82.549C114.028 83.1492 113.523 83.6069 112.92 83.6069H108.519C108.194 83.6069 107.883 83.4714 107.661 83.2331L103.932 79.2234H106.398C107.574 79.2236 108.616 78.4659 108.978 77.3475Z" fill="white"/>
        <path fill-rule="evenodd" clip-rule="evenodd" d="M112.112 75.4985C111.335 75.4985 110.646 75.9995 110.407 76.7393L110.093 77.7084C110.093 77.7085 110.093 77.7084 110.093 77.7084C109.597 79.2407 108.21 80.3004 106.616 80.3892L108.519 82.4349L112.92 82.435L113.597 75.4985L112.112 75.4985ZM108.177 76.0173C108.729 74.3108 110.319 73.1547 112.112 73.1547H113.597C114.981 73.1547 116.064 74.3483 115.93 75.7262L115.252 82.6628C115.135 83.8633 114.126 84.7788 112.92 84.7788H108.519C107.868 84.7788 107.246 84.5077 106.803 84.0312L103.074 80.0215C102.756 79.6801 102.671 79.1829 102.857 78.7554C103.043 78.328 103.465 78.0515 103.932 78.0515H106.398C107.066 78.0517 107.657 77.6215 107.863 76.9865L108.177 76.0173C108.177 76.0173 108.177 76.0173 108.177 76.0173Z" fill="#2626BC"/>
        <path d="M26.6486 86.6915C32.0018 86.6915 36.3414 82.3519 36.3414 76.9987C36.3414 71.6455 32.0018 67.3059 26.6486 67.3059C21.2954 67.3059 16.9558 71.6455 16.9558 76.9987C16.9558 82.3519 21.2954 86.6915 26.6486 86.6915Z" fill="white"/>
        <path fill-rule="evenodd" clip-rule="evenodd" d="M26.6486 68.4778C21.9426 68.4778 18.1276 72.2927 18.1276 76.9987C18.1276 81.7047 21.9426 85.5197 26.6486 85.5197C31.3546 85.5197 35.1695 81.7047 35.1695 76.9987C35.1695 72.2927 31.3546 68.4778 26.6486 68.4778ZM15.7839 76.9987C15.7839 70.9983 20.6482 66.134 26.6486 66.134C32.649 66.134 37.5133 70.9983 37.5133 76.9987C37.5133 82.9991 32.649 87.8634 26.6486 87.8634C20.6482 87.8634 15.7839 82.9991 15.7839 76.9987Z" fill="#2626BC"/>
        <path d="M26.6486 80.3236C24.8153 80.3236 23.324 78.8322 23.324 76.9987C23.324 75.1657 24.8153 73.6741 26.6486 73.6741C28.4819 73.6741 29.9732 75.1654 29.9732 76.9987C29.9732 78.832 28.4819 80.3236 26.6486 80.3236Z" fill="#6582FD"/>
        <path d="M26.7794 78.8531C26.6221 78.8531 26.4627 78.813 26.3167 78.7286C26.0104 78.5519 25.8433 78.2268 25.8536 77.8964C25.5644 77.8603 25.3065 77.6894 25.1612 77.4316C24.9969 77.14 25.0026 76.7826 25.176 76.4962L25.724 75.5913C25.9893 75.1535 26.559 75.0136 26.9971 75.2786C27.28 75.45 27.4387 75.7486 27.4438 76.0565C27.7295 76.0924 27.985 76.2597 28.131 76.5128C28.2965 76.7997 28.2965 77.1532 28.131 77.4398L27.583 78.389C27.4115 78.6867 27.0997 78.8531 26.7794 78.8531Z" fill="white"/>
        <path fill-rule="evenodd" clip-rule="evenodd" d="M25.4767 71.5626C25.4767 70.9154 26.0014 70.3908 26.6486 70.3908H26.6509C27.2981 70.3908 27.8228 70.9154 27.8228 71.5626C27.8228 72.2098 27.2981 72.7345 26.6509 72.7345H26.6486C26.0014 72.7345 25.4767 72.2098 25.4767 71.5626Z" fill="#6582FD"/>
        <path fill-rule="evenodd" clip-rule="evenodd" d="M25.4767 82.435C25.4767 81.7878 26.0014 81.2632 26.6486 81.2632H26.6509C27.2981 81.2632 27.8228 81.7878 27.8228 82.435C27.8228 83.0822 27.2981 83.6069 26.6509 83.6069H26.6486C26.0014 83.6069 25.4767 83.0822 25.4767 82.435Z" fill="#6582FD"/>
        <path fill-rule="evenodd" clip-rule="evenodd" d="M29.7318 72.263C30.2239 71.8426 30.9636 71.9007 31.384 72.3928L31.3854 72.3945C31.8058 72.8865 31.7477 73.6263 31.2556 74.0467C30.7636 74.4671 30.0239 74.409 29.6035 73.9169L29.602 73.9152C29.1816 73.4232 29.2397 72.6834 29.7318 72.263Z" fill="#6582FD"/>
        <path fill-rule="evenodd" clip-rule="evenodd" d="M22.0439 79.951C22.5359 79.5306 23.2756 79.5887 23.696 80.0808L23.6974 80.0824C24.1179 80.5745 24.0598 81.3142 23.5677 81.7346C23.0756 82.155 22.3359 82.0969 21.9155 81.6049L21.9141 81.6032C21.4937 81.1111 21.5518 80.3714 22.0439 79.951Z" fill="#6582FD"/>
        <path fill-rule="evenodd" clip-rule="evenodd" d="M32.0858 75.8259C32.733 75.8259 33.2577 76.3506 33.2577 76.9978V76.9999C33.2577 77.6471 32.733 78.1718 32.0858 78.1718C31.4386 78.1718 30.914 77.6471 30.914 76.9999V76.9978C30.914 76.3506 31.4386 75.8259 32.0858 75.8259Z" fill="#6582FD"/>
        <path fill-rule="evenodd" clip-rule="evenodd" d="M21.2134 75.8259C21.8606 75.8259 22.3853 76.3506 22.3853 76.9978V76.9999C22.3853 77.6471 21.8606 78.1718 21.2134 78.1718C20.5662 78.1718 20.0415 77.6471 20.0415 76.9999V76.9978C20.0415 76.3506 20.5662 75.8259 21.2134 75.8259Z" fill="#6582FD"/>
        <path fill-rule="evenodd" clip-rule="evenodd" d="M31.2556 79.951C31.7477 80.3714 31.8058 81.1111 31.3854 81.6032L31.384 81.6049C30.9636 82.0969 30.2239 82.155 29.7318 81.7346C29.2397 81.3142 29.1816 80.5745 29.602 80.0824L29.6035 80.0808C30.0239 79.5887 30.7636 79.5306 31.2556 79.951Z" fill="#6582FD"/>
        <path fill-rule="evenodd" clip-rule="evenodd" d="M23.5677 72.263C24.0598 72.6834 24.1179 73.4232 23.6974 73.9152L23.696 73.9169C23.2756 74.409 22.5359 74.4671 22.0439 74.0467C21.5518 73.6263 21.4937 72.8865 21.9141 72.3945L21.9155 72.3928C22.3359 71.9007 23.0756 71.8426 23.5677 72.263Z" fill="#6582FD"/>
        <path d="M95.9387 86.6915C101.292 86.6915 105.632 82.3519 105.632 76.9987C105.632 71.6455 101.292 67.3059 95.9387 67.3059C90.5855 67.3059 86.2459 71.6455 86.2459 76.9987C86.2459 82.3519 90.5855 86.6915 95.9387 86.6915Z" fill="white"/>
        <path fill-rule="evenodd" clip-rule="evenodd" d="M95.9387 68.4778C91.2327 68.4778 87.4178 72.2927 87.4178 76.9987C87.4178 81.7047 91.2327 85.5197 95.9387 85.5197C100.645 85.5197 104.46 81.7047 104.46 76.9987C104.46 72.2927 100.645 68.4778 95.9387 68.4778ZM85.074 76.9987C85.074 70.9983 89.9383 66.134 95.9387 66.134C101.939 66.134 106.803 70.9983 106.803 76.9987C106.803 82.9991 101.939 87.8634 95.9387 87.8634C89.9383 87.8634 85.074 82.9991 85.074 76.9987Z" fill="#2626BC"/>
        <path d="M95.9385 80.3236C94.1052 80.3236 92.6139 78.8322 92.6139 76.9987C92.6139 75.1657 94.1052 73.6741 95.9385 73.6741C97.7718 73.6741 99.2631 75.1654 99.2631 76.9987C99.2631 78.832 97.7718 80.3236 95.9385 80.3236Z" fill="#6582FD"/>
        <path d="M96.0693 78.8531C95.912 78.8531 95.7526 78.813 95.6066 78.7286C95.3003 78.5519 95.1332 78.2268 95.1435 77.8964C94.8543 77.8603 94.5965 77.6894 94.4512 77.4316C94.2869 77.14 94.2925 76.7826 94.4659 76.4962L95.0139 75.5913C95.2792 75.1535 95.8492 75.0136 96.287 75.2786C96.5699 75.45 96.7286 75.7486 96.7337 76.0565C97.0194 76.0924 97.2749 76.2597 97.4209 76.5128C97.5864 76.7997 97.5864 77.1532 97.4209 77.4398L96.873 78.389C96.7014 78.6867 96.3897 78.8531 96.0693 78.8531Z" fill="white"/>
        <path fill-rule="evenodd" clip-rule="evenodd" d="M94.7664 71.5633C94.7664 70.9161 95.2911 70.3915 95.9383 70.3915H95.9406C96.5878 70.3915 97.1125 70.9161 97.1125 71.5633C97.1125 72.2105 96.5878 72.7352 95.9406 72.7352H95.9383C95.2911 72.7352 94.7664 72.2105 94.7664 71.5633Z" fill="#6582FD"/>
        <path fill-rule="evenodd" clip-rule="evenodd" d="M94.7664 82.4357C94.7664 81.7885 95.2911 81.2639 95.9383 81.2639H95.9406C96.5878 81.2639 97.1125 81.7885 97.1125 82.4357C97.1125 83.083 96.5878 83.6076 95.9406 83.6076H95.9383C95.2911 83.6076 94.7664 83.083 94.7664 82.4357Z" fill="#6582FD"/>
        <path fill-rule="evenodd" clip-rule="evenodd" d="M99.0185 72.2664C99.5091 71.8443 100.249 71.8999 100.671 72.3905L100.673 72.3921C101.095 72.8828 101.039 73.6227 100.548 74.0448C100.058 74.4668 99.3178 74.4113 98.8957 73.9206L98.8943 73.919C98.4723 73.4283 98.5278 72.6884 99.0185 72.2664Z" fill="#6582FD"/>
        <path fill-rule="evenodd" clip-rule="evenodd" d="M91.3324 79.9527C91.824 79.5316 92.5638 79.5888 92.9848 80.0804L92.9862 80.082C93.4072 80.5736 93.35 81.3133 92.8585 81.7344C92.3669 82.1554 91.6271 82.0982 91.2061 81.6067L91.2047 81.605C90.7837 81.1135 90.8409 80.3737 91.3324 79.9527Z" fill="#6582FD"/>
        <path fill-rule="evenodd" clip-rule="evenodd" d="M101.376 75.8266C102.023 75.8266 102.547 76.3513 102.547 76.9985V77.0006C102.547 77.6478 102.023 78.1725 101.376 78.1725C100.728 78.1725 100.204 77.6478 100.204 77.0006V76.9985C100.204 76.3513 100.728 75.8266 101.376 75.8266Z" fill="#6582FD"/>
        <path fill-rule="evenodd" clip-rule="evenodd" d="M90.5031 75.8266C91.1503 75.8266 91.675 76.3513 91.675 76.9985V77.0006C91.675 77.6478 91.1503 78.1725 90.5031 78.1725C89.8559 78.1725 89.3312 77.6478 89.3312 77.0006V76.9985C89.3312 76.3513 89.8559 75.8266 90.5031 75.8266Z" fill="#6582FD"/>
        <path fill-rule="evenodd" clip-rule="evenodd" d="M100.546 79.9527C101.038 80.3737 101.095 81.1135 100.674 81.605L100.673 81.6067C100.252 82.0982 99.5119 82.1554 99.0204 81.7344C98.5288 81.3133 98.4717 80.5736 98.8927 80.082L98.8941 80.0804C99.3151 79.5888 100.055 79.5316 100.546 79.9527Z" fill="#6582FD"/>
        <path fill-rule="evenodd" clip-rule="evenodd" d="M92.8604 72.2664C93.351 72.6884 93.4066 73.4283 92.9845 73.919L92.9831 73.9206C92.5611 74.4113 91.8211 74.4668 91.3305 74.0448C90.8399 73.6227 90.7843 72.8828 91.2064 72.3921L91.2078 72.3905C91.6299 71.8999 92.3698 71.8443 92.8604 72.2664Z" fill="#6582FD"/>
        <path d="M64.4226 47.0554L65.5944 53.4422L64.1865 56.7129L62.1562 56.8779H45.5694L44.3976 55.1711L45.5694 52.9919C48.9772 51.0021 53.1421 49.0825 57.6022 48.1755C59.8171 47.7257 62.0929 47.3507 64.4226 47.0554Z" fill="white"/>
        <path d="M85.8608 56.8781H69.8437L67.071 56.6836L66.4077 53.4422L67.5796 46.7015C71.0905 46.3617 74.7093 46.1906 78.4124 46.1906C81.6679 46.1906 84.6421 46.3218 87.2179 46.5093L91.0164 53.4422L89.9202 56.6836L85.8608 56.8781Z" fill="white"/>
        <path d="M85.8608 56.8781H96.9641C97.9558 56.8781 98.5005 55.7245 97.8681 54.9604C96.0175 52.7243 93.0501 49.1381 91.7783 47.6013C91.3851 47.126 90.8219 46.825 90.2078 46.7648C89.2858 46.6743 88.285 46.5879 87.2179 46.5103L89.2171 52.1203C90.0421 54.4406 88.3241 56.8781 85.8608 56.8781Z" fill="#2626BC"/>
        <path d="M45.5701 52.9959C43.7973 54.0323 42.2287 55.0879 40.9314 56.0304C40.5637 56.2975 40.7535 56.8781 41.208 56.8781H45.5701V52.9959Z" fill="#2626BC"/>
        <path d="M69.8441 56.8781H62.1566C63.4082 56.8781 64.423 55.8632 64.423 54.614V47.0554C65.4637 46.9195 66.516 46.8023 67.5801 46.7015V54.614C67.5801 55.2375 67.8332 55.8047 68.2433 56.2148C68.6512 56.625 69.2183 56.8781 69.8441 56.8781Z" fill="#2626BC"/>
        <path fill-rule="evenodd" clip-rule="evenodd" d="M36.9219 38.5464C37.3795 39.004 37.3795 39.746 36.9219 40.2036L34.5782 42.5474C34.1205 43.005 33.3785 43.005 32.9209 42.5474C32.4632 42.0897 32.4632 41.3478 32.9209 40.8901L35.2646 38.5464C35.7223 38.0887 36.4643 38.0887 36.9219 38.5464Z" fill="#6582FD"/>
        <path fill-rule="evenodd" clip-rule="evenodd" d="M39.584 41.2077C40.0417 41.6654 40.0417 42.4074 39.584 42.865L37.2403 45.2088C36.7826 45.6664 36.0406 45.6664 35.583 45.2088C35.1253 44.7511 35.1253 44.0091 35.583 43.5515L37.9267 41.2077C38.3844 40.7501 39.1264 40.7501 39.584 41.2077Z" fill="#6582FD"/>
        <path fill-rule="evenodd" clip-rule="evenodd" d="M44.3877 90.4426C44.8454 90.9002 44.8454 91.6422 44.3877 92.0999L42.044 94.4436C41.5863 94.9013 40.8443 94.9013 40.3867 94.4436C39.929 93.986 39.929 93.244 40.3867 92.7863L42.7304 90.4426C43.1881 89.985 43.9301 89.985 44.3877 90.4426Z" fill="#6582FD"/>
        <path fill-rule="evenodd" clip-rule="evenodd" d="M47.0493 93.1042C47.507 93.5619 47.507 94.3039 47.0493 94.7615L44.7056 97.1053C44.2479 97.5629 43.506 97.5629 43.0483 97.1053C42.5907 96.6476 42.5907 95.9056 43.0483 95.448L45.3921 93.1042C45.8497 92.6466 46.5917 92.6466 47.0493 93.1042Z" fill="#6582FD"/>
        <path fill-rule="evenodd" clip-rule="evenodd" d="M73.6328 29.5007C72.9856 29.5007 72.4609 30.0254 72.4609 30.6726C72.4609 31.3198 72.9856 31.8445 73.6328 31.8445C74.28 31.8445 74.8047 31.3198 74.8047 30.6726C74.8047 30.0254 74.28 29.5007 73.6328 29.5007ZM70.1172 30.6726C70.1172 28.731 71.6912 27.157 73.6328 27.157C75.5744 27.157 77.1484 28.731 77.1484 30.6726C77.1484 32.6142 75.5744 34.1882 73.6328 34.1882C71.6912 34.1882 70.1172 32.6142 70.1172 30.6726Z" fill="#6582FD"/>
        <path fill-rule="evenodd" clip-rule="evenodd" d="M27.999 98.637C27.3518 98.637 26.8271 99.1616 26.8271 99.8088C26.8271 100.456 27.3518 100.981 27.999 100.981C28.6462 100.981 29.1709 100.456 29.1709 99.8088C29.1709 99.1616 28.6462 98.637 27.999 98.637ZM24.4834 99.8088C24.4834 97.8672 26.0574 96.2932 27.999 96.2932C29.9406 96.2932 31.5146 97.8672 31.5146 99.8088C31.5146 101.75 29.9406 103.324 27.999 103.324C26.0574 103.324 24.4834 101.75 24.4834 99.8088Z" fill="#6582FD"/>
        <path fill-rule="evenodd" clip-rule="evenodd" d="M104.864 95.1047C104.217 95.1047 103.692 95.6294 103.692 96.2766C103.692 96.9238 104.217 97.4485 104.864 97.4485C105.511 97.4485 106.036 96.9238 106.036 96.2766C106.036 95.6294 105.511 95.1047 104.864 95.1047ZM101.349 96.2766C101.349 94.335 102.923 92.761 104.864 92.761C106.806 92.761 108.38 94.335 108.38 96.2766C108.38 98.2182 106.806 99.7922 104.864 99.7922C102.923 99.7922 101.349 98.2182 101.349 96.2766Z" fill="#6582FD"/>
    </g>
    <defs>
        <linearGradient id="paint0_linear_302_1084" x1="23.8098" y1="111.4" x2="118.81" y2="16.3997" gradientUnits="userSpaceOnUse">
            <stop stop-color="#D1DDFF" stop-opacity="0"/>
            <stop offset="1" stop-color="#B6C4FF"/>
        </linearGradient>
        <clipPath id="clip0_302_1084">
            <rect width="120" height="120" fill="white"/>
        </clipPath>
    </defs>
</svg>
