<svg width="120" height="120" viewBox="0 0 120 120" fill="none" xmlns="http://www.w3.org/2000/svg">
    <path d="M116.145 17.6193C100.842 -1.79885 69.2639 -8.2692 47.7417 14.2798C26.3897 36.6502 -5.22375 47.5762 0.734525 53.8189C17.7033 71.597 52.586 32.3017 29.9252 71.7073C1.32327 121.445 65.1818 137.897 84.119 96.5229C91.6106 80.1558 64.3589 65.0979 68.3046 49.7822C72.6424 32.9458 136.044 42.8689 116.145 17.6193Z" fill="url(#paint0_linear_302_399)"/>
    <g opacity="0.1">
        <path d="M91.3683 105.433C73.0882 107.538 58.2888 106.941 47.3817 103.657C38.5259 100.991 32.3998 96.6366 29.1738 90.7148C27.251 87.1852 26.557 83.4017 26.7005 79.8095C28.4252 80.3628 29.9761 80.1811 31.0751 79.8741C36.4055 78.3831 40.4698 71.789 40.4095 67.111C40.3739 64.3438 38.9388 62.4037 36.4725 61.7881C34.0812 61.1911 31.2227 62.8368 28.8248 66.1901C27.0033 68.7373 25.5295 72.1146 24.8159 75.8549C23.7117 74.8037 22.8169 73.444 22.1278 72.1482C18.3766 65.0935 18.5913 58.0611 22.7658 51.2464C25.9526 46.0439 30.3607 42.9123 30.4048 42.8814C30.9422 42.5045 31.0868 41.7425 30.7273 41.179C30.3675 40.6149 29.6395 40.4634 29.1019 40.8401C28.9071 40.9764 24.2925 44.243 20.8355 49.8512C17.591 55.1147 14.8263 63.463 20.0798 73.3434C21.4732 75.9639 22.9718 77.6329 24.4336 78.6635C24.0811 82.9922 24.7936 87.6287 27.1381 91.9323C31.6582 100.23 43.1266 109.127 71.5165 109.127C77.449 109.127 84.1228 108.738 91.6242 107.874C92.2676 107.8 92.7319 107.194 92.6611 106.519C92.5905 105.846 92.0116 105.361 91.3683 105.433ZM30.7005 67.6627C32.4663 65.1932 34.5183 63.8252 35.9295 64.1771C37.346 64.5307 38.0447 65.5013 38.066 67.1443C38.1138 70.837 34.6181 76.3416 30.4706 77.5018C29.164 77.8674 27.987 77.74 26.9381 77.2955C27.4948 73.5597 28.9106 70.1654 30.7005 67.6627Z" fill="#2626BC"/>
        <path d="M104 14.8801C103.96 14.8187 103.916 14.7622 103.864 14.7082C103.815 14.6566 103.758 14.6075 103.7 14.5658C103.405 14.3497 103.015 14.2736 102.622 14.4283L47.1513 36.2705L54.4931 24.2821C54.5036 24.2634 54.514 24.2448 54.5245 24.2261C54.6197 24.0328 54.6175 23.8249 54.547 23.6481C54.5156 23.5734 54.472 23.5029 54.42 23.4423C54.2951 23.3023 54.1146 23.2152 53.9074 23.2269C53.8868 23.2294 53.8664 23.2316 53.8458 23.2341L29.2826 27.0883C28.5626 27.202 28.1484 28.0093 28.4587 28.7016L31.3312 35.1132L35.6611 36.3105L34.9312 40.9395L39.3403 46.3129C39.8144 46.8905 40.6865 46.8271 41.0808 46.1833L44.7487 40.1937L54.9431 54.2492L54.9529 54.2436L54.9431 54.2517L65.6165 54.7772L66.1228 65.9622L75.4005 73.3497C74.4131 75.3841 73.8529 77.6842 73.8529 80.1228C73.8529 88.3889 80.2488 95.0898 88.1386 95.0898C96.0283 95.0898 102.424 88.3889 102.424 80.1228C102.424 71.8567 96.0283 65.1558 88.1386 65.1558C87.5714 65.1558 87.0129 65.1943 86.463 65.2616L104.131 16.0067C104.279 15.5946 104.206 15.187 104 14.8801Z" fill="#2626BC"/>
        <path d="M57.7033 94.6265C57.1839 94.3864 56.6753 94.105 56.1916 93.7904C55.6417 93.4326 54.9191 93.6097 54.5779 94.1857C54.2364 94.7618 54.4054 95.5186 54.955 95.8764C55.5313 96.2514 56.1377 96.5868 56.7569 96.8731C56.9109 96.9443 57.0712 96.9779 57.2294 96.9779C57.6794 96.9779 58.1088 96.7046 58.3021 96.2455C58.5637 95.6252 58.2956 94.9003 57.7033 94.6265Z" fill="#2626BC"/>
        <path d="M34.4381 89.9035C33.9209 90.2905 33.4031 90.6927 32.8992 91.0994C32.3864 91.5131 32.291 92.2842 32.6859 92.8212C32.9168 93.1353 33.2641 93.3 33.6152 93.3C33.8648 93.3 34.1166 93.2168 34.3296 93.0449C34.811 92.6562 35.306 92.2717 35.8003 91.9019C36.3269 91.508 36.4491 90.7409 36.0729 90.1891C35.6967 89.6374 34.965 89.5094 34.4381 89.9035Z" fill="#2626BC"/>
        <path d="M38.8407 88.3453C39.0558 88.7453 39.4533 88.9702 39.8625 88.9702C40.0575 88.9702 40.2551 88.9191 40.437 88.8116C40.9674 88.4983 41.5102 88.1908 42.05 87.8979C42.6247 87.586 42.8494 86.8452 42.5518 86.2431C42.2543 85.641 41.5472 85.4055 40.9723 85.7174C40.4079 86.0236 39.8405 86.345 39.286 86.6726C38.7223 87.0058 38.5229 87.7545 38.8407 88.3453Z" fill="#2626BC"/>
        <path d="M50.148 87.9444C49.5621 88.2325 49.3099 88.9635 49.585 89.5774C49.8742 90.2232 50.2108 90.8513 50.5858 91.4446C50.8113 91.8014 51.1839 91.9946 51.5639 91.9946C51.786 91.9946 52.0108 91.9286 52.2098 91.7903C52.7496 91.4161 52.8972 90.6541 52.54 90.0889C52.2278 89.5951 51.9478 89.072 51.7068 88.5343C51.4317 87.9204 50.7339 87.6559 50.148 87.9444Z" fill="#2626BC"/>
        <path d="M55.4972 80.6044C54.8736 80.7009 54.2321 80.8188 53.5899 80.9543C52.9554 81.0884 52.5448 81.7359 52.6728 82.4007C52.785 82.9836 53.2739 83.3861 53.8203 83.3861C53.8971 83.3861 53.975 83.3782 54.0532 83.3615C54.6556 83.2341 55.2568 83.1238 55.8401 83.0337C56.4804 82.9345 56.9227 82.3103 56.828 81.6397C56.7333 80.9688 56.1373 80.5052 55.4972 80.6044Z" fill="#2626BC"/>
        <path d="M62.6432 95.6413C61.9968 95.6754 61.4992 96.2522 61.5318 96.9295C61.5634 97.5856 62.0812 98.0954 62.7011 98.0954C62.721 98.0954 62.7409 98.0949 62.7611 98.0939C63.479 98.0561 64.1793 97.9473 64.8419 97.7715C65.4693 97.6048 65.8487 96.9368 65.6898 96.2795C65.5307 95.6221 64.8925 95.2241 64.2658 95.3911C63.753 95.5274 63.2071 95.6116 62.6432 95.6413Z" fill="#2626BC"/>
        <path d="M69.0077 83.2317C68.5389 82.7639 67.7971 82.7828 67.3509 83.2735C66.9044 83.7643 66.9222 84.5415 67.3907 85.0093C67.7617 85.3798 68.0667 85.797 68.2966 86.2498C68.5073 86.6648 68.9128 86.901 69.3321 86.901C69.5177 86.901 69.7061 86.8546 69.8814 86.7569C70.4528 86.4384 70.6696 85.6949 70.3654 85.0962C70.0176 84.4113 69.5608 83.7837 69.0077 83.2317Z" fill="#2626BC"/>
        <path d="M63.3379 80.5425C62.7098 80.429 62.0423 80.3475 61.354 80.3003C60.7069 80.2554 60.1502 80.7686 60.108 81.4451C60.0656 82.1219 60.555 82.7063 61.2007 82.7505C61.8075 82.7922 62.3925 82.8634 62.9397 82.9622C63.0072 82.9744 63.074 82.9803 63.1401 82.9803C63.7001 82.9803 64.1953 82.5585 64.2935 81.961C64.4036 81.2926 63.9757 80.6576 63.3379 80.5425Z" fill="#2626BC"/>
        <path d="M68.5788 91.0816C68.4327 91.6295 68.2291 92.14 67.9736 92.5984C67.6471 93.1841 67.8358 93.9357 68.3948 94.2778C68.5804 94.3915 68.7838 94.4455 68.9845 94.4455C69.3876 94.4455 69.7797 94.2274 69.9977 93.8365C70.3542 93.1968 70.6363 92.4921 70.8363 91.7419C71.0104 91.0888 70.6459 90.4115 70.0227 90.2291C69.3986 90.0469 68.7529 90.4285 68.5788 91.0816Z" fill="#2626BC"/>
        <path d="M48.0191 82.5501C47.4219 82.7645 46.8147 82.9963 46.2147 83.2391C45.6109 83.4835 45.3107 84.1943 45.5439 84.8269C45.7234 85.3138 46.1671 85.6127 46.6373 85.6127C46.7776 85.6127 46.9204 85.5861 47.0594 85.5299C47.6315 85.2983 48.2099 85.0776 48.7787 84.8735C49.3909 84.6538 49.7174 83.9557 49.5076 83.314C49.2981 82.6726 48.6316 82.3306 48.0191 82.5501Z" fill="#2626BC"/>
        <path d="M23.4053 103.35C22.8571 102.989 22.1338 103.162 21.7895 103.736C21.4471 104.307 21.1148 104.892 20.8019 105.473C20.4838 106.063 20.6828 106.812 21.2465 107.146C21.4284 107.253 21.6262 107.304 21.8214 107.304C22.2304 107.304 22.6277 107.079 22.8431 106.68C23.1381 106.132 23.4513 105.581 23.7742 105.042C24.1185 104.468 23.9535 103.711 23.4053 103.35Z" fill="#2626BC"/>
        <path d="M19.8441 110.253C19.2397 110.009 18.5621 110.325 18.3296 110.958C18.0987 111.586 17.8803 112.228 17.6808 112.865C17.479 113.509 17.8137 114.203 18.4287 114.414C18.5501 114.456 18.6732 114.476 18.7943 114.476C19.287 114.476 19.7457 114.148 19.9076 113.631C20.0951 113.033 20.3 112.43 20.5168 111.84C20.749 111.207 20.4481 110.497 19.8441 110.253Z" fill="#2626BC"/>
        <path d="M26.4473 97.3192C26.0167 97.817 25.5923 98.3287 25.1854 98.8404C24.7712 99.3615 24.8387 100.136 25.3363 100.57C25.5555 100.761 25.8212 100.854 26.0854 100.854C26.4215 100.854 26.7548 100.703 26.9868 100.411C27.3726 99.926 27.7752 99.4403 28.1837 98.9681C28.6183 98.4657 28.5819 97.6893 28.1024 97.234C27.6229 96.7788 26.8818 96.8168 26.4473 97.3192Z" fill="#2626BC"/>
        <path d="M50.9858 74.5206C50.3753 74.2959 49.7063 74.6326 49.4919 75.2725C49.2713 75.9306 49.0759 76.5921 48.9111 77.2382C48.744 77.8933 49.1155 78.5663 49.7408 78.7414C49.8423 78.7699 49.944 78.7834 50.0441 78.7834C50.5618 78.7834 51.0355 78.4212 51.1756 77.8724C51.3252 77.2865 51.5028 76.6857 51.7035 76.0863C51.9177 75.4461 51.5963 74.7453 50.9858 74.5206Z" fill="#2626BC"/>
        <path d="M59.1245 61.4001C58.6307 60.9623 57.8912 61.0266 57.4731 61.544C57.0573 62.0587 56.6495 62.579 56.2609 63.0905C55.8578 63.6212 55.9417 64.3934 56.4479 64.8158C56.6636 64.9955 56.9211 65.0829 57.1768 65.0829C57.5216 65.0829 57.8633 64.9243 58.0947 64.6198C58.4687 64.1275 58.8615 63.6263 59.2621 63.1303C59.6802 62.6127 59.6186 61.8379 59.1245 61.4001Z" fill="#2626BC"/>
        <path d="M54.5363 67.6102C53.9881 67.2492 53.2648 67.4221 52.9203 67.9959C52.573 68.5747 52.2402 69.1581 51.9308 69.73C51.6118 70.3201 51.8096 71.0693 52.3726 71.4035C52.5552 71.5118 52.7534 71.5633 52.9491 71.5633C53.3574 71.5633 53.7542 71.3394 53.9698 70.9406C54.2614 70.4011 54.5759 69.8504 54.9043 69.3033C55.2491 68.7289 55.0841 67.9711 54.5363 67.6102Z" fill="#2626BC"/>
    </g>
    <path d="M31.3312 29.2204L28.4587 22.8087C28.1484 22.1165 28.5626 21.3091 29.2826 21.1954L53.8458 17.3412C53.8664 17.3387 53.8868 17.3365 53.9074 17.3341C54.1146 17.3223 54.2948 17.4092 54.42 17.5494C54.4722 17.6101 54.5156 17.6805 54.547 17.7552C54.6178 17.932 54.6197 18.14 54.5245 18.3332C54.514 18.3519 54.5036 18.3706 54.4931 18.3892L41.0805 40.2904C40.6863 40.9343 39.8142 40.9976 39.3401 40.4201L34.931 35.0466L35.6608 30.4177L31.3312 29.2204Z" fill="#6582FD"/>
    <path d="M54.5468 17.7548L34.9308 35.0463L35.6607 30.4173L31.3311 29.22L54.4198 17.5488C54.4718 17.6097 54.5154 17.6802 54.5468 17.7548Z" fill="white"/>
    <path d="M34.9413 20.3075L29.2826 21.1954C28.5626 21.3091 28.1484 22.1165 28.4587 22.8087L31.3312 29.2204L35.6611 30.4177L34.9312 35.0466L39.3403 40.4201C39.8144 40.9976 40.6865 40.9343 41.0808 40.2904L54.4933 18.3892C54.5039 18.3706 54.5142 18.3519 54.5247 18.3332C54.6199 18.14 54.6178 17.932 54.5472 17.7552C54.5158 17.6805 54.4722 17.6101 54.4202 17.5494C54.2953 17.4095 54.1148 17.3223 53.9076 17.3341C53.887 17.3365 53.8666 17.3387 53.846 17.3412L41.3011 19.3096" stroke="#2626BC" stroke-width="2" stroke-miterlimit="10" stroke-linecap="round" stroke-linejoin="round"/>
    <path d="M29.753 35.9678C29.753 35.9678 11.4818 48.756 21.1041 66.8526C30.4088 84.352 45.7981 59.4847 36.2011 57.0893C25.6456 54.4548 2.68431 110.989 91.4962 100.76" stroke="#2626BC" stroke-width="3" stroke-miterlimit="10" stroke-linecap="round" stroke-linejoin="round"/>
    <path d="M103.998 8.987C103.958 8.92562 103.913 8.86914 103.862 8.81512C103.813 8.76355 103.756 8.71444 103.698 8.67269C103.402 8.45661 103.013 8.38049 102.62 8.53518L43.9508 31.6369C43.5102 31.8113 43.3532 32.3785 43.6368 32.7714L54.9407 48.3567L54.9505 48.351L54.9407 48.3591L65.6141 48.8846L66.1204 60.0696L80.9938 71.9127C81.3688 72.2098 81.9126 72.0453 82.079 71.5836L104.129 10.1141C104.277 9.70157 104.204 9.29395 103.998 8.987Z" fill="white"/>
    <path d="M103.995 8.98692L66.1182 60.0695L65.6119 48.8845L54.9385 48.359L103.695 8.67261C103.754 8.71435 103.81 8.76346 103.86 8.81503C103.911 8.86905 103.956 8.92553 103.995 8.98692Z" fill="#6582FD"/>
    <path d="M88.6418 53.2825L104.127 10.1141C104.275 9.70157 104.202 9.29395 103.996 8.987C103.956 8.92562 103.911 8.86914 103.86 8.81512C103.811 8.76355 103.754 8.71444 103.696 8.67269C103.4 8.45661 103.011 8.38049 102.618 8.53518L43.9489 31.6369C43.5083 31.8112 43.3512 32.3785 43.6348 32.7714L54.9387 48.3567L54.9486 48.351L54.9387 48.3591L65.6122 48.8846L66.1184 60.0696L80.9918 71.9127" stroke="#2626BC" stroke-width="3" stroke-miterlimit="10" stroke-linecap="round" stroke-linejoin="round"/>
    <path d="M80.8506 54.8147H82.7999" stroke="#6582FD" stroke-width="2" stroke-miterlimit="10" stroke-linecap="round" stroke-linejoin="round"/>
    <path d="M82.5342 50.6782H84.4835" stroke="#6582FD" stroke-width="2" stroke-miterlimit="10" stroke-linecap="round" stroke-linejoin="round"/>
    <path d="M27.3155 92.2505C22.9686 97.276 19.5546 103.387 17.9424 110.516" stroke="#2626BC" stroke-width="3" stroke-miterlimit="10" stroke-linecap="round" stroke-linejoin="round" stroke-dasharray="8 24"/>
    <path d="M27.3155 92.2505C22.9686 97.276 19.5546 103.387 17.9424 110.516" stroke="#2626BC" stroke-width="3" stroke-miterlimit="10" stroke-linecap="round" stroke-linejoin="round" stroke-dasharray="8 24"/>
    <path d="M21.0437 97.6591C20.5387 98.315 20.0423 98.9879 19.5679 99.6596C19.085 100.343 19.2228 101.308 19.8758 101.814C20.1634 102.037 20.5027 102.133 20.8335 102.113C21.2545 102.088 21.6616 101.874 21.9321 101.491C22.3819 100.854 22.8528 100.215 23.332 99.5931C23.8417 98.9311 23.7428 97.9614 23.1109 97.4274C22.479 96.8934 21.5534 96.997 21.0437 97.6591Z" fill="#2626BC"/>
    <path d="M40.309 79.0739C39.618 79.5052 38.9293 79.9556 38.2618 80.4128C37.5823 80.8784 37.3917 81.8331 37.8364 82.5451C38.0322 82.8586 38.3184 83.0726 38.6352 83.1743C39.0384 83.3037 39.4909 83.2514 39.8716 82.9908C40.5046 82.5571 41.1579 82.1295 41.8136 81.7203C42.511 81.285 42.7398 80.3397 42.3243 79.609C41.9087 78.8782 41.0064 78.6386 40.309 79.0739Z" fill="#2626BC"/>
    <path d="M62.8561 89.9981C62.0699 89.8203 61.273 89.6581 60.4871 89.516C59.6869 89.3714 58.9264 89.9339 58.7886 90.7724C58.7279 91.1417 58.7981 91.5026 58.9638 91.8033C59.1747 92.1859 59.5398 92.4708 59.9879 92.5519C60.7333 92.6866 61.4895 92.8402 62.2354 93.009C63.029 93.1885 63.8114 92.6601 63.9827 91.8287C64.154 90.9973 63.6496 90.1776 62.8561 89.9981Z" fill="#2626BC"/>
    <path d="M64.7854 76.0538C64.0267 75.774 63.2555 75.5084 62.4928 75.2641C61.7163 75.0155 60.8945 75.4736 60.6573 76.2874C60.5529 76.6458 60.5794 77.0131 60.7078 77.3332C60.8711 77.7404 61.1993 78.0711 61.6341 78.2105C62.3575 78.442 63.0894 78.6938 63.8092 78.9593C64.575 79.2417 65.4144 78.8203 65.6839 78.018C65.9534 77.2156 65.5512 76.3361 64.7854 76.0538Z" fill="#2626BC"/>
    <path d="M54.5612 64.6308C55.0317 63.9473 55.4928 63.2472 55.9319 62.5498C56.3789 61.8396 56.1916 60.8842 55.5135 60.416C55.2149 60.2098 54.8711 60.1326 54.5418 60.1712C54.1228 60.2203 53.7273 60.4567 53.4768 60.8543C53.0605 61.5159 52.6231 62.1803 52.1767 62.8287C51.7018 63.5186 51.8505 64.4813 52.5089 64.9789C53.1674 65.4764 54.0863 65.3206 54.5612 64.6308Z" fill="#2626BC"/>
    <path d="M50.6453 83.1625C54.902 92.6647 68.3246 93.921 69.8879 84.6788C72.2424 70.7586 46.6471 73.252 30.2021 89.197" stroke="#2626BC" stroke-width="3" stroke-miterlimit="10" stroke-linecap="round" stroke-linejoin="round" stroke-dasharray="8 24"/>
    <path d="M58.3668 56.4438C53.6043 62.3406 51.0103 67.5694 49.9443 72.0618" stroke="#2626BC" stroke-width="3" stroke-miterlimit="10" stroke-linecap="round" stroke-linejoin="round" stroke-dasharray="8 24"/>
    <path d="M88.1362 89.1974C96.0259 89.1974 102.422 82.4965 102.422 74.2304C102.422 65.9644 96.0259 59.2634 88.1362 59.2634C80.2465 59.2634 73.8506 65.9644 73.8506 74.2304C73.8506 82.4965 80.2465 89.1974 88.1362 89.1974Z" fill="#6582FD"/>
    <path d="M75.4357 67.3806C74.4248 69.4337 73.8506 71.7611 73.8506 74.2304C73.8506 76.6996 74.4248 79.027 75.4357 81.0801H79.9546L86.7541 74.2304L79.9546 67.3806H75.4357Z" fill="white"/>
    <path fill-rule="evenodd" clip-rule="evenodd" d="M88.1362 60.4912C80.8937 60.4912 75.0225 66.6425 75.0225 74.2304C75.0225 81.8184 80.8937 87.9697 88.1362 87.9697C95.3787 87.9697 101.25 81.8184 101.25 74.2304C101.25 66.6425 95.3787 60.4912 88.1362 60.4912ZM72.6787 74.2304C72.6787 65.2863 79.5993 58.0356 88.1362 58.0356C96.6731 58.0356 103.594 65.2863 103.594 74.2304C103.594 83.1746 96.6731 90.4252 88.1362 90.4252C79.5993 90.4252 72.6787 83.1746 72.6787 74.2304Z" fill="#2626BC"/>
    <path d="M94.6462 74.2316L87.4457 81.0801H79.9551L84.1335 74.9447C84.4241 74.5181 84.4241 73.9453 84.1337 73.5185L79.9551 67.3806H87.4457L94.6462 74.2316Z" fill="#2626BC"/>
    <path d="M98.1769 74.9447L94.4189 80.4625C94.155 80.85 93.7287 81.0801 93.2742 81.0801H87.4453L91.6237 74.9447C91.9144 74.5181 91.9144 73.9453 91.624 73.5185L87.4453 67.3806H93.2742C93.7287 67.3806 94.1552 67.6107 94.4191 67.9984L98.1771 73.5185C98.4675 73.9453 98.4675 74.5179 98.1769 74.9447Z" fill="white"/>
    <path d="M86.3281 84.4348H89.9438" stroke="white" stroke-width="2" stroke-miterlimit="10" stroke-linecap="round" stroke-linejoin="round"/>
    <path d="M86.3828 64.1047V64.133" stroke="white" stroke-width="2" stroke-miterlimit="10" stroke-linecap="round" stroke-linejoin="round"/>
    <path d="M89.8896 64.1047V64.133" stroke="white" stroke-width="2" stroke-miterlimit="10" stroke-linecap="round" stroke-linejoin="round"/>
    <path fill-rule="evenodd" clip-rule="evenodd" d="M38.0654 8.40476C37.3535 8.40476 36.7764 9.00942 36.7764 9.75531C36.7764 10.5012 37.3535 11.1059 38.0654 11.1059C38.7774 11.1059 39.3545 10.5012 39.3545 9.75531C39.3545 9.00942 38.7774 8.40476 38.0654 8.40476ZM34.4326 9.75531C34.4326 7.65326 36.0591 5.94922 38.0654 5.94922C40.0718 5.94922 41.6982 7.65326 41.6982 9.75531C41.6982 11.8573 40.0718 13.5614 38.0654 13.5614C36.0591 13.5614 34.4326 11.8573 34.4326 9.75531Z" fill="#6582FD"/>
    <path fill-rule="evenodd" clip-rule="evenodd" d="M103.998 96.1892C103.351 96.1892 102.826 96.7389 102.826 97.417C102.826 98.095 103.351 98.6447 103.998 98.6447C104.645 98.6447 105.17 98.095 105.17 97.417C105.17 96.7389 104.645 96.1892 103.998 96.1892ZM100.482 97.417C100.482 95.3827 102.056 93.7336 103.998 93.7336C105.94 93.7336 107.514 95.3827 107.514 97.417C107.514 99.4512 105.94 101.1 103.998 101.1C102.056 101.1 100.482 99.4512 100.482 97.417Z" fill="#6582FD"/>
    <path fill-rule="evenodd" clip-rule="evenodd" d="M14.9346 77.9968C14.2874 77.9968 13.7627 78.5465 13.7627 79.2246C13.7627 79.9026 14.2874 80.4523 14.9346 80.4523C15.5818 80.4523 16.1064 79.9026 16.1064 79.2246C16.1064 78.5465 15.5818 77.9968 14.9346 77.9968ZM11.4189 79.2246C11.4189 77.1903 12.9929 75.5413 14.9346 75.5413C16.8762 75.5413 18.4502 77.1903 18.4502 79.2246C18.4502 81.2588 16.8762 82.9079 14.9346 82.9079C12.9929 82.9079 11.4189 81.2588 11.4189 79.2246Z" fill="#6582FD"/>
    <path fill-rule="evenodd" clip-rule="evenodd" d="M33.1436 106.586C32.4316 106.586 31.8545 107.191 31.8545 107.937C31.8545 108.683 32.4316 109.287 33.1436 109.287C33.8555 109.287 34.4326 108.683 34.4326 107.937C34.4326 107.191 33.8555 106.586 33.1436 106.586ZM29.5107 107.937C29.5107 105.835 31.1372 104.131 33.1436 104.131C35.1499 104.131 36.7764 105.835 36.7764 107.937C36.7764 110.039 35.1499 111.743 33.1436 111.743C31.1372 111.743 29.5107 110.039 29.5107 107.937Z" fill="#6582FD"/>
    <path fill-rule="evenodd" clip-rule="evenodd" d="M102.423 45.5627C101.711 45.5627 101.134 46.1674 101.134 46.9133C101.134 47.6592 101.711 48.2638 102.423 48.2638C103.135 48.2638 103.712 47.6592 103.712 46.9133C103.712 46.1674 103.135 45.5627 102.423 45.5627ZM98.79 46.9133C98.79 44.8112 100.417 43.1072 102.423 43.1072C104.429 43.1072 106.056 44.8112 106.056 46.9133C106.056 49.0153 104.429 50.7194 102.423 50.7194C100.417 50.7194 98.79 49.0153 98.79 46.9133Z" fill="#6582FD"/>
    <defs>
        <linearGradient id="paint0_linear_302_399" x1="18.1635" y1="100.449" x2="110.949" y2="11.8871" gradientUnits="userSpaceOnUse">
            <stop stop-color="#D1DDFF" stop-opacity="0"/>
            <stop offset="1" stop-color="#B6C4FF"/>
        </linearGradient>
    </defs>
</svg>
