<svg width="120" height="120" viewBox="0 0 120 120" fill="none" xmlns="http://www.w3.org/2000/svg">
    <g clip-path="url(#clip0_302_148)">
        <path d="M115.75 15.486C116.167 3.5905 102.643 -7.55707 95.5099 6.70675C78.0002 41.7191 23.6561 -13.3431 5.98051 19.7221C-1.7023 34.0939 18.1839 45.0683 24.4783 56.7878C34.203 74.8939 13.7906 93.0266 17.7937 110.192C20.6491 122.435 37.4564 122.025 46.6075 115.469C57.164 107.906 59.2408 95.5004 61.86 83.7892C68.4649 54.2546 114.561 49.3656 115.75 15.486Z" fill="url(#paint0_linear_302_148)"/>
        <g opacity="0.1">
            <path d="M105.1 76.7527H91.3691C90.722 76.7527 90.1973 76.2279 90.1973 75.5808C90.1973 74.9337 90.722 74.4089 91.3691 74.4089H105.1C105.747 74.4089 106.271 74.9337 106.271 75.5808C106.271 76.2279 105.747 76.7527 105.1 76.7527Z" fill="#2626BB"/>
            <path d="M99.172 71.9756H91.3691C90.722 71.9756 90.1973 71.4508 90.1973 70.8037C90.1973 70.1566 90.722 69.6318 91.3691 69.6318H99.172C99.8191 69.6318 100.344 70.1566 100.344 70.8037C100.344 71.4508 99.8191 71.9756 99.172 71.9756Z" fill="#2626BB"/>
            <path d="M91.3691 67.2257C90.722 67.2257 90.1973 66.7009 90.1973 66.0538V66.0269C90.1973 65.3797 90.722 64.855 91.3691 64.855C92.0163 64.855 92.541 65.3797 92.541 66.0269V66.0538C92.541 66.7009 92.0165 67.2257 91.3691 67.2257Z" fill="#2626BB"/>
            <path d="M95.1978 67.2257C94.5506 67.2257 94.0259 66.7009 94.0259 66.0538V66.0269C94.0259 65.3797 94.5506 64.855 95.1978 64.855C95.8449 64.855 96.3696 65.3797 96.3696 66.0269V66.0538C96.3696 66.7009 95.8449 67.2257 95.1978 67.2257Z" fill="#2626BB"/>
        </g>
        <path opacity="0.1" d="M100.928 92.8324C94.3584 85.1003 77.924 75.8284 77.924 75.8284V70.8728C82.4013 69.1839 85.7765 65.1808 86.5148 60.2423C87.2524 60.482 88.06 60.5662 88.901 60.4483C91.304 60.1115 93.1947 58.12 93.4106 55.7031C93.595 53.6381 92.5893 51.7931 91.0031 50.7721C92.2117 48.6651 93.6761 45.2123 93.6761 40.8283C93.6761 32.2755 91.0776 27.2486 89.4536 24.9419C88.8628 24.1026 87.7577 23.7916 86.8141 24.1956C83.058 25.8046 78.4078 23.6697 73.2046 23.4295C73.199 23.4098 73.1955 23.3899 73.1885 23.3704C72.5078 21.5088 71.5111 19.7988 70.2625 18.307C70.0075 18.0023 69.5824 17.9008 69.2193 18.0625L65.3885 19.7692C64.2072 18.749 62.8336 17.9463 61.3289 17.4229L60.8932 13.2531C60.8519 12.8582 60.5526 12.5399 60.1617 12.472C59.2118 12.3067 58.2344 12.2209 57.2376 12.2209C56.2406 12.2209 55.2644 12.3067 54.315 12.472C53.924 12.5399 53.625 12.8582 53.5835 13.2529L53.1461 17.4229C51.6414 17.9463 50.2675 18.749 49.0882 19.7692L45.2566 18.0623C44.8945 17.901 44.4698 18.0006 44.2153 18.3046C42.9656 19.7957 41.9686 21.505 41.2877 23.3657C41.1513 23.7386 41.2767 24.1574 41.598 24.3909L44.9932 26.8563C44.8481 27.6149 44.7703 28.3982 44.7703 29.2009C44.7703 30.002 44.8481 30.7853 44.9932 31.5456L41.598 34.0094C41.2771 34.2421 41.1506 34.6602 41.2868 35.0327C41.7218 36.2224 42.2868 37.3488 42.963 38.3969L40.02 39.708C38.8387 38.6877 37.465 37.885 35.9601 37.3617L35.5244 33.1919C35.4832 32.797 35.1839 32.4787 34.7929 32.4107C33.843 32.2455 32.8657 32.1597 31.8686 32.1597C30.8716 32.1597 29.8954 32.2455 28.946 32.4107C28.555 32.4787 28.256 32.797 28.2145 33.1917L27.7771 37.3617C26.2725 37.885 24.8986 38.6877 23.7192 39.708L19.8876 38.001C19.5255 37.8398 19.1008 37.9394 18.8461 38.2434C17.5964 39.7345 16.5993 41.4438 15.9185 43.3045C15.7821 43.6774 15.9075 44.0962 16.2288 44.3296L19.6239 46.795C19.4789 47.5537 19.4011 48.337 19.4011 49.1397C19.4011 49.9408 19.4789 50.7241 19.6239 51.4844L16.2283 53.9474C15.907 54.1806 15.7814 54.5995 15.9178 54.9724C16.5989 56.8345 17.5957 58.5438 18.8453 60.0351C19.1001 60.3391 19.525 60.4387 19.8871 60.2772L23.7185 58.5688C24.8978 59.591 26.2718 60.3937 27.7764 60.917L28.2138 65.0863C28.2553 65.481 28.5546 65.7995 28.9457 65.8673C29.8952 66.0318 30.8714 66.119 31.8682 66.119C32.865 66.119 33.8421 66.032 34.792 65.8673C35.1832 65.7995 35.4827 65.481 35.5239 65.0859L35.9596 60.9168C37.4643 60.3934 38.8382 59.5907 40.0195 58.5686L43.8506 60.277C44.2129 60.4384 44.6378 60.3386 44.8926 60.0346C46.1411 58.5435 47.1377 56.8342 47.8186 54.9724C47.955 54.5995 47.8293 54.1806 47.508 53.9474L44.1128 51.4837C44.2579 50.7234 44.3357 49.9401 44.3357 49.139C44.3357 48.3363 44.2579 47.553 44.1128 46.7943L47.508 44.3289C47.8286 44.0959 47.9552 43.6781 47.819 43.3056C47.384 42.1169 46.8192 40.9909 46.1432 39.9431L49.0877 38.6301C50.0229 39.4403 51.0818 40.1102 52.2297 40.6148C52.2084 40.8803 52.1934 41.1506 52.1934 41.4311C52.1934 46.1261 53.5528 49.4146 54.6361 51.2936C53.4429 52.3706 52.743 53.9838 52.9176 55.7535C53.1539 58.1484 55.0336 60.1101 57.4162 60.4469C58.2595 60.5659 59.0693 60.482 59.8087 60.2418C60.547 65.1803 63.922 69.1835 68.3993 70.8724V75.828C68.3993 75.828 63.28 77.695 58.015 83.23H52.2063V81.6423C52.2063 80.7719 51.7919 80.0001 51.1516 79.5072V75.254C51.1516 73.3124 49.5775 71.7384 47.636 71.7384H31.0478C29.1063 71.7384 27.5322 73.3124 27.5322 75.254V79.5072C26.8919 80.0001 26.4775 80.7719 26.4775 81.6421V83.2298H20.2666C18.9721 83.2298 17.9228 84.2791 17.9228 85.5735V112.933C17.9228 114.228 18.9721 115.277 20.2666 115.277H46.7055V115.278H87.475V93.4647C89.6782 95.1428 91.6633 96.8514 92.9594 98.3772C94.0539 99.6663 94.0633 100.03 94.075 100.63C94.0961 101.537 94 103.198 92.9102 105.992C92.1461 107.949 90.7891 110.272 89.6196 112.102C88.4524 113.935 87.475 115.278 87.475 115.278H97.9603C98.3861 115.278 98.7775 115.046 98.9852 114.674C106.374 101.448 104.687 97.2609 100.928 92.8324ZM31.8682 55.252C28.4922 55.252 25.7552 52.5149 25.7552 49.139C25.7552 45.7631 28.4922 43.026 31.8682 43.026C35.2441 43.026 37.9811 45.7631 37.9811 49.139C37.9811 52.5149 35.2441 55.252 31.8682 55.252ZM29.876 79.0434V75.2547C29.876 74.6085 30.4017 74.0828 31.0478 74.0828H47.636C48.2821 74.0828 48.8078 74.6085 48.8078 75.2547V79.0434C47.6608 79.353 46.8157 80.3978 46.8157 81.6428V83.2305H31.8682V81.6428C31.8682 80.3978 31.023 79.353 29.876 79.0434ZM51.1239 29.2007C51.1239 25.8248 53.861 23.0877 57.2369 23.0877C59.5399 23.0877 61.5447 24.362 62.587 26.2434C59.0496 28.9007 58.3141 32.4658 58.3141 32.4658C58.3141 32.4658 56.5307 33.1687 54.8889 34.8459C52.6786 33.9252 51.1239 31.7446 51.1239 29.2007Z" fill="#2626BB"/>
        <path d="M69.7045 23.5757C69.7045 22.773 69.6267 21.9897 69.4816 21.231L72.8768 18.7656C73.1967 18.5334 73.3244 18.1164 73.1887 17.7452C72.5071 15.8812 71.5089 14.1693 70.2581 12.6761C70.0045 12.3735 69.58 12.2765 69.2193 12.4373L65.3885 14.1442C64.2072 13.124 62.8336 12.3213 61.3286 11.7979L60.8929 7.62813C60.8519 7.23508 60.5554 6.91539 60.1659 6.84766C59.2143 6.68195 58.2356 6.5957 57.2371 6.5957C56.2385 6.5957 55.2609 6.68195 54.3098 6.84766C53.9205 6.91539 53.6243 7.23484 53.583 7.62789L53.1457 11.7979C51.641 12.3213 50.2671 13.124 49.0877 14.1442L45.2561 12.4373C44.8957 12.2767 44.4712 12.3735 44.2179 12.6759C42.9656 14.1691 41.9671 15.8812 41.2854 17.7454C41.1496 18.1166 41.2776 18.5336 41.5973 18.7659L44.9925 21.2312C44.8474 21.9899 44.7696 22.7732 44.7696 23.5759C44.7696 24.377 44.8474 25.1603 44.9925 25.9206L41.5973 28.3844C41.2774 28.6166 41.1494 29.0334 41.2851 29.4048C41.9667 31.2702 42.9651 32.9826 44.2174 34.4758C44.471 34.7784 44.8954 34.8749 45.2561 34.7144L49.0875 33.006C50.2668 34.0281 51.6407 34.8309 53.1454 35.3542L53.5828 39.5235C53.624 39.9166 53.9207 40.236 54.31 40.3037C55.2609 40.469 56.2385 40.5562 57.2369 40.5562C58.2354 40.5562 59.2141 40.469 60.1654 40.3037C60.555 40.236 60.8517 39.9166 60.8929 39.5233L61.3286 35.3542C62.8333 34.8309 64.2072 34.0281 65.3885 33.006L69.2196 34.7144C69.5803 34.8752 70.005 34.7784 70.2586 34.4755C71.5094 32.9823 72.5076 31.2702 73.1892 29.4051C73.3249 29.0338 73.1969 28.6169 72.877 28.3846L69.4818 25.9209C69.6267 25.1601 69.7045 24.3768 69.7045 23.5757ZM57.2371 29.6889C53.8612 29.6889 51.1242 26.9519 51.1242 23.5759C51.1242 20.2 53.8612 17.463 57.2371 17.463C60.6131 17.463 63.3501 20.2 63.3501 23.5759C63.3501 26.9519 60.6131 29.6889 57.2371 29.6889Z" fill="white"/>
        <path d="M46.7153 108.478C47.2457 77.9143 68.399 70.2034 68.399 70.2034H77.924C77.924 70.2034 94.3584 79.4752 100.928 87.2073C104.744 91.7026 106.424 95.9495 98.6451 109.653H87.4748C87.4748 109.653 88.4521 108.31 89.6193 106.478C90.7888 104.647 92.1459 102.324 92.9099 100.367C93.9998 97.5737 94.0959 95.912 94.0748 95.0049C94.0631 94.4049 94.0537 94.0416 92.9592 92.7526C91.6631 91.2268 89.6779 89.5182 87.4748 87.8401V109.653H58.417L46.7153 108.478Z" fill="#6582FD"/>
        <path d="M68.3984 59.3611V70.2044L73.1612 75.8955L77.9241 70.2044V59.3611H68.3984Z" fill="white"/>
        <path d="M68.3988 70.2043L73.1615 75.8954L66.6452 79.3274C65.8062 79.7692 64.7983 79.161 64.7983 78.2127V72.7241C64.7983 71.3324 65.9264 70.2043 67.3181 70.2043H68.3988Z" fill="#6582FD"/>
        <path d="M77.9237 70.2043L73.1616 75.8954L79.678 79.3274C80.517 79.7692 81.5248 79.161 81.5248 78.2127V72.7241C81.5248 71.3324 80.3968 70.2043 79.0051 70.2043H77.9237Z" fill="#6582FD"/>
        <path d="M90.1351 46.5217C91.3412 44.7911 93.6763 40.7381 93.6763 35.2031C93.6763 26.6648 91.0867 21.6403 89.462 19.3284C88.8719 18.4884 87.7724 18.1572 86.8297 18.5638C82.8522 20.2797 77.8705 17.7817 72.2898 17.7817C60.1811 17.7817 58.314 26.8408 58.314 26.8408C58.314 26.8408 52.1929 29.2462 52.1929 35.8066C52.1929 41.3132 54.0644 44.8926 55.165 46.522L90.1351 46.5217Z" fill="#6582FD"/>
        <path d="M58.1744 54.8758C61.0925 54.8758 63.4581 52.5102 63.4581 49.5921C63.4581 46.674 61.0925 44.3083 58.1744 44.3083C55.2562 44.3083 52.8906 46.674 52.8906 49.5921C52.8906 52.5102 55.2562 54.8758 58.1744 54.8758Z" fill="white"/>
        <path d="M88.1485 54.8758C91.0666 54.8758 93.4322 52.5102 93.4322 49.5921C93.4322 46.674 91.0666 44.3083 88.1485 44.3083C85.2304 44.3083 82.8647 46.674 82.8647 49.5921C82.8647 52.5102 85.2304 54.8758 88.1485 54.8758Z" fill="white"/>
        <path d="M73.161 66.1159C66.239 66.1159 60.438 60.8816 59.729 53.9959L58.9249 46.1847C58.056 37.7455 64.6774 30.4075 73.161 30.4075C81.6447 30.4075 88.266 37.7455 87.3972 46.1847L86.5931 53.9959C85.8841 60.8816 80.0831 66.1159 73.161 66.1159Z" fill="white"/>
        <path d="M70.6071 59.6086C70.1814 59.3191 69.8027 58.9568 69.4921 58.5321C69.4884 58.527 69.4846 58.5216 69.4809 58.5164C69.0004 57.8362 69.5317 56.8945 70.3645 56.8945H75.9644C76.7432 56.8945 77.2872 57.7308 76.9073 58.4109C76.8841 58.4524 76.8581 58.493 76.8295 58.5323C76.5208 58.9542 76.1449 59.3149 75.7225 59.6034L70.6071 59.6086Z" fill="#6582FD"/>
        <path d="M75.7215 59.6013C74.9738 60.1122 74.0832 60.3981 73.1621 60.3981C72.2434 60.3981 71.3527 60.1146 70.6074 59.6083C71.1676 58.7997 72.1051 58.27 73.1645 58.27C74.2215 58.27 75.1566 58.795 75.7215 59.6013Z" fill="#2626BB"/>
        <path d="M73.1611 50.5488C72.4622 50.5488 71.8596 50.9611 71.5833 51.5559C71.4249 51.897 71.6728 52.2879 72.0488 52.2879H74.2735C74.6494 52.2879 74.8976 51.897 74.7389 51.5559C74.4628 50.9611 73.8602 50.5488 73.1611 50.5488Z" fill="#6582FD"/>
        <path d="M88.7521 35.6707V41.5207C86.7693 41.5207 84.9131 41.448 83.1764 41.3168C81.4396 41.1691 79.8061 40.5785 78.4021 39.6387C78.4021 39.6387 77.3545 40.0113 75.7068 40.2996C71.9545 40.9582 65.0803 41.1973 60.292 35.6707C60.292 31.541 63.6412 28.1895 67.7732 28.1895H81.2686C85.4006 28.1895 88.7521 31.541 88.7521 35.6707Z" fill="#6582FD"/>
        <path d="M66.7524 49.391C66.1053 49.391 65.5806 48.8662 65.5806 48.2191V47.6133C65.5806 46.9662 66.1053 46.4414 66.7524 46.4414C67.3996 46.4414 67.9243 46.9662 67.9243 47.6133V48.2191C67.9243 48.8662 67.3998 49.391 66.7524 49.391Z" fill="#6582FD"/>
        <path d="M79.5708 49.391C78.9237 49.391 78.3989 48.8662 78.3989 48.2191V47.6133C78.3989 46.9662 78.9237 46.4414 79.5708 46.4414C80.2179 46.4414 80.7427 46.9662 80.7427 47.6133V48.2191C80.7427 48.8662 80.2179 49.391 79.5708 49.391Z" fill="#6582FD"/>
        <path d="M29.1729 81.0569C27.6843 81.0569 26.4775 79.8501 26.4775 78.3616V76.0178C26.4775 74.5293 27.6843 73.3225 29.1729 73.3225C30.6614 73.3225 31.8682 74.5293 31.8682 76.0178V78.3616C31.8682 79.8501 30.6614 81.0569 29.1729 81.0569Z" fill="#6582FD"/>
        <path d="M49.5107 81.0569C48.0222 81.0569 46.8154 79.8501 46.8154 78.3616V76.0178C46.8154 74.5293 48.0222 73.3225 49.5107 73.3225C50.9993 73.3225 52.2061 74.5293 52.2061 76.0178V78.3616C52.2061 79.8501 50.9993 81.0569 49.5107 81.0569Z" fill="#6582FD"/>
        <path d="M58.4172 109.652H20.2666C18.9721 109.652 17.9229 108.603 17.9229 107.308V85.5739L60.761 84.9568V107.308C60.761 108.603 59.7114 109.652 58.4172 109.652Z" fill="#6582FD"/>
        <path d="M54.6672 91.0506H24.0166C20.6512 91.0506 17.9229 88.3223 17.9229 84.9569V79.949C17.9229 78.6545 18.9721 77.6052 20.2666 77.6052H58.4172C59.7117 77.6052 60.761 78.6545 60.761 79.949V84.9569C60.761 88.3225 58.0326 91.0506 54.6672 91.0506Z" fill="white"/>
        <path d="M40.6579 95.3313H38.0264C36.8613 95.3313 35.917 94.387 35.917 93.2219V87.9356C35.917 87.292 36.4387 86.77 37.0825 86.77H38.1274L39.3389 87.9419L40.5569 86.77H41.6018C42.2453 86.77 42.7673 87.2917 42.7673 87.9356V93.2219C42.7673 94.387 41.8228 95.3313 40.6579 95.3313Z" fill="white"/>
        <path d="M40.5565 90.2655V86.7703H38.127V90.2655C38.127 90.9363 38.6707 91.4803 39.3417 91.4803C40.0125 91.4803 40.5565 90.9363 40.5565 90.2655Z" fill="#6582FD"/>
        <path d="M44.3351 43.5142C44.3351 42.7114 44.2573 41.9282 44.1122 41.1695L47.5074 38.7041C47.8273 38.4718 47.955 38.0549 47.8193 37.6836C47.1378 35.8196 46.1396 34.1078 44.8887 32.6146C44.6351 32.312 44.2106 32.215 43.8499 32.3757L40.0186 34.0827C38.8374 33.0625 37.4637 32.2597 35.9588 31.7364L35.5231 27.5666C35.4821 27.1736 35.1856 26.8539 34.796 26.7861C33.8447 26.6204 32.8657 26.5342 31.8673 26.5342C30.8686 26.5342 29.891 26.6204 28.9399 26.7861C28.5506 26.8539 28.2544 27.1733 28.2132 27.5664L27.7758 31.7364C26.2711 32.2597 24.8972 33.0625 23.7178 34.0827L19.8863 32.3757C19.5258 32.2152 19.1014 32.312 18.848 32.6143C17.5957 34.1075 16.5973 35.8196 15.9155 37.6839C15.7798 38.0551 15.9078 38.4721 16.2274 38.7043L19.6226 41.1697C19.4775 41.9282 19.3997 42.7117 19.3997 43.5144C19.3997 44.3155 19.4775 45.0988 19.6226 45.8591L16.2279 48.3226C15.908 48.5549 15.78 48.9716 15.9157 49.3431C16.5973 51.2085 17.5957 52.9208 18.848 54.414C19.1016 54.7166 19.526 54.8132 19.8867 54.6526L23.7181 52.9443C24.8974 53.9664 26.2714 54.7691 27.776 55.2925L28.2134 59.4618C28.2546 59.8548 28.5514 60.1743 28.9407 60.242C29.8915 60.4072 30.8691 60.4944 31.8675 60.4944C32.866 60.4944 33.8447 60.4072 34.796 60.242C35.1856 60.1743 35.4823 59.8548 35.5235 59.4615L35.9592 55.2925C37.4639 54.7691 38.8378 53.9664 40.0191 52.9443L43.8502 54.6526C44.2109 54.8134 44.6356 54.7166 44.8892 54.4138C46.14 52.9206 47.1382 51.2085 47.8198 49.3433C47.9555 48.9721 47.8275 48.5551 47.5076 48.3229L44.1124 45.8591C44.2573 45.0986 44.3351 44.3153 44.3351 43.5142ZM31.8678 49.6271C28.4918 49.6271 25.7548 46.8901 25.7548 43.5142C25.7548 40.1382 28.4918 37.4012 31.8678 37.4012C35.2437 37.4012 37.9807 40.1382 37.9807 43.5142C37.9807 46.8901 35.2437 49.6271 31.8678 49.6271Z" fill="#6582FD"/>
        <path d="M88.1742 75.2072C87.6375 74.8461 86.9093 74.9883 86.5479 75.5253C86.1865 76.0622 86.329 76.7904 86.866 77.1516C92.945 81.2415 97.4986 84.9811 100.034 87.9671C103.501 92.0482 105.206 95.7221 97.6275 109.074C97.3081 109.637 97.5054 110.352 98.0682 110.671C98.2507 110.775 98.4495 110.824 98.6456 110.824C99.0537 110.824 99.45 110.611 99.6659 110.231C103.429 103.6 105.222 98.7615 105.307 95.004C105.388 91.4061 103.972 88.9824 101.821 86.4497C99.1097 83.2578 94.5183 79.4754 88.1742 75.2072Z" fill="#2626BB"/>
        <path d="M88.1838 86.9068C87.8294 86.6372 87.353 86.5915 86.9536 86.7893C86.5547 86.9872 86.3022 87.394 86.3022 87.8394V109.652C86.3022 110.16 86.629 110.61 87.1113 110.767C87.2308 110.806 87.3529 110.824 87.4739 110.824C87.8414 110.824 88.1965 110.651 88.4212 110.342C88.5846 110.118 92.4401 104.802 94.0022 100.794C94.8776 98.547 95.2851 96.6453 95.2474 94.9798C95.2263 94.0414 95.0819 93.4409 93.8526 91.9934C92.6215 90.5436 90.7141 88.8322 88.1838 86.9068ZM92.9046 95.0328C92.9351 96.3833 92.5798 97.9894 91.8187 99.9429C91.0938 101.803 89.7822 104.043 88.6462 105.825V90.2604C90.1151 91.4738 91.2612 92.5627 92.0667 93.511C92.8922 94.4829 92.8957 94.6437 92.9046 95.0328Z" fill="#2626BB"/>
        <path d="M105.1 68.7837H91.3691C90.722 68.7837 90.1973 69.3085 90.1973 69.9556C90.1973 70.6027 90.722 71.1274 91.3691 71.1274H105.1C105.747 71.1274 106.271 70.6027 106.271 69.9556C106.271 69.3085 105.747 68.7837 105.1 68.7837Z" fill="#2626BB"/>
        <path d="M90.1973 65.1785C90.1973 65.8256 90.722 66.3503 91.3691 66.3503H99.172C99.8191 66.3503 100.344 65.8256 100.344 65.1785C100.344 64.5314 99.8191 64.0066 99.172 64.0066H91.3691C90.722 64.0066 90.1973 64.5314 90.1973 65.1785Z" fill="#2626BB"/>
        <path d="M91.3691 61.6007C92.0163 61.6007 92.541 61.0759 92.541 60.4288V60.4019C92.541 59.7547 92.0163 59.23 91.3691 59.23C90.722 59.23 90.1973 59.7547 90.1973 60.4019V60.4288C90.1973 61.0759 90.722 61.6007 91.3691 61.6007Z" fill="#2626BB"/>
        <path d="M94.0259 60.4016V60.4286C94.0259 61.0757 94.5506 61.6004 95.1978 61.6004C95.8449 61.6004 96.3696 61.0757 96.3696 60.4286V60.4016C96.3696 59.7545 95.8449 59.2297 95.1978 59.2297C94.5506 59.2297 94.0259 59.7545 94.0259 60.4016Z" fill="#2626BB"/>
        <path d="M92.5055 44.8334C93.6656 42.5623 94.8469 39.2553 94.8469 35.2029C94.8469 26.2779 92.0719 21.0045 90.4195 18.6561C89.5102 17.3576 87.8039 16.8678 86.3649 17.4889C84.2766 18.3889 81.7289 17.9225 78.7781 17.3787C77.2477 17.0975 75.6797 16.8115 74.0297 16.6803C73.3242 14.96 72.361 13.3615 71.1563 11.9248C70.568 11.2217 69.5742 10.9943 68.7445 11.367L65.5711 12.7803C64.6008 12.0303 63.5461 11.4209 62.4188 10.9592L62.0578 7.50449C61.9617 6.59512 61.2656 5.8498 60.368 5.69277C58.3172 5.33418 56.1633 5.33418 54.1078 5.69277C53.2102 5.8498 52.5141 6.59512 52.418 7.50684L52.0547 10.9592C50.9274 11.4209 49.8727 12.0303 48.9047 12.7803L45.7336 11.3693C44.8992 10.9943 43.9055 11.224 43.3196 11.9248C41.9625 13.542 40.9078 15.3654 40.186 17.3436C39.8696 18.199 40.1672 19.174 40.9078 19.7154L43.7203 21.7568C43.6383 22.3592 43.5985 22.9686 43.5985 23.5756C43.5985 24.1826 43.6383 24.792 43.7203 25.3943L40.9078 27.4381C40.1672 27.9771 39.8696 28.9521 40.1836 29.8076C40.4883 30.6396 40.8586 31.4529 41.2852 32.2357L40.2024 32.7186C39.2344 31.9709 38.1774 31.3592 37.05 30.8975L36.6891 27.4451C36.593 26.5334 35.8992 25.7881 34.9969 25.6311C32.9461 25.2748 30.7899 25.2748 28.7391 25.6311C27.8391 25.7881 27.143 26.5334 27.0492 27.4451L26.686 30.8975C25.5586 31.3592 24.5016 31.9709 23.536 32.7186L20.3649 31.3053C19.5305 30.9326 18.5367 31.1623 17.9508 31.8607C16.5938 33.4803 15.5391 35.3037 14.8149 37.2818C14.5008 38.1396 14.7985 39.1146 15.5391 39.6514L18.3516 41.6951C18.2696 42.2975 18.2297 42.9092 18.2297 43.5139C18.2297 44.1186 18.2696 44.7279 18.3516 45.335L15.5414 47.374C14.7985 47.9107 14.5008 48.8857 14.8149 49.7459C15.5391 51.724 16.5938 53.5475 17.9508 55.167C18.5367 55.8654 19.5305 56.0951 20.3649 55.7225L23.536 54.3092C24.5016 55.0568 25.5563 55.6686 26.686 56.1326L27.0492 59.5826C27.143 60.4943 27.8391 61.2396 28.7414 61.3967C29.7703 61.5748 30.8227 61.6662 31.868 61.6662C32.9133 61.6662 33.9657 61.5748 34.9969 61.3967C35.8969 61.2396 36.593 60.4943 36.6891 59.5826L37.05 56.1326C38.1797 55.6686 39.2344 55.0568 40.2024 54.3092L43.3735 55.7225C44.2078 56.0951 45.2016 55.8654 45.7875 55.167C47.1446 53.5475 48.1969 51.724 48.9211 49.7459C49.2352 48.8857 48.9352 47.9107 48.1969 47.374L45.3844 45.335C45.4664 44.7279 45.5063 44.1186 45.5063 43.5139C45.5063 42.9092 45.4664 42.2975 45.3844 41.6951L48.1969 39.6514C48.9375 39.1146 49.2352 38.1396 48.9211 37.2818C48.6141 36.4428 48.2438 35.6318 47.8196 34.8537L48.9047 34.3686C49.5703 34.8842 50.2781 35.3342 51.0235 35.7162C51.0235 35.7467 51.0211 35.7771 51.0211 35.8076C51.0211 40.1436 52.125 43.3686 53.2008 45.4826C52.275 46.5982 51.7196 48.0303 51.7196 49.5912C51.7196 53.1514 54.6141 56.0482 58.1742 56.0482C58.4133 56.0482 58.65 56.0295 58.8844 56.0037C59.9555 60.5529 63.0938 64.2256 67.2258 66.0443V69.0373C65.7703 69.0725 64.5211 69.9561 63.9539 71.2123C61.6617 72.6537 59.5008 74.4068 57.518 76.4342H53.3789V76.017C53.3789 74.4701 52.4649 73.1389 51.1524 72.5201V69.6303C51.1524 67.692 49.575 66.1147 47.6367 66.1147H31.0477C29.1094 66.1147 27.5321 67.692 27.5321 69.6303V72.5201C26.2196 73.1389 25.3055 74.4725 25.3055 76.017V76.4342H20.2664C18.3281 76.4342 16.7508 78.0115 16.7508 79.9498V107.308C16.7508 109.247 18.3281 110.824 20.2664 110.824H27.7078C28.3547 110.824 28.8797 110.299 28.8797 109.652C28.8797 109.005 28.3547 108.48 27.7078 108.48H20.2664C19.6196 108.48 19.0946 107.955 19.0946 107.308V90.2951C20.3906 91.4904 22.118 92.2217 24.0164 92.2217H34.7447V93.222C34.7447 95.0314 36.2166 96.5032 38.026 96.5032H40.6575C42.4669 96.5032 43.9388 95.0314 43.9388 93.222V92.2217H54.668C56.5641 92.2217 58.2938 91.4904 59.5899 90.2951V107.308C59.5899 107.955 59.0625 108.48 58.418 108.48H34.6289C33.9821 108.48 33.4571 109.005 33.4571 109.652C33.4571 110.299 33.9821 110.824 34.6289 110.824H58.418C60.3563 110.824 61.9336 109.247 61.9336 107.308V79.9498C61.9336 78.7053 61.282 77.6131 60.3047 76.9873C61.3664 75.9936 62.475 75.0795 63.6258 74.2545V78.2131C63.6258 79.0732 64.0664 79.8514 64.8024 80.2943C65.1914 80.5287 65.6227 80.6482 66.0563 80.6482C66.4453 80.6482 66.8321 80.5522 67.1906 80.3647L71.9906 77.8381V109.654H74.3344V77.8381L79.132 80.3647C79.4906 80.5522 79.8774 80.6482 80.2664 80.6482C80.7 80.6482 81.1336 80.5287 81.5203 80.2943C82.2563 79.8514 82.6969 79.0732 82.6969 78.2131V72.724C82.6969 70.7201 81.0891 69.0865 79.0969 69.0373V66.0467C83.2289 64.2256 86.3672 60.5529 87.4383 56.0037C87.675 56.0295 87.9094 56.0482 88.1485 56.0482C91.7086 56.0482 94.6031 53.1514 94.6031 49.5912C94.6031 47.7092 93.7945 46.0146 92.5055 44.8334ZM51.0352 76.017V76.4342H47.9883V76.017C47.9883 75.1779 48.6727 74.4936 49.5117 74.4936C50.3508 74.4936 51.0352 75.1779 51.0352 76.017ZM29.8758 69.6303C29.8758 68.9834 30.4008 68.4584 31.0477 68.4584H47.6367C48.2813 68.4584 48.8086 68.9834 48.8086 69.6303V72.2178C47.011 72.5506 45.6446 74.1256 45.6446 76.017V76.4342H33.0399V76.017C33.0399 74.1256 31.6735 72.5482 29.8758 72.2178V69.6303ZM27.6492 76.017C27.6492 75.1779 28.3336 74.4936 29.1727 74.4936C30.0117 74.4936 30.6961 75.1779 30.6961 76.017V76.4342H27.6492V76.017ZM41.595 93.222C41.595 93.739 41.1746 94.1595 40.6575 94.1595H38.026C37.5089 94.1595 37.0885 93.739 37.0885 93.222L37.0821 87.9422L41.595 87.9359V93.222ZM59.5899 84.9561C59.5899 87.6701 57.382 89.8779 54.668 89.8779H43.9388V87.9357C43.9388 86.6468 42.8902 85.5982 41.6013 85.5982H37.0819C35.7931 85.5982 34.7445 86.6468 34.7445 87.9357V89.8779H24.0164C21.3024 89.8779 19.0946 87.6701 19.0946 84.9561V79.9498C19.0946 79.3029 19.6196 78.7779 20.2664 78.7779H58.418C59.0625 78.7779 59.5899 79.3029 59.5899 79.9498V84.9561ZM43.425 40.2209C43.0571 40.4881 42.8766 40.9428 42.961 41.3904C43.0946 42.0912 43.1625 42.8061 43.1625 43.5139C43.1625 44.2217 43.0946 44.9365 42.961 45.6396C42.8766 46.085 43.0571 46.5396 43.425 46.8068L46.643 49.1436C46.043 50.7209 45.1992 52.1811 44.1281 53.4936L40.4953 51.874C40.0805 51.6889 39.5953 51.7615 39.2531 52.0568C38.1656 52.999 36.9281 53.7139 35.5735 54.185C35.1446 54.335 34.8422 54.7193 34.793 55.1693L34.3805 59.1232C32.7211 59.3881 31.0172 59.3881 29.3555 59.1232L28.943 55.1693C28.8938 54.717 28.5914 54.335 28.1625 54.185C26.8078 53.7139 25.5703 52.999 24.4852 52.0592C24.143 51.7592 23.6555 51.6889 23.2407 51.874L19.6078 53.4936C18.5391 52.1834 17.693 50.7209 17.093 49.1436L20.311 46.8068C20.6789 46.5396 20.8594 46.085 20.775 45.6396C20.6414 44.9365 20.5735 44.2217 20.5735 43.5139C20.5735 42.8061 20.6414 42.0912 20.775 41.3904C20.8594 40.9428 20.6789 40.4881 20.311 40.2209L17.093 37.8842C17.693 36.3068 18.5391 34.8443 19.6078 33.5342L23.2407 35.1537C23.6578 35.3389 24.1406 35.2662 24.4852 34.9686C25.5727 34.0287 26.8078 33.3139 28.1625 32.8428C28.5914 32.6951 28.8938 32.3107 28.943 31.8584L29.3555 27.9045C31.0078 27.642 32.7305 27.642 34.3805 27.9045L34.793 31.8584C34.8422 32.3107 35.1446 32.6928 35.5735 32.8428C36.9258 33.3139 38.1633 34.0287 39.2531 34.9686C39.5977 35.2662 40.0805 35.3389 40.4953 35.1537L44.1281 33.5342C45.1969 34.8467 46.043 36.3068 46.643 37.8842L43.425 40.2209ZM51.3281 33.199C50.8102 32.8803 50.318 32.5193 49.8563 32.1186C49.5117 31.8209 49.0266 31.7482 48.6094 31.9334L46.5539 32.8498C46.3102 32.5146 46.0571 32.1842 45.7875 31.8631C45.2156 31.1787 44.2571 30.9467 43.4367 31.2795C43.0617 30.6115 42.7336 29.9178 42.4617 29.2053L45.6821 26.8686C46.05 26.6014 46.2281 26.1443 46.1438 25.699C46.0102 24.9982 45.9422 24.2857 45.9422 23.5756C45.9422 22.8631 46.0102 22.1506 46.1438 21.4521C46.2305 21.0068 46.05 20.5498 45.6821 20.2826L42.4617 17.9459C43.0617 16.3686 43.9078 14.9084 44.9766 13.5959L48.6117 15.2154C49.0266 15.4006 49.5094 15.3279 49.8539 15.0303C50.9438 14.0881 52.1789 13.3732 53.5289 12.9045C53.9578 12.7568 54.2625 12.3725 54.3094 11.9201L54.7266 7.96621C56.3789 7.70137 58.0992 7.70137 59.7492 7.96621L60.1641 11.9201C60.211 12.3725 60.5156 12.7568 60.9445 12.9045C62.2922 13.3732 63.5297 14.0881 64.6219 15.0326C64.9664 15.3279 65.4492 15.3982 65.8641 15.2154L69.4992 13.5959C70.261 14.5334 70.9055 15.5482 71.4352 16.6264C67.6852 16.76 64.9125 17.7537 62.8969 18.9982C61.5258 17.3061 59.4539 16.2912 57.2367 16.2912C53.2196 16.2912 49.9524 19.5584 49.9524 23.5756C49.9524 25.992 51.1336 28.1975 53.0555 29.5404C52.3172 30.5318 51.6821 31.7436 51.3281 33.199ZM52.2961 23.5756C52.2961 20.8521 54.5133 18.635 57.2367 18.635C58.7086 18.635 60.0844 19.2912 61.0149 20.3951C60.5836 20.7795 60.2063 21.1662 59.8781 21.5389C58.3289 23.3131 57.6164 25.099 57.3305 26.0014C56.7258 26.3037 55.711 26.8826 54.6703 27.799C53.2078 26.9131 52.2961 25.3264 52.2961 23.5756ZM58.1742 53.7045C55.9078 53.7045 54.0633 51.86 54.0633 49.5912C54.0633 47.4842 55.6571 45.7451 57.7008 45.5107C57.7125 45.7756 57.7313 46.0404 57.7594 46.3053L58.5211 53.6881C58.4063 53.6998 58.2891 53.7045 58.1742 53.7045ZM66.0985 78.2904C66.0844 78.2998 66.0563 78.3139 66.0117 78.2881C65.9696 78.2623 65.9696 78.2295 65.9696 78.2131V72.724C65.9696 71.9811 66.5742 71.3764 67.3172 71.3764H67.8516L71.3321 75.5342L66.0985 78.2904ZM73.1625 74.0693L69.5695 69.7779V66.8459C70.7203 67.1342 71.925 67.2889 73.1625 67.2889C74.4 67.2889 75.6024 67.1342 76.7531 66.8459V69.7779L73.1625 74.0693ZM80.3531 72.724V78.2131C80.3531 78.2295 80.3531 78.2623 80.311 78.2881C80.2688 78.3139 80.2383 78.2998 80.2242 78.2904L74.9906 75.5342L78.4711 71.3764H79.0055C79.7485 71.3764 80.3531 71.9811 80.3531 72.724ZM86.2336 46.0662L85.4297 53.8756C84.7781 60.185 79.5047 64.9451 73.1625 64.9451C66.818 64.9451 61.5446 60.185 60.8953 53.8756L60.0891 46.0662C59.8219 43.4482 60.3492 40.8139 61.5797 38.5146C64.8985 41.1115 68.7 41.8287 71.8852 41.8287C74.8031 41.8287 77.2031 41.2287 78.2485 40.917C79.7414 41.81 81.4383 42.3678 83.2172 42.4967C84.1688 42.567 85.1485 42.6162 86.1399 42.649C86.2453 43.3217 86.3039 44.0084 86.3039 44.6998C86.3039 45.1498 86.2805 45.6092 86.2336 46.0662ZM88.1485 53.7045C88.0336 53.7045 87.9188 53.6998 87.8039 53.6904L88.5633 46.3053C88.5914 46.0404 88.6125 45.7756 88.6266 45.5107C90.668 45.7475 92.2594 47.4865 92.2594 49.5912C92.2594 51.86 90.4149 53.7045 88.1485 53.7045ZM90.5086 43.5842C89.8992 43.3451 89.2477 43.1951 88.5656 43.1506C88.5422 42.9115 88.5117 42.6725 88.4766 42.4357C88.7485 42.2248 88.9266 41.899 88.9313 41.5287C88.9406 40.8818 88.4227 40.3498 87.7735 40.3428C86.2805 40.324 84.8063 40.2631 83.3883 40.16C80.2289 39.9279 77.386 38.0084 75.9656 35.1514C75.6774 34.5701 74.9742 34.3334 74.3953 34.6217C73.8141 34.91 73.5774 35.6131 73.8656 36.1943C74.3977 37.2631 75.0914 38.2264 75.9047 39.0631C72.5086 39.7146 65.7375 40.167 61.1766 34.9053C60.7524 34.4154 60.0141 34.3615 59.5242 34.7857C59.0344 35.21 58.9828 35.9506 59.4071 36.4404C59.5383 36.5904 59.6719 36.7381 59.8055 36.8834C58.6805 38.8029 57.9867 40.9451 57.7617 43.1506C56.7844 43.2139 55.868 43.4928 55.0547 43.9428C54.1875 42.0818 53.3649 39.3771 53.3649 35.8076C53.3649 30.1498 58.5281 28.017 58.7438 27.9303C59.1094 27.7873 59.3789 27.4662 59.461 27.0818C59.5336 26.749 61.3383 18.9537 72.2906 18.9537C74.3766 18.9537 76.3992 19.3264 78.3563 19.685C81.5414 20.2709 84.5531 20.824 87.293 19.6404C87.7172 19.4576 88.2258 19.61 88.5024 20.0037C89.9977 22.1248 92.5031 26.9225 92.5031 35.2029C92.5031 38.6975 91.5117 41.5709 90.5086 43.5842Z" fill="#2626BB"/>
        <path d="M73.1611 86.6675C73.8083 86.6675 74.333 86.1428 74.333 85.4956C74.333 84.8484 73.8083 84.3237 73.1611 84.3237C72.5139 84.3237 71.9893 84.8484 71.9893 85.4956C71.9893 86.1428 72.5139 86.6675 73.1611 86.6675Z" fill="white"/>
        <path d="M73.1611 95.9727C73.8083 95.9727 74.333 95.448 74.333 94.8008C74.333 94.1536 73.8083 93.6289 73.1611 93.6289C72.5139 93.6289 71.9893 94.1536 71.9893 94.8008C71.9893 95.448 72.5139 95.9727 73.1611 95.9727Z" fill="white"/>
        <path d="M73.1611 105.278C73.8083 105.278 74.333 104.753 74.333 104.106C74.333 103.459 73.8083 102.934 73.1611 102.934C72.5139 102.934 71.9893 103.459 71.9893 104.106C71.9893 104.753 72.5139 105.278 73.1611 105.278Z" fill="white"/>
        <path d="M31.8679 36.2292C27.8509 36.2292 24.583 39.4971 24.583 43.5143C24.583 47.5313 27.8509 50.7992 31.8679 50.7992C35.8848 50.7992 39.1529 47.5313 39.1529 43.5143C39.1527 39.4971 35.8848 36.2292 31.8679 36.2292ZM31.8679 48.4552C29.1432 48.4552 26.9268 46.2385 26.9268 43.5141C26.9268 40.7895 29.1435 38.5728 31.8679 38.5728C34.5925 38.5728 36.8092 40.7895 36.8092 43.5141C36.8089 46.2387 34.5925 48.4552 31.8679 48.4552Z" fill="#2626BB"/>
        <path d="M15.8622 68.683C15.2151 68.683 14.6904 68.1582 14.6904 67.5111C14.6904 66.6926 14.0245 66.0268 13.2061 66.0268C12.5589 66.0268 12.0342 65.502 12.0342 64.8549C12.0342 64.2078 12.5589 63.683 13.2061 63.683C14.0245 63.683 14.6904 63.0172 14.6904 62.1987C14.6904 61.5516 15.2151 61.0269 15.8622 61.0269C16.5093 61.0269 17.0341 61.5516 17.0341 62.1987C17.0341 63.0172 17.7 63.683 18.5184 63.683C19.1655 63.683 19.6903 64.2078 19.6903 64.8549C19.6903 65.502 19.1655 66.0268 18.5184 66.0268C17.7 66.0268 17.0341 66.6926 17.0341 67.5111C17.0341 68.1582 16.5093 68.683 15.8622 68.683Z" fill="#6582FD"/>
        <path d="M103.225 34.7596C102.577 34.7596 102.053 34.2348 102.053 33.5877C102.053 32.7693 101.387 32.1034 100.568 32.1034C99.9213 32.1034 99.3965 31.5787 99.3965 30.9316C99.3965 30.2845 99.9213 29.7597 100.568 29.7597C101.387 29.7597 102.053 29.0938 102.053 28.2754C102.053 27.6283 102.577 27.1035 103.225 27.1035C103.872 27.1035 104.396 27.6283 104.396 28.2754C104.396 29.0938 105.062 29.7597 105.881 29.7597C106.528 29.7597 107.053 30.2845 107.053 30.9316C107.053 31.5787 106.528 32.1034 105.881 32.1034C105.062 32.1034 104.396 32.7693 104.396 33.5877C104.396 34.2348 103.872 34.7596 103.225 34.7596Z" fill="#6582FD"/>
        <path d="M21.1747 24.2667C20.5276 24.2667 20.0029 23.7419 20.0029 23.0948C20.0029 22.2764 19.337 21.6105 18.5186 21.6105C17.8714 21.6105 17.3467 21.0858 17.3467 20.4386C17.3467 19.7915 17.8714 19.2668 18.5186 19.2668C19.337 19.2668 20.0029 18.6009 20.0029 17.7825C20.0029 17.1354 20.5276 16.6106 21.1747 16.6106C21.8218 16.6106 22.3466 17.1354 22.3466 17.7825C22.3466 18.6009 23.0125 19.2668 23.8309 19.2668C24.478 19.2668 25.0028 19.7915 25.0028 20.4386C25.0028 21.0858 24.478 21.6105 23.8309 21.6105C23.0125 21.6105 22.3466 22.2764 22.3466 23.0948C22.3466 23.7419 21.8218 24.2667 21.1747 24.2667Z" fill="#6582FD"/>
        <path d="M108.118 83.1133C107.818 83.1133 107.518 82.9989 107.289 82.7702L106.008 81.4895L104.728 82.7702C104.27 83.2277 103.528 83.2277 103.07 82.7702C102.613 82.3124 102.613 81.5704 103.07 81.1129L105.18 79.0035C105.637 78.546 106.379 78.546 106.837 79.0035L108.946 81.1129C109.404 81.5706 109.404 82.3127 108.946 82.7702C108.717 82.9987 108.418 83.1133 108.118 83.1133Z" fill="#6582FD"/>
        <path d="M81.6796 11.115C81.3796 11.115 81.0799 11.0006 80.8509 10.7719L79.5703 9.49125L78.2896 10.7719C77.8319 11.2294 77.0901 11.2294 76.6324 10.7719C76.1746 10.3141 76.1746 9.57211 76.6324 9.11461L78.7417 7.00523C79.1995 6.54773 79.9413 6.54773 80.399 7.00523L82.5084 9.11461C82.9661 9.57234 82.9661 10.3144 82.5084 10.7719C82.2796 11.0006 81.9796 11.115 81.6796 11.115Z" fill="#6582FD"/>
    </g>
    <defs>
        <linearGradient id="paint0_linear_302_148" x1="-0.827377" y1="94.236" x2="100.56" y2="-7.1516" gradientUnits="userSpaceOnUse">
            <stop stop-color="#D1DDFF" stop-opacity="0"/>
            <stop offset="1" stop-color="#B6C4FF"/>
        </linearGradient>
        <clipPath id="clip0_302_148">
            <rect width="120" height="120" fill="white"/>
        </clipPath>
    </defs>
</svg>
