<svg width="120" height="120" viewBox="0 0 120 120" fill="none" xmlns="http://www.w3.org/2000/svg">
    <g clip-path="url(#clip0_302_340)">
        <path d="M114.253 10.6188C106.012 -1.26265 85.6345 -2.64405 74.1129 3.84556C53.4115 15.5059 66.4221 39.6656 45.2259 46.7277C34.7808 50.208 22.4065 31.2559 7.97415 39.1858C-7.19132 47.5185 1.80189 102.949 17.1253 115.08C28.0594 123.737 38.5828 120.938 41.1155 106.936C42.061 101.71 42.3319 96.1352 45.1345 91.6232C51.9539 80.6449 66.7636 81.6468 78.0363 79.3099C118.842 70.8499 127.131 29.1867 114.253 10.6188Z" fill="url(#paint0_linear_302_340)"/>
        <path opacity="0.1" d="M105.909 53.6758L98.2262 50.3436V38.9387C98.2262 37.6443 97.1769 36.595 95.8824 36.595C94.5879 36.595 93.5387 37.6443 93.5387 38.9387V48.3104L91.1783 47.2867C89.6291 46.614 87.9017 47.7484 87.9017 49.4359V83.0694H79.4274H8.38834H5.09326C4.44615 83.0694 3.92139 83.5942 3.92139 84.2413V89.2419C3.92139 89.889 4.44615 90.4138 5.09326 90.4138H9.23771C9.23771 94.8271 12.8154 98.405 17.229 98.405C21.6425 98.405 25.2202 94.8273 25.2202 90.4138C25.2202 94.8271 28.798 98.405 33.2115 98.405C36.6132 98.405 39.5166 96.2786 40.6697 93.2832C40.9269 93.3803 41.2044 93.4356 41.4955 93.4356H55.9669C57.2614 93.4356 58.3107 92.3863 58.3107 91.0918V90.4138H62.8409V91.0918C62.8409 92.3863 63.8902 93.4356 65.1847 93.4356H71.9731C73.2676 93.4356 74.3169 92.3863 74.3169 91.0918V90.4138L90.9404 90.414C90.9406 94.8273 94.5181 98.4048 98.9314 98.4048C103.345 98.4048 106.922 94.8271 106.923 90.414H113.735C115.029 90.414 116.079 89.3647 116.079 88.0703V69.1726C116.078 62.4414 112.082 56.3547 105.909 53.6758Z" fill="#0000CC"/>
        <path d="M98.9312 92.7801C103.345 92.7801 106.922 89.2023 106.922 84.7889C106.922 80.3754 103.345 76.7976 98.9312 76.7976C94.5177 76.7976 90.9399 80.3754 90.9399 84.7889C90.9399 89.2023 94.5177 92.7801 98.9312 92.7801Z" fill="#6583FE"/>
        <path d="M98.9312 88.2788C100.859 88.2788 102.421 86.7163 102.421 84.7889C102.421 82.8615 100.859 81.2991 98.9312 81.2991C97.0039 81.2991 95.4414 82.8615 95.4414 84.7889C95.4414 86.7163 97.0039 88.2788 98.9312 88.2788Z" fill="white"/>
        <path d="M90.9725 84.7887H5.09326C4.44615 84.7887 3.92139 84.2639 3.92139 83.6168V78.6162C3.92139 77.9691 4.44615 77.4443 5.09326 77.4443H90.9725C91.6196 77.4443 92.1444 77.9691 92.1444 78.6162V83.6168C92.1444 84.2639 91.6198 84.7887 90.9725 84.7887Z" fill="white"/>
        <path d="M116.078 63.5476V82.4452C116.078 83.7397 115.029 84.789 113.735 84.789H106.922C105.874 84.789 104.967 84.0896 104.669 83.0848C103.935 80.6103 101.644 78.8054 98.9315 78.8054C96.2189 78.8054 93.9279 80.6103 93.194 83.0848C92.8961 84.0894 91.9887 84.789 90.9408 84.789H87.9019V43.8108C87.9019 42.1233 89.6292 40.989 91.1784 41.6616L105.909 48.0507C112.082 50.7296 116.078 56.8163 116.078 63.5476Z" fill="white"/>
        <path d="M110.603 72.481V84.7887H113.734C115.029 84.7887 116.078 83.7394 116.078 82.4449V70.1372H112.946C111.652 70.1372 110.603 71.1865 110.603 72.481Z" fill="#6583FE"/>
        <path d="M110.603 78.8042V84.7885H113.734C115.029 84.7885 116.078 83.7392 116.078 82.4448V78.8042H110.603Z" fill="#6583FE"/>
        <path d="M110.603 77.7473H116.078V80.6604H110.603V77.7473Z" fill="white"/>
        <path d="M98.9004 54.882L98.9342 63.697C98.9391 64.988 99.987 66.0319 101.278 66.0319H116.078L116.078 63.5477C116.078 59.4188 114.572 55.5352 111.984 52.5295H101.244C99.9462 52.5291 98.8955 53.584 98.9004 54.882Z" fill="#6583FE"/>
        <path d="M90.2451 61.8193C88.9507 61.8193 87.9014 60.77 87.9014 59.4756V52.9229C87.9014 50.1301 89.6878 47.6795 92.3468 46.8247C93.0597 46.5955 93.539 45.9383 93.539 45.1893V33.3137C93.539 32.0193 94.5883 30.97 95.8828 30.97C97.1772 30.97 98.2265 32.0193 98.2265 33.3137V45.1893C98.2265 47.9821 96.4401 50.4327 93.7811 51.2875C93.0682 51.5169 92.5889 52.1741 92.5889 52.9232V59.4758C92.5889 60.77 91.5396 61.8193 90.2451 61.8193Z" fill="#6583FE"/>
        <path d="M92.68 66.0318H87.9014V58.9094H92.68C93.9745 58.9094 95.0238 59.9587 95.0238 61.2532V63.6881C95.0238 64.9825 93.9745 66.0318 92.68 66.0318Z" fill="#6583FE"/>
        <path d="M98.9312 70.8303C98.9312 70.2285 99.4189 69.7407 100.021 69.7407H103.021C103.623 69.7407 104.111 70.2285 104.111 70.8303C104.111 71.4322 103.623 71.9199 103.021 71.9199H100.021C99.4189 71.9199 98.9312 71.432 98.9312 70.8303Z" fill="#0000CC"/>
        <path d="M55.9666 81.7676H41.4951C40.2007 81.7676 39.1514 82.8169 39.1514 84.1113V85.4667C39.1514 86.7612 40.2007 87.8105 41.4951 87.8105H55.9666C57.2611 87.8105 58.3104 86.7612 58.3104 85.4667V84.1113C58.3104 82.8169 57.2611 81.7676 55.9666 81.7676Z" fill="#6583FE"/>
        <path d="M62.8408 84.1113V85.4667C62.8408 86.7612 63.8901 87.8105 65.1846 87.8105H71.973C73.2675 87.8105 74.3168 86.7612 74.3168 85.4667V84.1113C74.3168 82.8169 73.2675 81.7676 71.973 81.7676H65.1846C63.8901 81.7676 62.8408 82.8169 62.8408 84.1113Z" fill="#6583FE"/>
        <path d="M33.211 92.7801C37.6244 92.7801 41.2022 89.2023 41.2022 84.7889C41.2022 80.3754 37.6244 76.7976 33.211 76.7976C28.7975 76.7976 25.2197 80.3754 25.2197 84.7889C25.2197 89.2023 28.7975 92.7801 33.211 92.7801Z" fill="#6583FE"/>
        <path d="M33.211 88.2788C35.1384 88.2788 36.7009 86.7163 36.7009 84.7889C36.7009 82.8615 35.1384 81.2991 33.211 81.2991C31.2836 81.2991 29.7212 82.8615 29.7212 84.7889C29.7212 86.7163 31.2836 88.2788 33.211 88.2788Z" fill="white"/>
        <path d="M17.2286 92.7801C21.642 92.7801 25.2198 89.2023 25.2198 84.7889C25.2198 80.3754 21.642 76.7976 17.2286 76.7976C12.8151 76.7976 9.2373 80.3754 9.2373 84.7889C9.2373 89.2023 12.8151 92.7801 17.2286 92.7801Z" fill="#6583FE"/>
        <path d="M17.2286 88.2788C19.156 88.2788 20.7185 86.7163 20.7185 84.7889C20.7185 82.8615 19.156 81.2991 17.2286 81.2991C15.3012 81.2991 13.7388 82.8615 13.7388 84.7889C13.7388 86.7163 15.3012 88.2788 17.2286 88.2788Z" fill="white"/>
        <path d="M27.5977 110.831C26.9505 110.831 26.4258 110.306 26.4258 109.659C26.4258 108.948 25.8476 108.37 25.1367 108.37C24.4896 108.37 23.9648 107.845 23.9648 107.198C23.9648 106.551 24.4896 106.026 25.1367 106.026C25.8476 106.026 26.4258 105.448 26.4258 104.737C26.4258 104.09 26.9505 103.565 27.5977 103.565C28.2448 103.565 28.7695 104.09 28.7695 104.737C28.7695 105.448 29.3477 106.026 30.0586 106.026C30.7057 106.026 31.2305 106.551 31.2305 107.198C31.2305 107.845 30.7057 108.37 30.0586 108.37C29.3477 108.37 28.7695 108.948 28.7695 109.659C28.7695 110.307 28.2448 110.831 27.5977 110.831Z" fill="#6583FE"/>
        <path d="M73.873 24.6191C73.2259 24.6191 72.7012 24.0944 72.7012 23.4473C72.7012 22.7364 72.123 22.1582 71.4121 22.1582C70.765 22.1582 70.2402 21.6334 70.2402 20.9863C70.2402 20.3392 70.765 19.8145 71.4121 19.8145C72.123 19.8145 72.7012 19.2363 72.7012 18.5254C72.7012 17.8783 73.2259 17.3535 73.873 17.3535C74.5202 17.3535 75.0449 17.8783 75.0449 18.5254C75.0449 19.2363 75.6231 19.8145 76.334 19.8145C76.9811 19.8145 77.5059 20.3392 77.5059 20.9863C77.5059 21.6334 76.9811 22.1582 76.334 22.1582C75.6231 22.1582 75.0449 22.7364 75.0449 23.4473C75.0449 24.0944 74.5202 24.6191 73.873 24.6191Z" fill="#6583FE"/>
        <path d="M18.1918 104.052C17.8918 104.052 17.5921 103.937 17.3631 103.708L16.0825 102.428L14.8018 103.708C14.3441 104.166 13.6023 104.166 13.1446 103.708C12.6868 103.251 12.6868 102.509 13.1446 102.051L15.2539 99.9418C15.7117 99.4843 16.4535 99.4843 16.9112 99.9418L19.0206 102.051C19.4783 102.509 19.4783 103.251 19.0206 103.708C18.7916 103.937 18.4918 104.052 18.1918 104.052Z" fill="#6583FE"/>
        <path d="M48.3959 101.186C48.0959 101.186 47.7962 101.072 47.5672 100.843L46.2866 99.5625L45.0059 100.843C44.5482 101.301 43.8064 101.301 43.3487 100.843C42.8909 100.385 42.8909 99.6434 43.3487 99.1859L45.458 97.0765C45.9158 96.619 46.6576 96.619 47.1153 97.0765L49.2247 99.1859C49.6824 99.6436 49.6824 100.386 49.2247 100.843C48.9957 101.072 48.6959 101.186 48.3959 101.186Z" fill="#6583FE"/>
        <path d="M86.976 26.0437C86.676 26.0437 86.3762 25.9293 86.1473 25.7006L84.8666 24.42L83.586 25.7006C83.1283 26.1581 82.3865 26.1581 81.9287 25.7006C81.471 25.2429 81.471 24.5008 81.9287 24.0433L84.0381 21.9339C84.4959 21.4764 85.2377 21.4764 85.6954 21.9339L87.8048 24.0433C88.2625 24.5011 88.2625 25.2431 87.8048 25.7006C87.5758 25.9291 87.2758 26.0437 86.976 26.0437Z" fill="#6583FE"/>
        <path d="M98.9312 70.8303C98.9312 70.2285 99.4189 69.7407 100.021 69.7407H103.021C103.623 69.7407 104.111 70.2285 104.111 70.8303C104.111 71.4322 103.623 71.9199 103.021 71.9199H100.021C99.4189 71.9199 98.9312 71.432 98.9312 70.8303Z" fill="#0000CC"/>
        <path d="M106.376 46.9764L99.3982 43.9494V33.3137C99.3982 31.3752 97.8211 29.7981 95.8826 29.7981C93.9441 29.7981 92.367 31.3752 92.367 33.3137V40.9004L91.6456 40.5873C90.5546 40.1136 89.3103 40.22 88.317 40.8718C87.3235 41.5236 86.7303 42.6226 86.7303 43.8114V76.2723C86.7303 76.2723 84.2969 76.2723 82.7377 76.2723L79.4271 76.2725C62.6968 76.2725 36.5864 76.2725 36.5864 76.2725C35.5411 75.8568 34.403 75.6257 33.2112 75.6257C32.0194 75.6257 30.8813 75.8568 29.836 76.2725H20.6039C19.5586 75.8568 18.4205 75.6257 17.2287 75.6257C16.0369 75.6257 14.8988 75.8568 13.8535 76.2725L5.07777 76.2732C3.79223 76.2814 2.74902 77.3289 2.74902 78.6163V83.6179C2.74902 84.9102 3.80043 85.9616 5.09277 85.9616H8.1434C8.72137 90.4618 12.5738 93.9517 17.2287 93.9517C20.6564 93.9517 23.6487 92.0586 25.22 89.2644C26.7912 92.0586 29.7835 93.9517 33.2112 93.9517C36.7585 93.9517 39.8389 91.9243 41.3611 88.9689C41.4057 88.974 41.4493 88.9825 41.4952 88.9825H55.9667C57.7367 88.9825 59.2015 87.6662 59.4434 85.9618H61.7077C61.9496 87.6662 63.4142 88.9825 65.1844 88.9825H71.9731C73.7431 88.9825 75.2079 87.6662 75.4498 85.9618H89.8458C90.4236 90.4618 94.2767 93.9517 98.9323 93.9517C103.587 93.9517 107.439 90.4618 108.017 85.9618H113.736C115.674 85.9618 117.251 84.3847 117.251 82.4462V63.5486C117.251 56.3481 112.982 49.8433 106.376 46.9764ZM95.8826 32.1418C96.5288 32.1418 97.0545 32.6676 97.0545 33.3137V45.1893C97.0545 47.4711 95.5948 49.4734 93.4221 50.1718C92.2226 50.5576 91.4168 51.6632 91.4168 52.9229V57.7375H89.074V52.9002C89.0839 50.6279 90.54 48.6367 92.705 47.9406C93.9047 47.555 94.7107 46.4495 94.7107 45.1895V33.314C94.7107 32.6675 95.2364 32.1418 95.8826 32.1418ZM89.0731 64.8599V60.0812H92.6799C93.326 60.0812 93.8518 60.6069 93.8518 61.2531V63.688C93.8518 64.3342 93.326 64.8599 92.6799 64.8599H89.0731ZM89.6025 42.8317C89.9384 42.6114 90.3429 42.5769 90.7123 42.7375L92.367 43.4556V45.1893C92.367 45.4274 92.2149 45.6362 91.988 45.7091C90.8686 46.0691 89.8833 46.6715 89.074 47.4428V43.8116C89.074 43.4092 89.2667 43.052 89.6025 42.8317ZM26.445 78.6163C25.9749 79.1312 25.564 79.701 25.2197 80.3129C24.8757 79.701 24.4648 79.1314 23.9944 78.6163H26.445ZM5.09277 78.6163H8.38809H10.4628C9.2234 79.9738 8.38832 81.7046 8.14316 83.6179H5.09277V78.6163ZM17.2287 91.6079C13.4686 91.6079 10.4096 88.5489 10.4096 84.7888C10.4096 81.0287 13.4686 77.9694 17.2287 77.9694C20.9888 77.9694 24.0481 81.0285 24.0481 84.7888C24.0481 88.5489 20.989 91.6079 17.2287 91.6079ZM33.2112 91.6079C29.4511 91.6079 26.3918 88.5489 26.3918 84.7888C26.3918 81.0287 29.4509 77.9694 33.2112 77.9694C36.9715 77.9694 40.0306 81.0285 40.0306 84.7888C40.0304 88.5489 36.9713 91.6079 33.2112 91.6079ZM55.9664 86.6385H42.1864C42.3094 86.0408 42.3741 85.4221 42.3741 84.7886C42.3741 82.4129 41.465 80.2459 39.9769 78.6163H86.73V83.6179H75.4493C75.2082 81.9128 73.7431 80.5956 71.9724 80.5956H65.1842C63.4135 80.5956 61.9484 81.9128 61.7072 83.6179H59.4434C59.2022 81.9128 57.7371 80.5956 55.9664 80.5956H47.5615C46.9144 80.5956 46.3896 81.1204 46.3896 81.7675C46.3896 82.4146 46.9144 82.9393 47.5615 82.9393H55.9664C56.6126 82.9393 57.1383 83.465 57.1383 84.1112V84.7874L57.1381 84.7897L57.1383 84.7921V85.4666C57.1383 86.1128 56.6126 86.6385 55.9664 86.6385ZM71.9726 86.6385H65.1842C64.538 86.6385 64.0123 86.1128 64.0123 85.4666V84.7909V84.7897V84.7886V84.1112C64.0123 83.465 64.538 82.9393 65.1842 82.9393H71.9728C72.619 82.9393 73.1447 83.465 73.1447 84.1112V84.7794C73.1447 84.7829 73.1438 84.7862 73.1438 84.7897C73.1438 84.7932 73.1447 84.7965 73.1447 84.8V85.4668C73.1445 86.1128 72.6188 86.6385 71.9726 86.6385ZM89.074 67.2036H92.6799C94.6184 67.2036 96.1955 65.6265 96.1955 63.688V61.2531C96.1955 59.6917 95.1715 58.3663 93.7606 57.909V52.9229C93.7606 52.6811 93.9094 52.4772 94.1396 52.4031C96.8747 51.524 98.8275 49.2168 99.2909 46.4577L105.443 49.1265C111.192 51.6215 114.907 57.2823 114.907 63.5483V68.9652H112.946C111.008 68.9652 109.431 70.5423 109.431 72.4808V83.6179H106.922C106.4 83.6179 105.946 83.27 105.793 82.7528C104.9 79.7392 102.078 77.6343 98.9318 77.6343C95.7853 77.6343 92.9639 79.7389 92.071 82.7523C91.9175 83.2698 91.4628 83.6176 90.9397 83.6176H89.074V67.2036ZM98.9318 91.6077C95.4921 91.6077 92.6405 89.0485 92.1786 85.7352C93.1901 85.355 93.9914 84.5188 94.3179 83.4189C94.9184 81.3929 96.8157 79.978 98.9318 79.978C101.048 79.978 102.945 81.3929 103.546 83.4191C103.872 84.5183 104.673 85.3543 105.683 85.7347C105.221 89.0483 102.371 91.6077 98.9318 91.6077ZM113.735 83.6179H111.774V72.4808C111.774 71.8347 112.3 71.3089 112.946 71.3089H114.907V82.446C114.907 83.0921 114.381 83.6179 113.735 83.6179Z" fill="#0000CC"/>
        <path d="M20.4986 48.7311H16.8325C16.2723 48.7311 15.9203 49.3333 16.1941 49.8221C16.911 51.1016 18.3463 53.1247 20.4986 53.7247V48.7311Z" fill="#6582FD"/>
        <path fill-rule="evenodd" clip-rule="evenodd" d="M21.2306 48.7311C21.2306 48.3268 20.9029 47.9991 20.4986 47.9991H16.8325C15.7114 47.9991 15.0091 49.2045 15.5555 50.1799C16.2865 51.4846 17.8469 53.7455 20.302 54.4299C20.5224 54.4914 20.759 54.4462 20.9413 54.3077C21.1236 54.1693 21.2306 53.9536 21.2306 53.7247V48.7311ZM19.7665 49.4632V52.6377C18.402 51.8901 17.4114 50.4971 16.8328 49.4643L16.8315 49.465C16.8317 49.4645 16.8319 49.4639 16.8323 49.4633C16.8323 49.4632 16.8324 49.463 16.8325 49.4629C16.8325 49.4629 16.8325 49.4629 16.8325 49.4629C16.8331 49.4618 16.8337 49.4611 16.834 49.4608C16.8343 49.4606 16.8339 49.461 16.8328 49.4616C16.8327 49.4617 16.8326 49.4618 16.8325 49.4618C16.8323 49.462 16.832 49.4621 16.8317 49.4622C16.8314 49.4615 16.8312 49.461 16.8311 49.4607C16.8311 49.461 16.8312 49.4613 16.8312 49.4616C16.8313 49.4619 16.8313 49.4621 16.8313 49.4624C16.8312 49.4625 16.831 49.4626 16.8309 49.4626C16.8302 49.4629 16.8295 49.4632 16.829 49.4633C16.8285 49.4634 16.8283 49.4634 16.8287 49.4634C16.8291 49.4633 16.8299 49.4632 16.8314 49.4632C16.8314 49.4636 16.8314 49.464 16.8314 49.4644C16.8314 49.4647 16.8314 49.4649 16.8314 49.465C16.8313 49.4656 16.8313 49.4658 16.8314 49.4654C16.8314 49.4653 16.8315 49.4651 16.8315 49.465L16.8328 49.4643C16.8326 49.4639 16.8324 49.4636 16.8323 49.4633C16.8323 49.4633 16.8323 49.4633 16.8323 49.4633C16.8323 49.4633 16.8324 49.4632 16.8325 49.4632H19.7665Z" fill="#2626BC"/>
        <path d="M9.83538 62.9234L12.5645 71.0743H77.3028V64.7522C77.3028 63.5926 76.6293 62.5369 75.5766 62.0508C69.9763 59.4681 60.2339 56.6203 60.2339 56.6203C60.2339 56.6203 53.9103 50.6262 46.023 49.0244C32.61 46.2996 20.222 48.7316 20.222 48.7316L10.1795 61.0362C9.749 61.5647 9.61869 62.2763 9.83538 62.9234Z" fill="#6582FD"/>
        <path fill-rule="evenodd" clip-rule="evenodd" d="M24.8276 60.3193C24.8276 59.915 24.4998 59.5873 24.0955 59.5873H22.7277C22.3234 59.5873 21.9956 59.915 21.9956 60.3193C21.9956 60.7236 22.3234 61.0514 22.7277 61.0514H24.0955C24.4998 61.0514 24.8276 60.7236 24.8276 60.3193Z" fill="white"/>
        <path fill-rule="evenodd" clip-rule="evenodd" d="M45.413 60.3193C45.413 59.915 45.0853 59.5873 44.681 59.5873H43.3132C42.9089 59.5873 42.5811 59.915 42.5811 60.3193C42.5811 60.7236 42.9089 61.0514 43.3132 61.0514H44.681C45.0853 61.0514 45.413 60.7236 45.413 60.3193Z" fill="white"/>
        <path fill-rule="evenodd" clip-rule="evenodd" d="M40.2514 58.2616C39.8471 58.2616 39.5193 58.5894 39.5193 58.9937V64.4504C39.5193 64.8547 39.8471 65.1825 40.2514 65.1825C40.6557 65.1825 40.9834 64.8547 40.9834 64.4504V58.9937C40.9834 58.5894 40.6557 58.2616 40.2514 58.2616Z" fill="#2626BC"/>
        <path fill-rule="evenodd" clip-rule="evenodd" d="M19.8797 58.2616C19.4754 58.2616 19.1476 58.5894 19.1476 58.9937V63.7917C19.1476 64.196 19.4754 64.5237 19.8797 64.5237C20.284 64.5237 20.6117 64.196 20.6117 63.7917V58.9937C20.6117 58.5894 20.284 58.2616 19.8797 58.2616Z" fill="#2626BC"/>
        <path d="M9.83538 62.9234L10.8354 65.9103L12.2954 65.1233C12.9641 64.7628 13.2612 63.9618 12.989 63.2526L11.5118 59.4037L10.1795 61.0362C9.749 61.5647 9.61869 62.2763 9.83538 62.9234Z" fill="white"/>
        <path d="M26.6949 70.3452V71.0743H64.8342V63.5574H51.5393C50.1292 63.5574 48.728 63.7664 47.3792 64.1782C43.6716 65.3101 35.3745 67.8264 26.6949 70.3452Z" fill="white"/>
        <path d="M74.2387 63.9176L73.5066 64.9182L74.2387 65.9191H77.3031V64.9601C77.3031 64.3847 76.8361 63.9176 76.2607 63.9176H74.2387Z" fill="white"/>
        <path d="M74.2391 65.9189H72.9775C72.5574 65.9189 72.1627 65.7188 71.9144 65.3798L71.3551 64.6161C71.1425 64.3259 71.3498 63.9173 71.7094 63.9173H74.2391V65.9189Z" fill="#2626BC"/>
        <path fill-rule="evenodd" clip-rule="evenodd" d="M13.8122 56.5855C13.499 56.3299 13.0378 56.3766 12.7822 56.6898L9.61244 60.5736C9.02264 61.2964 8.84441 62.2712 9.14079 63.156L11.8705 71.3064C11.9705 71.6048 12.25 71.8059 12.5647 71.8059H77.303C77.7073 71.8059 78.035 71.4782 78.035 71.0739V64.752C78.035 63.3068 77.1962 61.9927 75.8829 61.3867C74.0404 60.5365 71.7692 59.6639 69.5508 58.8747C69.1699 58.7392 68.7512 58.9381 68.6157 59.319C68.4802 59.7 68.6791 60.1186 69.06 60.2541C71.2625 61.0377 73.4859 61.8931 75.2694 62.7161C76.0631 63.0823 76.5709 63.8768 76.5709 64.752V70.3418H13.0915L10.5291 62.691C10.3924 62.2829 10.4745 61.833 10.7468 61.4993C10.7468 61.4993 10.7467 61.4994 10.7468 61.4993L13.9165 57.6156C14.1721 57.3023 14.1254 56.8412 13.8122 56.5855Z" fill="#2626BC"/>
        <path fill-rule="evenodd" clip-rule="evenodd" d="M20.0817 48.0127C20.0814 48.0127 20.0812 48.0128 20.2223 48.7311L20.0812 48.0128C19.9138 48.0456 19.763 48.136 19.6551 48.2682L15.7179 53.0924C15.4623 53.4057 15.5089 53.8668 15.8222 54.1225C16.1354 54.3781 16.5966 54.3314 16.8522 54.0182L20.6192 49.4026C20.6966 49.3889 20.791 49.3725 20.9018 49.3539C21.2596 49.294 21.7882 49.2108 22.4655 49.1192C23.8204 48.9359 25.7687 48.7191 28.1336 48.5867C32.8673 48.3215 39.2508 48.3953 45.8767 49.7414C48.8148 50.3383 51.5466 51.5701 53.8057 52.8721C54.1559 53.074 54.6036 52.9537 54.8055 52.6034C55.0074 52.2532 54.8871 51.8055 54.5368 51.6036C52.1908 50.2515 49.3085 48.9445 46.1682 48.3065C39.3817 46.9278 32.8651 46.8552 28.0518 47.1248C25.6432 47.2597 23.6563 47.4806 22.2693 47.6682C21.5757 47.7621 21.0317 47.8476 20.6597 47.91C20.4737 47.9411 20.3306 47.9665 20.2333 47.9843C20.1846 47.9932 20.1474 48.0001 20.1219 48.005C20.1092 48.0074 20.0994 48.0092 20.0926 48.0106L20.0847 48.0121L20.0817 48.0127Z" fill="#2626BC"/>
        <path d="M75.7609 70.0176L76.1135 68.9286C76.3037 68.3413 76.8506 67.9435 77.4678 67.9435H77.5358C77.9681 67.9435 78.3064 68.3163 78.2643 68.7468L77.9703 71.7581C77.8605 72.8829 76.9148 73.7408 75.7845 73.7408H29.561C29.3576 73.7408 29.1635 73.6562 29.025 73.5073L26.6951 71.0024H74.4066C75.0238 71.0027 75.5708 70.6049 75.7609 70.0176Z" fill="white"/>
        <path fill-rule="evenodd" clip-rule="evenodd" d="M78.9929 68.8179C79.077 67.9571 78.4006 67.2115 77.5358 67.2115H77.4678C76.5331 67.2115 75.705 67.8139 75.4171 68.7031L75.0645 69.7921C74.9721 70.0774 74.7064 70.2705 74.407 70.2703H26.6951C26.4038 70.2703 26.1402 70.443 26.0239 70.7101C25.9076 70.9771 25.9607 71.2877 26.159 71.501L28.4889 74.0058C28.7658 74.3035 29.1541 74.4729 29.561 74.4729H75.7845C77.2916 74.4729 78.5525 73.3291 78.6989 71.8292C78.6989 71.8292 78.6989 71.8292 78.6989 71.8292L78.9929 68.8179ZM77.5357 68.6756L77.4678 68.6756C77.1681 68.6756 76.9024 68.8688 76.81 69.1541C76.81 69.1541 76.81 69.1541 76.81 69.1541L76.4574 70.2431C76.1695 71.1322 75.3414 71.7348 74.4066 71.7345C74.4065 71.7345 74.4064 71.7345 74.4063 71.7345H28.3758L29.561 73.0087L75.7845 73.0087C76.5381 73.0087 77.1685 72.4368 77.2417 71.6869L77.5357 68.6756Z" fill="#2626BC"/>
        <path d="M13.4033 69.8307L13.2073 69.2252C12.9599 68.4611 12.2483 67.9435 11.4452 67.9435H10.5178C10.0855 67.9435 9.74725 68.3163 9.78926 68.7468L10.2123 73.08C10.2489 73.455 10.5641 73.7409 10.9408 73.7409H13.6899C13.8932 73.7409 14.0874 73.6563 14.2259 73.5074L16.5558 71.0026H15.0148C14.2804 71.0027 13.6296 70.5293 13.4033 69.8307Z" fill="white"/>
        <path fill-rule="evenodd" clip-rule="evenodd" d="M11.4452 68.6756C11.9308 68.6756 12.3612 68.9886 12.5108 69.4508L12.7069 70.0562C12.7069 70.0562 12.7069 70.0561 12.7069 70.0562C13.0168 71.0133 13.8831 71.6753 14.8786 71.7308L13.6899 73.0088L10.9409 73.0089L10.5179 68.6756L11.4452 68.6756ZM13.9038 68.9997C13.5585 67.9337 12.5658 67.2115 11.4452 67.2115H10.5178C9.65304 67.2115 8.97663 67.9571 9.06066 68.8179L9.48365 73.1511C9.55686 73.9011 10.1873 74.473 10.9408 74.473H13.6899C14.0967 74.473 14.485 74.3037 14.7619 74.006L17.0918 71.5011C17.2902 71.2879 17.3433 70.9773 17.2269 70.7102C17.1106 70.4432 16.8471 70.2705 16.5558 70.2705H15.0148C14.5979 70.2706 14.2283 70.0019 14.0998 69.6052L13.9038 68.9997C13.9038 68.9997 13.9038 68.9997 13.9038 68.9997Z" fill="#2626BC"/>
        <path d="M64.8344 75.6679C61.4903 75.6679 58.7793 72.9569 58.7793 69.6128C58.7793 66.2687 61.4903 63.5577 64.8344 63.5577C68.1785 63.5577 70.8895 66.2687 70.8895 69.6128C70.8895 72.9569 68.1785 75.6679 64.8344 75.6679Z" fill="white"/>
        <path fill-rule="evenodd" clip-rule="evenodd" d="M64.8344 64.2898C67.7742 64.2898 70.1574 66.673 70.1574 69.6128C70.1574 72.5526 67.7742 74.9358 64.8344 74.9358C61.8946 74.9358 59.5114 72.5526 59.5114 69.6128C59.5114 66.673 61.8946 64.2898 64.8344 64.2898ZM71.6215 69.6128C71.6215 65.8644 68.5828 62.8256 64.8344 62.8256C61.0859 62.8256 58.0472 65.8644 58.0472 69.6128C58.0472 73.3612 61.0859 76.4 64.8344 76.4C68.5828 76.4 71.6215 73.3612 71.6215 69.6128Z" fill="#2626BC"/>
        <path d="M64.8344 71.6898C65.9796 71.6898 66.9113 70.7582 66.9113 69.6128C66.9113 68.4677 65.9796 67.5359 64.8344 67.5359C63.6891 67.5359 62.7575 68.4676 62.7575 69.6128C62.7575 70.758 63.6891 71.6898 64.8344 71.6898Z" fill="#6582FD"/>
        <path d="M64.7527 70.7712C64.8509 70.7712 64.9505 70.7462 65.0417 70.6935C65.2331 70.5831 65.3375 70.38 65.331 70.1736C65.5117 70.151 65.6727 70.0443 65.7635 69.8832C65.8662 69.7011 65.8626 69.4778 65.7543 69.2989L65.412 68.7336C65.2462 68.4601 64.8903 68.3727 64.6167 68.5383C64.4399 68.6453 64.3408 68.8318 64.3376 69.0242C64.1591 69.0466 63.9995 69.1512 63.9083 69.3093C63.8049 69.4885 63.8049 69.7093 63.9083 69.8883L64.2506 70.4813C64.3578 70.6673 64.5525 70.7712 64.7527 70.7712Z" fill="white"/>
        <path fill-rule="evenodd" clip-rule="evenodd" d="M65.5665 66.2169C65.5665 65.8126 65.2387 65.4848 64.8344 65.4848H64.8329C64.4286 65.4848 64.1009 65.8126 64.1009 66.2169C64.1009 66.6212 64.4286 66.9489 64.8329 66.9489H64.8344C65.2387 66.9489 65.5665 66.6212 65.5665 66.2169Z" fill="#6582FD"/>
        <path fill-rule="evenodd" clip-rule="evenodd" d="M65.5665 73.0089C65.5665 72.6046 65.2387 72.2768 64.8344 72.2768H64.8329C64.4286 72.2768 64.1009 72.6046 64.1009 73.0089C64.1009 73.4132 64.4286 73.7409 64.8329 73.7409H64.8344C65.2387 73.7409 65.5665 73.4132 65.5665 73.0089Z" fill="#6582FD"/>
        <path fill-rule="evenodd" clip-rule="evenodd" d="M62.9083 66.6544C62.6009 66.3918 62.1388 66.4281 61.8762 66.7355L61.8753 66.7365C61.6127 67.0439 61.649 67.506 61.9564 67.7687C62.2638 68.0313 62.7259 67.995 62.9885 67.6876L62.9894 67.6866C63.252 67.3792 63.2157 66.9171 62.9083 66.6544Z" fill="#6582FD"/>
        <path fill-rule="evenodd" clip-rule="evenodd" d="M67.7109 71.4571C67.4036 71.1945 66.9415 71.2308 66.6788 71.5382L66.6779 71.5392C66.4153 71.8466 66.4516 72.3087 66.759 72.5713C67.0664 72.8339 67.5285 72.7976 67.7911 72.4902L67.792 72.4892C68.0546 72.1818 68.0183 71.7197 67.7109 71.4571Z" fill="#6582FD"/>
        <path fill-rule="evenodd" clip-rule="evenodd" d="M61.4377 68.8801C61.0334 68.8801 60.7057 69.2079 60.7057 69.6122V69.6135C60.7057 70.0178 61.0334 70.3456 61.4377 70.3456C61.842 70.3456 62.1698 70.0178 62.1698 69.6135V69.6122C62.1698 69.2079 61.842 68.8801 61.4377 68.8801Z" fill="#6582FD"/>
        <path fill-rule="evenodd" clip-rule="evenodd" d="M68.2297 68.8801C67.8254 68.8801 67.4977 69.2079 67.4977 69.6122V69.6135C67.4977 70.0178 67.8254 70.3456 68.2297 70.3456C68.634 70.3456 68.9618 70.0178 68.9618 69.6135V69.6122C68.9618 69.2079 68.634 68.8801 68.2297 68.8801Z" fill="#6582FD"/>
        <path fill-rule="evenodd" clip-rule="evenodd" d="M61.9564 71.4571C61.649 71.7197 61.6127 72.1818 61.8753 72.4892L61.8762 72.4902C62.1388 72.7976 62.6009 72.8339 62.9083 72.5713C63.2157 72.3087 63.252 71.8466 62.9894 71.5392L62.9885 71.5382C62.7259 71.2308 62.2638 71.1945 61.9564 71.4571Z" fill="#6582FD"/>
        <path fill-rule="evenodd" clip-rule="evenodd" d="M66.759 66.6544C66.4516 66.9171 66.4153 67.3792 66.6779 67.6866L66.6788 67.6876C66.9415 67.995 67.4036 68.0313 67.7109 67.7687C68.0183 67.506 68.0546 67.0439 67.792 66.7365L67.7911 66.7355C67.5285 66.4281 67.0664 66.3918 66.759 66.6544Z" fill="#6582FD"/>
        <path d="M21.5489 75.6679C18.2048 75.6679 15.4938 72.9569 15.4938 69.6128C15.4938 66.2687 18.2048 63.5577 21.5489 63.5577C24.8931 63.5577 27.604 66.2687 27.604 69.6128C27.604 72.9569 24.8931 75.6679 21.5489 75.6679Z" fill="white"/>
        <path fill-rule="evenodd" clip-rule="evenodd" d="M21.5489 64.2898C24.4887 64.2898 26.8719 66.673 26.8719 69.6128C26.8719 72.5526 24.4887 74.9358 21.5489 74.9358C18.6091 74.9358 16.2259 72.5526 16.2259 69.6128C16.2259 66.673 18.6091 64.2898 21.5489 64.2898ZM28.3361 69.6128C28.3361 65.8644 25.2974 62.8256 21.5489 62.8256C17.8005 62.8256 14.7618 65.8644 14.7618 69.6128C14.7618 73.3612 17.8005 76.4 21.5489 76.4C25.2974 76.4 28.3361 73.3612 28.3361 69.6128Z" fill="#2626BC"/>
        <path d="M21.5491 71.6898C22.6943 71.6898 23.6259 70.7582 23.6259 69.6128C23.6259 68.4677 22.6943 67.5359 21.5491 67.5359C20.4038 67.5359 19.4722 68.4676 19.4722 69.6128C19.4722 70.758 20.4038 71.6898 21.5491 71.6898Z" fill="#6582FD"/>
        <path d="M21.4674 70.7712C21.5656 70.7712 21.6652 70.7462 21.7564 70.6935C21.9478 70.5831 22.0521 70.38 22.0457 70.1736C22.2264 70.151 22.3874 70.0443 22.4782 69.8832C22.5808 69.7011 22.5773 69.4778 22.469 69.2989L22.1267 68.7336C21.9609 68.4601 21.6049 68.3727 21.3314 68.5383C21.1546 68.6453 21.0555 68.8318 21.0523 69.0242C20.8738 69.0466 20.7142 69.1512 20.623 69.3093C20.5196 69.4885 20.5196 69.7093 20.623 69.8883L20.9653 70.4813C21.0725 70.6673 21.2672 70.7712 21.4674 70.7712Z" fill="white"/>
        <path fill-rule="evenodd" clip-rule="evenodd" d="M22.2813 66.2173C22.2813 65.813 21.9535 65.4852 21.5492 65.4852H21.5478C21.1434 65.4852 20.8157 65.813 20.8157 66.2173C20.8157 66.6216 21.1434 66.9494 21.5478 66.9494H21.5492C21.9535 66.9494 22.2813 66.6216 22.2813 66.2173Z" fill="#6582FD"/>
        <path fill-rule="evenodd" clip-rule="evenodd" d="M22.2813 73.0093C22.2813 72.605 21.9535 72.2772 21.5492 72.2772H21.5478C21.1434 72.2772 20.8157 72.605 20.8157 73.0093C20.8157 73.4136 21.1434 73.7414 21.5478 73.7414H21.5492C21.9535 73.7414 22.2813 73.4136 22.2813 73.0093Z" fill="#6582FD"/>
        <path fill-rule="evenodd" clip-rule="evenodd" d="M19.625 66.6565C19.3185 66.3928 18.8563 66.4275 18.5926 66.734L18.5917 66.7351C18.3281 67.0416 18.3628 67.5038 18.6693 67.7675C18.9758 68.0311 19.438 67.9964 19.7017 67.6899L19.7026 67.6889C19.9662 67.3824 19.9315 66.9202 19.625 66.6565Z" fill="#6582FD"/>
        <path fill-rule="evenodd" clip-rule="evenodd" d="M24.4265 71.4581C24.1194 71.1951 23.6573 71.2308 23.3943 71.5379L23.3934 71.5389C23.1304 71.846 23.1661 72.3081 23.4732 72.5712C23.7802 72.8342 24.2424 72.7984 24.5054 72.4914L24.5063 72.4904C24.7693 72.1833 24.7336 71.7211 24.4265 71.4581Z" fill="#6582FD"/>
        <path fill-rule="evenodd" clip-rule="evenodd" d="M18.1526 68.8806C17.7483 68.8806 17.4205 69.2083 17.4205 69.6127V69.614C17.4205 70.0183 17.7483 70.346 18.1526 70.346C18.5569 70.346 18.8846 70.0183 18.8846 69.614V69.6127C18.8846 69.2083 18.5569 68.8806 18.1526 68.8806Z" fill="#6582FD"/>
        <path fill-rule="evenodd" clip-rule="evenodd" d="M24.9445 68.8806C24.5402 68.8806 24.2125 69.2083 24.2125 69.6127V69.614C24.2125 70.0183 24.5402 70.346 24.9445 70.346C25.3489 70.346 25.6766 70.0183 25.6766 69.614V69.6127C25.6766 69.2083 25.3489 68.8806 24.9445 68.8806Z" fill="#6582FD"/>
        <path fill-rule="evenodd" clip-rule="evenodd" d="M18.6705 71.4581C18.3634 71.7211 18.3277 72.1833 18.5907 72.4904L18.5916 72.4914C18.8546 72.7984 19.3167 72.8342 19.6238 72.5712C19.9309 72.3081 19.9666 71.846 19.7036 71.5389L19.7027 71.5379C19.4397 71.2308 18.9776 71.1951 18.6705 71.4581Z" fill="#6582FD"/>
        <path fill-rule="evenodd" clip-rule="evenodd" d="M23.472 66.6565C23.1655 66.9202 23.1307 67.3824 23.3944 67.6889L23.3953 67.6899C23.659 67.9964 24.1212 68.0311 24.4277 67.7675C24.7342 67.5038 24.7689 67.0416 24.5052 66.7351L24.5043 66.734C24.2407 66.4275 23.7785 66.3928 23.472 66.6565Z" fill="#6582FD"/>
        <path d="M41.237 50.9073L40.505 54.897L41.3845 56.9403L42.6529 57.0433H53.0146L53.7466 55.9771L53.0146 54.6158C50.8857 53.3727 48.2839 52.1736 45.4977 51.607C44.1141 51.326 42.6924 51.0918 41.237 50.9073Z" fill="white"/>
        <path d="M27.8446 57.0435H37.8505L39.5826 56.9219L39.9969 54.897L39.2648 50.6862C37.0716 50.4739 34.8109 50.367 32.4976 50.367C30.4639 50.367 28.6059 50.449 26.9968 50.5661L24.6239 54.897L25.3087 56.9219L27.8446 57.0435Z" fill="white"/>
        <path d="M27.8446 57.0435H20.9084C20.2889 57.0435 19.9486 56.3228 20.3436 55.8455C21.4997 54.4486 23.3535 52.2083 24.1479 51.2483C24.3936 50.9513 24.7454 50.7633 25.129 50.7257C25.705 50.6692 26.3302 50.6152 26.9968 50.5667L25.7479 54.0713C25.2325 55.5208 26.3058 57.0435 27.8446 57.0435Z" fill="#2626BC"/>
        <path d="M53.0141 54.6183C54.1216 55.2657 55.1015 55.9252 55.9119 56.5139C56.1417 56.6808 56.0231 57.0435 55.7392 57.0435H53.0141V54.6183Z" fill="#2626BC"/>
        <path d="M37.8502 57.0435H42.6526C41.8707 57.0435 41.2367 56.4095 41.2367 55.6291V50.9073C40.5867 50.8224 39.9293 50.7491 39.2645 50.6862V55.6291C39.2645 56.0186 39.1064 56.3729 38.8502 56.6291C38.5954 56.8853 38.2411 57.0435 37.8502 57.0435Z" fill="#2626BC"/>
    </g>
    <defs>
        <linearGradient id="paint0_linear_302_340" x1="5.2472" y1="103.359" x2="106.346" y2="2.25978" gradientUnits="userSpaceOnUse">
            <stop stop-color="#D2DEFF" stop-opacity="0"/>
            <stop offset="1" stop-color="#B7C5FF"/>
        </linearGradient>
        <clipPath id="clip0_302_340">
            <rect width="120" height="120" fill="white"/>
        </clipPath>
    </defs>
</svg>
