<svg width="120" height="120" viewBox="0 0 120 120" fill="none" xmlns="http://www.w3.org/2000/svg">
    <g clip-path="url(#clip0_302_254)">
        <path d="M115.906 10.1568C72.353 -8.81797 -15.067 36.599 2.23644 87.3123C7.94112 104.032 42.2147 95.3081 58.8553 80.9385C76.5856 65.6282 82.2256 92.5094 86.9248 99.3407C93.6659 109.14 104.99 116.8 112.235 102.769C122.704 82.4931 78.7404 79.3258 105.844 56.5933C110.741 52.4868 109.316 46.3863 100.632 46.6431C87.2867 47.0381 77.8102 56.4353 67.3943 52.0087C64.0409 50.5834 62.2006 46.4533 62.9009 42.8777C65.7176 28.4941 83.7996 27.3958 95.9874 27.3958C109.201 27.396 128.509 15.6477 115.906 10.1568Z" fill="url(#paint0_linear_302_254)"/>
        <path opacity="0.1" d="M60.1335 23.8987V23.8982C38.565 23.8982 21.0781 41.3851 21.0781 62.9536C21.0781 84.522 38.565 102.009 60.1335 102.009V102.008C81.7028 102.008 99.1883 84.5229 99.1883 62.9536C99.1883 41.3842 81.7028 23.8987 60.1335 23.8987Z" fill="#0000CC"/>
        <path d="M60.1335 19.5506V19.55C38.565 19.55 21.0781 37.0369 21.0781 58.6054C21.0781 80.1739 38.565 97.6608 60.1335 97.6608V97.6602C81.7028 97.6602 99.1883 80.1748 99.1883 58.6054C99.1883 37.036 81.7028 19.5506 60.1335 19.5506Z" fill="#6583FE"/>
        <path d="M62.7302 98.478C62.2569 98.478 61.8585 98.1106 61.8272 97.6316C61.7944 97.1323 62.1725 96.7009 62.6716 96.6683C72.3188 96.0347 81.2907 91.7942 87.9343 84.7281C94.6076 77.6301 98.2828 68.3529 98.2828 58.6054C98.2828 51.5955 96.3651 44.7421 92.7368 38.7866C92.4763 38.3594 92.6118 37.8019 93.039 37.5417C93.4662 37.2812 94.0237 37.4167 94.2839 37.8439C98.0853 44.0835 100.095 51.2626 100.095 58.6054C100.095 68.8158 96.2448 78.5338 89.2542 85.969C82.2953 93.3706 72.8969 97.8122 62.7907 98.476C62.7702 98.4773 62.7501 98.478 62.7302 98.478Z" fill="#0000CC"/>
        <path d="M57.4057 98.4701C57.3848 98.4701 57.3636 98.4694 57.3423 98.468C47.2655 97.7722 37.8996 93.3169 30.9695 85.9229C24.0065 78.4935 20.1719 68.7918 20.1719 58.6053C20.1719 36.5707 38.0983 18.644 60.1329 18.644C60.1436 18.644 60.1541 18.6442 60.1646 18.6446C72.236 18.6538 83.5295 24.0373 91.1549 33.4178C91.4705 33.8062 91.4116 34.3766 91.0233 34.6922C90.6347 35.0078 90.0646 34.9489 89.7489 34.5607C82.4627 25.5971 71.6681 20.4562 60.1331 20.4562C60.1228 20.4562 60.1125 20.456 60.1021 20.4556C39.0806 20.4723 21.9838 37.5798 21.9838 58.6053C21.9838 68.3302 25.6445 77.5918 32.2917 84.684C38.9078 91.7432 47.8486 95.9963 57.4675 96.6605C57.9666 96.695 58.3433 97.1276 58.3088 97.6268C58.2755 98.1045 57.8776 98.4701 57.4057 98.4701Z" fill="#0000CC"/>
        <path d="M60.1333 23.3201V23.3196C40.6465 23.3196 24.8477 39.1186 24.8477 58.6052C24.8477 78.0917 40.6465 93.8909 60.1333 93.8909V93.8904C79.6207 93.8904 95.4185 78.0926 95.4185 58.6052C95.4185 39.1177 79.6207 23.3201 60.1333 23.3201Z" fill="white"/>
        <path d="M60.1328 23.3201C79.6203 23.3201 95.418 39.1178 95.418 58.6053C95.418 78.0928 79.6203 93.8904 60.1328 93.8904V23.3201Z" fill="#6583FE"/>
        <path d="M60.1328 88.1981V88.1977C76.4763 88.1977 89.7253 74.9487 89.7253 58.6053C89.7253 42.2618 76.4763 29.0128 60.1328 29.0128V29.0125V88.1981Z" fill="white"/>
        <path d="M52.8784 77.7865L52.1183 79.8831C51.8802 80.5397 51.288 81.0026 50.5932 81.0749L46.0132 81.5514C45.4517 81.6097 44.9491 81.925 44.652 82.4049L41.0199 88.2718C31.2896 81.9886 24.8477 71.0496 24.8477 58.6053C24.8477 51.0971 27.1917 44.1393 31.1892 38.4192L31.8623 44.4807C31.9649 45.4039 32.7452 46.1024 33.6741 46.1024H35.1286C35.8265 46.1024 36.4631 46.501 36.7682 47.1288L40.3651 54.5326C40.6157 55.0482 40.609 55.6515 40.3472 56.1615L35.7297 65.1572C35.4859 65.6322 35.4627 66.1903 35.6659 66.6838L37.2351 70.4936C37.5884 71.3513 38.5295 71.8069 39.4214 71.552L44.3288 70.1495C44.9078 69.9841 45.5312 70.1153 45.9945 70.5001L52.3294 75.7633C52.9208 76.2545 53.1403 77.0638 52.8784 77.7865Z" fill="#6583FE"/>
        <path d="M60.1322 41.1562V66.4669L55.4571 64.8148C55.0944 64.6856 54.7829 64.4464 54.5626 64.1312L47.472 53.8334C47.155 53.374 47.0676 52.7965 47.2309 52.263L50.0109 43.2146C50.2464 42.4493 50.9546 41.929 51.7542 41.929H58.3528C58.6871 41.929 59.0156 41.8378 59.2984 41.6632L60.1322 41.1562Z" fill="#6583FE"/>
        <path d="M46.0155 36.4834C47.3023 36.4834 48.3454 35.4402 48.3454 34.1534C48.3454 32.8666 47.3023 31.8235 46.0155 31.8235C44.7287 31.8235 43.6855 32.8666 43.6855 34.1534C43.6855 35.4402 44.7287 36.4834 46.0155 36.4834Z" fill="#0000CC"/>
        <path d="M74.2499 85.3869C75.5367 85.3869 76.5798 84.3438 76.5798 83.057C76.5798 81.7702 75.5367 80.7271 74.2499 80.7271C72.9631 80.7271 71.9199 81.7702 71.9199 83.057C71.9199 84.3438 72.9631 85.3869 74.2499 85.3869Z" fill="#0000CC"/>
        <path d="M35.6815 46.8176C36.9683 46.8176 38.0114 45.7744 38.0114 44.4877C38.0114 43.2009 36.9683 42.1577 35.6815 42.1577C34.3947 42.1577 33.3516 43.2009 33.3516 44.4877C33.3516 45.7744 34.3947 46.8176 35.6815 46.8176Z" fill="#0000CC"/>
        <path d="M84.5848 75.052C85.8716 75.052 86.9148 74.0088 86.9148 72.722C86.9148 71.4352 85.8716 70.3921 84.5848 70.3921C83.298 70.3921 82.2549 71.4352 82.2549 72.722C82.2549 74.0088 83.298 75.052 84.5848 75.052Z" fill="#0000CC"/>
        <path d="M31.8983 60.935C33.1851 60.935 34.2282 59.8919 34.2282 58.6051C34.2282 57.3183 33.1851 56.2751 31.8983 56.2751C30.6115 56.2751 29.5684 57.3183 29.5684 58.6051C29.5684 59.8919 30.6115 60.935 31.8983 60.935Z" fill="#0000CC"/>
        <path d="M88.367 60.935C89.6538 60.935 90.697 59.8919 90.697 58.6051C90.697 57.3183 89.6538 56.2751 88.367 56.2751C87.0803 56.2751 86.0371 57.3183 86.0371 58.6051C86.0371 59.8919 87.0803 60.935 88.367 60.935Z" fill="#0000CC"/>
        <path d="M35.6815 75.0525C36.9683 75.0525 38.0114 74.0093 38.0114 72.7225C38.0114 71.4357 36.9683 70.3926 35.6815 70.3926C34.3947 70.3926 33.3516 71.4357 33.3516 72.7225C33.3516 74.0093 34.3947 75.0525 35.6815 75.0525Z" fill="#0000CC"/>
        <path d="M84.5848 46.8181C85.8716 46.8181 86.9148 45.7749 86.9148 44.4881C86.9148 43.2014 85.8716 42.1582 84.5848 42.1582C83.298 42.1582 82.2549 43.2014 82.2549 44.4881C82.2549 45.7749 83.298 46.8181 84.5848 46.8181Z" fill="#0000CC"/>
        <path d="M46.0155 85.3869C47.3023 85.3869 48.3454 84.3438 48.3454 83.057C48.3454 81.7702 47.3023 80.7271 46.0155 80.7271C44.7287 80.7271 43.6855 81.7702 43.6855 83.057C43.6855 84.3438 44.7287 85.3869 46.0155 85.3869Z" fill="#0000CC"/>
        <path d="M74.2499 36.4834C75.5367 36.4834 76.5798 35.4402 76.5798 34.1534C76.5798 32.8666 75.5367 31.8235 74.2499 31.8235C72.9631 31.8235 71.9199 32.8666 71.9199 34.1534C71.9199 35.4402 72.9631 36.4834 74.2499 36.4834Z" fill="#0000CC"/>
        <path d="M60.1317 89.1697C61.4185 89.1697 62.4616 88.1265 62.4616 86.8397C62.4616 85.5529 61.4185 84.5098 60.1317 84.5098C58.8449 84.5098 57.8018 85.5529 57.8018 86.8397C57.8018 88.1265 58.8449 89.1697 60.1317 89.1697Z" fill="#0000CC"/>
        <path d="M60.1317 32.7007C61.4185 32.7007 62.4616 31.6575 62.4616 30.3707C62.4616 29.0839 61.4185 28.0408 60.1317 28.0408C58.8449 28.0408 57.8018 29.0839 57.8018 30.3707C57.8018 31.6575 58.8449 32.7007 60.1317 32.7007Z" fill="#0000CC"/>
        <path d="M60.1329 57.8627L32.6408 57.8447C32.1406 57.8444 31.7347 58.2497 31.7344 58.7501C31.734 59.2503 32.1393 59.6561 32.6397 59.6565L60.1318 59.6744L60.1329 57.8627Z" fill="#0000CC"/>
        <path d="M52.452 80.4724L61.6377 59.3406L58.6253 58.031L49.4396 79.163C49.2401 79.6219 49.4505 80.1555 49.9092 80.355L51.2601 80.9422C51.719 81.1415 52.2526 80.9311 52.452 80.4724Z" fill="#0000CC"/>
        <path d="M60.1329 94.7969C40.1769 94.7969 23.9414 78.5614 23.9414 58.6052C23.9414 38.6491 40.1769 22.4136 60.1329 22.4136C60.1436 22.4136 60.1541 22.4138 60.1646 22.4141C80.1054 22.4321 96.324 38.6603 96.324 58.6052C96.324 78.5502 80.1054 94.7784 60.1646 94.7964C60.1541 94.7967 60.1436 94.7969 60.1329 94.7969ZM60.1019 24.2253C41.1593 24.2424 25.7532 39.6586 25.7532 58.6052C25.7532 77.5519 41.1593 92.9681 60.1021 92.9851C60.1122 92.9848 60.1226 92.9846 60.1329 92.9846C79.0897 92.9846 94.5122 77.562 94.5122 58.6052C94.5122 39.6485 79.0897 24.2259 60.1329 24.2259C60.1226 24.2259 60.1122 24.2257 60.1019 24.2253Z" fill="#0000CC"/>
        <path d="M100.093 83.5732C99.8611 83.5732 99.629 83.4848 99.4524 83.3078L98.4622 82.3178L97.4721 83.3078C97.1186 83.6616 96.5446 83.6616 96.1912 83.3078C95.8373 82.9541 95.8373 82.3805 96.1912 82.0268L97.8218 80.3962C98.1752 80.0424 98.7492 80.0424 99.1027 80.3962L100.733 82.0268C101.087 82.3805 101.087 82.9541 100.733 83.3078C100.556 83.4848 100.325 83.5732 100.093 83.5732Z" fill="#6583FE"/>
        <path d="M35.7207 22.3579C35.489 22.3579 35.2569 22.2694 35.0803 22.0924L34.0902 21.1025L33.1 22.0924C32.7465 22.4463 32.1726 22.4463 31.8191 22.0924C31.4653 21.7388 31.4653 21.1652 31.8191 20.8115L33.4497 19.1809C33.8032 18.8271 34.3771 18.8271 34.7306 19.1809L36.3612 20.8115C36.7151 21.1652 36.7151 21.7388 36.3612 22.0924C36.1844 22.2694 35.9525 22.3579 35.7207 22.3579Z" fill="#6583FE"/>
        <path d="M92.9239 27.4352C92.6921 27.4352 92.4601 27.3468 92.2834 27.1698L91.2933 26.1799L90.3031 27.1698C89.9497 27.5237 89.3757 27.5237 89.0222 27.1698C88.6684 26.8162 88.6684 26.2426 89.0222 25.8889L90.6528 24.2583C91.0063 23.9045 91.5803 23.9045 91.9337 24.2583L93.5643 25.8889C93.9182 26.2426 93.9182 26.8162 93.5643 27.1698C93.3877 27.3467 93.1558 27.4352 92.9239 27.4352Z" fill="#6583FE"/>
        <path d="M22.4123 26.6305C22.2592 26.6305 22.1043 26.5917 21.9621 26.51L21.9442 26.4997C21.5103 26.2505 21.3606 25.6967 21.6097 25.2629C21.859 24.829 22.4125 24.679 22.8464 24.9285L22.8644 24.9388C23.2983 25.1879 23.448 25.7418 23.1988 26.1755C23.0312 26.4672 22.7261 26.6305 22.4123 26.6305Z" fill="#6583FE"/>
        <path d="M26.9242 29.2353C26.7691 29.2353 26.6116 29.1953 26.468 29.1114L26.45 29.1009C26.0181 28.8485 25.8724 28.2938 26.1248 27.8616C26.3772 27.4297 26.932 27.2841 27.3641 27.5364L27.382 27.5469C27.8139 27.7993 27.9596 28.3541 27.7072 28.7862C27.5389 29.0746 27.2356 29.2353 26.9242 29.2353Z" fill="#6583FE"/>
        <path d="M22.4123 26.6305C22.2592 26.6305 22.1043 26.5917 21.9621 26.51L21.9442 26.4997C21.5103 26.2505 21.3606 25.6967 21.6097 25.2629C21.859 24.829 22.4125 24.679 22.8464 24.9285L22.8644 24.9388C23.2983 25.1879 23.448 25.7418 23.1988 26.1755C23.0312 26.4672 22.7261 26.6305 22.4123 26.6305Z" fill="#6583FE"/>
        <path d="M26.9242 29.2353C26.7691 29.2353 26.6116 29.1953 26.468 29.1114L26.45 29.1009C26.0181 28.8485 25.8724 28.2938 26.1248 27.8616C26.3772 27.4297 26.932 27.2841 27.3641 27.5364L27.382 27.5469C27.8139 27.7993 27.9596 28.3541 27.7072 28.7862C27.5389 29.0746 27.2356 29.2353 26.9242 29.2353Z" fill="#6583FE"/>
        <path d="M26.9079 26.6304C26.5941 26.6304 26.289 26.4672 26.1214 26.1755C25.8723 25.7416 26.022 25.1879 26.4559 24.9388L26.4738 24.9285C26.9081 24.6795 27.4614 24.8292 27.7106 25.2629C27.9597 25.6968 27.81 26.2505 27.3761 26.4996L27.3582 26.51C27.2159 26.5915 27.0609 26.6304 26.9079 26.6304Z" fill="#6583FE"/>
        <path d="M22.3961 29.2354C22.0845 29.2354 21.7814 29.0745 21.6131 28.7862C21.3607 28.3541 21.5064 27.7994 21.9383 27.547L21.9562 27.5365C22.3885 27.2845 22.9431 27.4299 23.1955 27.8617C23.4479 28.2938 23.3022 28.8486 22.8703 29.1009L22.8524 29.1115C22.7085 29.1955 22.5512 29.2354 22.3961 29.2354Z" fill="#6583FE"/>
        <path d="M26.9079 26.6304C26.5941 26.6304 26.289 26.4672 26.1214 26.1755C25.8723 25.7416 26.022 25.1879 26.4559 24.9388L26.4738 24.9285C26.9081 24.6795 27.4614 24.8292 27.7106 25.2629C27.9597 25.6968 27.81 26.2505 27.3761 26.4996L27.3582 26.51C27.2159 26.5915 27.0609 26.6304 26.9079 26.6304Z" fill="#6583FE"/>
        <path d="M22.3961 29.2354C22.0845 29.2354 21.7814 29.0745 21.6131 28.7862C21.3607 28.3541 21.5064 27.7994 21.9383 27.547L21.9562 27.5365C22.3885 27.2845 22.9431 27.4299 23.1955 27.8617C23.4479 28.2938 23.3022 28.8486 22.8703 29.1009L22.8524 29.1115C22.7085 29.1955 22.5512 29.2354 22.3961 29.2354Z" fill="#6583FE"/>
        <path d="M24.6598 25.3332C24.1594 25.3332 23.7539 24.9277 23.7539 24.4273V24.4066C23.7539 23.9062 24.1594 23.5007 24.6598 23.5007C25.1602 23.5007 25.5657 23.9062 25.5657 24.4066V24.4273C25.5657 24.9277 25.1602 25.3332 24.6598 25.3332Z" fill="#6583FE"/>
        <path d="M24.6598 30.5429C24.1594 30.5429 23.7539 30.1374 23.7539 29.637V29.6163C23.7539 29.1159 24.1594 28.7104 24.6598 28.7104C25.1602 28.7104 25.5657 29.1159 25.5657 29.6163V29.637C25.5657 30.1374 25.1602 30.5429 24.6598 30.5429Z" fill="#6583FE"/>
        <path d="M25.9807 92.1915C25.8276 92.1915 25.6727 92.1527 25.5305 92.071L25.5125 92.0607C25.0786 91.8116 24.929 91.2577 25.1781 90.824C25.4274 90.3901 25.9809 90.24 26.4148 90.4895L26.4327 90.4999C26.8667 90.749 27.0163 91.3028 26.7672 91.7366C26.5996 92.0281 26.2945 92.1915 25.9807 92.1915Z" fill="#6583FE"/>
        <path d="M30.4925 94.7965C30.3374 94.7965 30.18 94.7565 30.0363 94.6726L30.0184 94.6621C29.5865 94.4097 29.4408 93.855 29.6932 93.4228C29.9456 92.9909 30.5005 92.8454 30.9324 93.0976L30.9504 93.1081C31.3823 93.3605 31.528 93.9153 31.2756 94.3474C31.1073 94.6356 30.804 94.7965 30.4925 94.7965Z" fill="#6583FE"/>
        <path d="M25.9807 92.1915C25.8276 92.1915 25.6727 92.1527 25.5305 92.071L25.5125 92.0607C25.0786 91.8116 24.929 91.2577 25.1781 90.824C25.4274 90.3901 25.9809 90.24 26.4148 90.4895L26.4327 90.4999C26.8667 90.749 27.0163 91.3028 26.7672 91.7366C26.5996 92.0281 26.2945 92.1915 25.9807 92.1915Z" fill="#6583FE"/>
        <path d="M30.4925 94.7965C30.3374 94.7965 30.18 94.7565 30.0363 94.6726L30.0184 94.6621C29.5865 94.4097 29.4408 93.855 29.6932 93.4228C29.9456 92.9909 30.5005 92.8454 30.9324 93.0976L30.9504 93.1081C31.3823 93.3605 31.528 93.9153 31.2756 94.3474C31.1073 94.6356 30.804 94.7965 30.4925 94.7965Z" fill="#6583FE"/>
        <path d="M30.4763 92.1916C30.1625 92.1916 29.8574 92.0283 29.6898 91.7366C29.4407 91.3027 29.5903 90.749 30.0243 90.4999L30.0422 90.4896C30.4765 90.2405 31.0298 90.3903 31.2789 90.824C31.528 91.2579 31.3784 91.8116 30.9445 92.0607L30.9265 92.0711C30.7845 92.1526 30.6292 92.1916 30.4763 92.1916Z" fill="#6583FE"/>
        <path d="M25.9645 94.7964C25.6529 94.7964 25.3498 94.6355 25.1815 94.3473C24.9291 93.9152 25.0747 93.3604 25.5067 93.108L25.5246 93.0975C25.9571 92.8455 26.5115 92.991 26.7639 93.4227C27.0162 93.8548 26.8706 94.4096 26.4386 94.662L26.4207 94.6725C26.277 94.7564 26.1198 94.7964 25.9645 94.7964Z" fill="#6583FE"/>
        <path d="M30.4763 92.1916C30.1625 92.1916 29.8574 92.0283 29.6898 91.7366C29.4407 91.3027 29.5903 90.749 30.0243 90.4999L30.0422 90.4896C30.4765 90.2405 31.0298 90.3903 31.2789 90.824C31.528 91.2579 31.3784 91.8116 30.9445 92.0607L30.9265 92.0711C30.7845 92.1526 30.6292 92.1916 30.4763 92.1916Z" fill="#6583FE"/>
        <path d="M25.9645 94.7964C25.6529 94.7964 25.3498 94.6355 25.1815 94.3473C24.9291 93.9152 25.0747 93.3604 25.5067 93.108L25.5246 93.0975C25.9571 92.8455 26.5115 92.991 26.7639 93.4227C27.0162 93.8548 26.8706 94.4096 26.4386 94.662L26.4207 94.6725C26.277 94.7564 26.1198 94.7964 25.9645 94.7964Z" fill="#6583FE"/>
        <path d="M28.2282 90.8942C27.7277 90.8942 27.3223 90.4887 27.3223 89.9883V89.9677C27.3223 89.4672 27.7277 89.0618 28.2282 89.0618C28.7286 89.0618 29.134 89.4672 29.134 89.9677V89.9883C29.134 90.4885 28.7286 90.8942 28.2282 90.8942Z" fill="#6583FE"/>
        <path d="M28.2282 96.1037C27.7277 96.1037 27.3223 95.6982 27.3223 95.1978V95.1771C27.3223 94.6767 27.7277 94.2712 28.2282 94.2712C28.7286 94.2712 29.134 94.6767 29.134 95.1771V95.1978C29.134 95.6982 28.7286 96.1037 28.2282 96.1037Z" fill="#6583FE"/>
        <path d="M79.0744 55.554L78.4945 53.0424C78.382 52.5548 77.8955 52.251 77.408 52.3635L62.3889 55.832C61.5616 55.16 60.4463 54.8603 59.3277 55.1187C57.4022 55.5633 56.2015 57.485 56.6463 59.4106C57.0909 61.3361 59.0125 62.5368 60.938 62.092C62.0566 61.8337 62.9275 61.0754 63.3763 60.1092L78.3958 56.6407C78.8831 56.5279 79.187 56.0414 79.0744 55.554Z" fill="#6583FE"/>
        <path d="M59.9998 55.7737C58.7152 55.7737 57.6738 56.815 57.6738 58.0996C57.6738 59.3842 58.7154 60.4256 59.9998 60.4256C61.2844 60.4256 62.3257 59.3842 62.3257 58.0996C62.3257 56.8152 61.2844 55.7737 59.9998 55.7737Z" fill="white"/>
    </g>
    <defs>
        <linearGradient id="paint0_linear_302_254" x1="24.3575" y1="111.196" x2="121.173" y2="14.3798" gradientUnits="userSpaceOnUse">
            <stop stop-color="#D2DEFF" stop-opacity="0"/>
            <stop offset="1" stop-color="#B7C5FF"/>
        </linearGradient>
        <clipPath id="clip0_302_254">
            <rect width="120" height="120" fill="white"/>
        </clipPath>
    </defs>
</svg>
